{"glyphs":{"0":{"ha":852,"x_min":67,"x_max":817,"o":"m 817 473 q 782 286 817 376 q 687 129 747 195 q 542 19 623 59 q 356 -22 460 -22 q 144 56 220 -22 q 67 252 67 134 q 103 444 67 354 q 201 603 138 534 q 348 710 263 671 q 528 749 433 749 q 742 669 667 749 q 817 473 817 589 m 673 503 q 632 649 673 600 q 519 699 591 699 q 385 653 444 699 q 284 525 325 607 q 230 372 249 454 q 212 222 212 290 q 251 80 212 132 q 367 29 290 29 q 496 71 437 29 q 600 202 555 113 q 655 358 638 277 q 673 503 673 439 z "},"1":{"ha":597,"x_min":7,"x_max":486,"o":"m 486 749 q 454 633 471 699 q 431 541 437 568 l 338 135 q 336 123 336 130 q 335 112 335 117 q 343 82 335 94 q 363 65 351 71 q 414 52 376 58 q 475 45 452 46 l 465 0 l 7 0 l 18 45 q 83 51 39 46 q 144 60 127 55 q 180 84 163 65 q 203 127 198 102 l 315 610 l 146 610 l 158 664 l 195 664 q 328 688 266 664 q 429 749 389 712 l 486 749 z "},"2":{"ha":776,"x_min":-1,"x_max":730,"o":"m 730 537 q 693 411 730 463 q 593 324 656 360 q 483 276 546 297 q 345 233 420 256 q 221 186 281 214 q 122 118 161 158 l 663 118 l 635 0 l -1 0 l 22 92 q 71 145 42 119 q 138 195 99 171 q 213 237 172 216 q 304 276 255 257 q 414 324 367 300 q 494 372 461 347 q 564 451 543 408 q 585 552 585 494 q 548 658 585 619 q 453 697 511 697 q 357 677 397 697 q 302 635 318 658 q 303 612 302 627 q 304 576 304 597 q 281 485 304 515 q 205 455 257 455 q 153 472 168 455 q 138 515 138 490 q 163 596 138 555 q 233 672 188 637 q 339 728 277 707 q 473 749 401 749 q 659 692 588 749 q 730 537 730 635 z "},"3":{"ha":766,"x_min":-11,"x_max":722,"o":"m 676 683 q 712 623 701 656 q 722 559 722 591 q 708 484 722 526 q 667 410 694 442 q 590 343 638 374 q 472 295 542 313 l 468 284 q 537 270 500 281 q 602 237 573 258 q 650 181 631 216 q 669 100 669 147 q 634 -42 669 22 q 541 -151 598 -107 q 404 -222 480 -197 q 241 -248 328 -248 q 60 -199 132 -248 q -11 -79 -11 -151 q 14 -1 -11 -35 q 81 33 39 33 q 136 15 119 33 q 154 -26 154 -3 q 138 -86 154 -55 q 113 -137 123 -117 q 127 -152 117 -142 q 155 -172 137 -162 q 201 -188 174 -181 q 264 -195 229 -195 q 357 -175 309 -195 q 441 -117 405 -154 q 502 -21 479 -77 q 525 111 525 34 q 484 207 525 174 q 363 239 443 239 l 273 239 l 290 315 l 351 315 q 516 388 455 315 q 577 571 577 462 q 546 665 577 633 q 453 697 515 697 q 367 679 406 697 q 308 639 328 661 q 309 615 308 631 q 309 581 309 600 q 282 486 309 516 q 201 455 255 455 q 154 472 168 455 q 141 515 141 490 q 164 593 141 555 q 235 669 187 632 q 343 726 277 703 q 486 749 410 749 q 602 731 555 749 q 676 683 649 712 z "},"4":{"ha":785,"x_min":18,"x_max":747,"o":"m 747 146 l 727 61 l 585 61 l 513 -248 l 383 -248 l 454 61 l 18 61 l 45 172 l 647 745 l 743 745 l 604 146 l 747 146 m 577 594 l 105 146 l 474 146 l 577 594 z "},"5":{"ha":734,"x_min":-18,"x_max":755,"o":"m 755 728 l 726 608 l 296 608 l 203 319 q 289 362 239 342 q 402 382 340 382 q 491 371 448 382 q 573 331 534 359 q 634 261 611 304 q 658 155 658 218 q 623 -4 658 71 q 527 -132 588 -78 q 391 -217 465 -187 q 231 -248 317 -248 q 53 -200 124 -248 q -18 -85 -18 -153 q 8 -8 -18 -41 q 74 24 35 24 q 130 5 113 24 q 147 -35 147 -14 q 132 -94 147 -62 q 108 -143 116 -127 q 157 -180 124 -164 q 247 -195 189 -195 q 431 -99 349 -195 q 513 142 513 -3 q 471 262 513 215 q 355 310 428 310 q 235 284 286 310 q 149 220 184 258 l 104 238 l 266 728 l 755 728 z "},"6":{"ha":786,"x_min":72,"x_max":741,"o":"m 741 370 q 710 219 741 292 q 627 94 680 147 q 502 9 573 39 q 352 -22 431 -22 q 148 59 224 -22 q 72 287 72 140 q 122 538 72 419 q 262 751 173 656 q 471 906 349 844 q 728 986 593 968 l 728 922 l 667 915 q 411 770 519 876 q 253 521 302 665 q 384 594 320 572 q 513 616 448 616 q 675 546 608 616 q 741 370 741 477 m 597 351 q 555 489 597 438 q 441 541 514 541 q 334 517 384 541 q 241 454 284 494 q 223 381 234 435 q 212 260 212 326 q 252 88 212 148 q 365 28 292 28 q 528 123 459 28 q 597 351 597 218 z "},"7":{"ha":690,"x_min":9,"x_max":800,"o":"m 800 728 l 790 684 l 98 -248 l 9 -248 l 662 617 l 397 617 q 305 616 338 617 q 241 603 271 614 q 194 557 218 594 q 146 462 170 521 l 102 462 l 163 728 l 800 728 z "},"8":{"ha":828,"x_min":64,"x_max":818,"o":"m 818 781 q 760 625 818 697 q 591 505 703 553 q 720 409 680 463 q 760 290 760 355 q 641 69 760 161 q 353 -23 523 -23 q 140 41 217 -23 q 64 201 64 104 q 127 373 64 301 q 329 496 191 446 q 230 590 262 539 q 197 698 197 642 q 308 902 197 816 q 564 987 419 987 q 749 928 680 987 q 818 781 818 869 m 688 789 q 651 895 688 853 q 544 937 614 937 q 393 880 455 937 q 331 735 331 822 q 384 621 331 666 q 548 530 436 575 q 651 639 614 566 q 688 789 688 711 m 624 250 q 608 317 624 288 q 561 372 593 346 q 481 422 529 397 q 372 472 433 446 q 243 361 287 430 q 199 206 199 292 q 247 78 199 127 q 378 28 294 28 q 556 93 488 28 q 624 250 624 159 z "},"9":{"ha":786,"x_min":82,"x_max":751,"o":"m 751 452 q 702 197 751 318 q 564 -17 652 77 q 353 -172 477 -109 q 87 -251 229 -235 l 87 -185 l 151 -179 q 413 -39 311 -134 q 568 203 516 56 q 436 133 498 151 q 309 114 374 114 q 147 183 212 114 q 82 359 82 252 q 112 505 82 435 q 195 630 142 574 q 318 716 245 683 q 471 750 391 750 q 674 670 597 750 q 751 452 751 590 m 611 479 q 569 641 611 581 q 460 700 527 700 q 356 666 400 700 q 282 581 312 632 q 240 473 253 532 q 227 370 227 415 q 269 239 227 290 q 381 189 311 189 q 485 209 433 189 q 583 271 536 228 q 601 345 590 294 q 611 479 611 396 z "}," ":{"ha":335,"x_min":0,"x_max":0,"o":""},"!":{"ha":460,"x_min":92,"x_max":452,"o":"m 452 920 q 448 887 452 907 q 433 836 444 867 q 355 608 401 739 q 249 293 309 476 l 196 293 q 244 655 219 450 q 276 896 269 860 q 316 962 285 937 q 384 987 347 987 q 434 968 416 987 q 452 920 452 949 m 278 78 q 251 13 278 40 q 185 -14 223 -14 q 120 13 147 -14 q 92 78 92 40 q 120 143 92 116 q 185 171 147 171 q 251 143 223 171 q 278 78 278 116 z "},"\"":{"ha":572,"x_min":199,"x_max":616,"o":"m 616 977 q 578 864 616 951 q 496 656 541 777 l 454 656 q 458 851 458 771 q 463 961 458 931 q 493 1014 469 991 q 553 1037 517 1037 q 601 1020 585 1037 q 616 977 616 1002 m 361 977 q 323 864 361 951 q 241 656 286 777 l 199 656 q 203 851 203 771 q 208 961 203 931 q 238 1014 214 991 q 298 1037 262 1037 q 346 1020 330 1037 q 361 977 361 1002 z "},"#":{"ha":893,"x_min":105,"x_max":819,"o":"m 800 505 l 643 505 l 579 335 l 756 335 l 737 252 l 548 252 l 454 0 l 378 0 l 473 252 l 326 252 l 231 0 l 156 0 l 250 252 l 105 252 l 124 335 l 281 335 l 346 505 l 168 505 l 187 589 l 376 589 l 469 834 l 545 834 l 452 589 l 599 589 l 692 834 l 767 834 l 674 589 l 819 589 l 800 505 m 570 507 l 420 507 l 355 334 l 505 334 l 570 507 z "},"$":{"ha":847,"x_min":71,"x_max":801,"o":"m 801 714 q 781 646 801 677 q 724 614 761 614 q 670 630 690 614 q 650 671 650 645 q 664 718 650 690 q 686 766 677 746 q 677 782 684 771 q 658 802 669 793 q 625 819 646 811 q 571 829 605 826 l 496 502 q 535 486 513 495 q 575 470 557 477 q 695 388 654 437 q 736 276 736 339 q 634 74 736 156 q 377 -13 532 -8 l 334 -203 l 272 -203 l 317 -14 q 139 42 206 -9 q 71 169 71 94 q 97 252 71 218 q 161 286 123 286 q 213 269 195 286 q 231 227 231 252 q 211 167 231 202 q 181 119 190 132 q 230 62 193 82 q 328 37 267 42 l 410 391 q 359 411 382 402 q 311 431 336 420 q 216 504 250 458 q 181 610 181 549 q 284 804 181 728 q 523 880 387 880 l 557 1034 l 620 1034 l 583 880 q 742 824 682 869 q 801 714 801 778 m 511 827 q 358 781 412 827 q 305 661 305 735 q 328 586 305 615 q 397 536 351 557 q 416 528 404 533 q 439 518 429 522 l 511 827 m 607 225 q 582 306 607 272 q 500 363 556 340 q 484 370 493 367 q 467 376 474 373 l 388 37 q 546 85 485 37 q 607 225 607 134 z "},"%":{"ha":1135,"x_min":50,"x_max":1137,"o":"m 600 795 q 519 574 600 665 q 315 484 439 484 q 176 534 226 484 q 126 673 126 585 q 146 789 126 733 q 202 887 167 844 q 292 958 239 931 q 412 985 345 985 q 550 934 501 985 q 600 795 600 882 m 488 812 q 468 903 488 867 q 402 940 447 940 q 285 858 331 940 q 239 655 239 775 q 259 566 239 602 q 326 529 279 529 q 440 612 393 529 q 488 812 488 694 m 1057 290 q 977 70 1057 160 q 773 -21 897 -21 q 634 30 684 -21 q 584 168 584 80 q 604 284 584 229 q 660 382 625 340 q 750 454 696 427 q 869 481 803 481 q 1008 429 959 481 q 1057 290 1057 378 m 946 307 q 925 399 946 362 q 860 435 905 435 q 743 353 789 435 q 696 151 696 271 q 717 61 696 98 q 783 24 737 24 q 898 107 850 24 q 946 307 946 190 m 1137 966 l 148 0 l 50 0 l 1037 966 l 1137 966 z "},"&":{"ha":987,"x_min":12,"x_max":1044,"o":"m 1044 610 l 1034 565 q 958 551 1004 562 q 878 509 912 541 q 837 461 861 494 q 780 382 813 428 q 714 294 755 347 q 641 208 674 241 q 693 133 666 167 q 743 83 720 99 q 814 57 767 67 q 893 45 861 46 l 882 0 l 621 0 l 544 123 q 483 71 513 96 q 412 23 453 45 q 332 -12 372 0 q 250 -24 293 -24 q 80 35 147 -24 q 12 193 12 93 q 84 377 12 297 q 304 534 155 458 q 255 638 273 593 q 238 732 238 683 q 260 836 238 789 q 321 917 283 883 q 409 967 357 949 q 514 985 461 985 q 644 942 593 985 q 696 825 696 899 q 639 677 696 741 q 440 547 583 614 q 525 393 490 454 q 614 244 559 332 q 678 323 650 284 q 736 412 707 362 q 766 470 755 444 q 777 513 777 496 q 749 543 777 531 q 671 565 722 554 l 682 610 l 1044 610 m 606 823 q 579 901 606 873 q 504 929 553 929 q 400 883 439 929 q 361 772 361 837 q 376 684 361 728 q 420 585 392 640 q 562 690 518 633 q 606 823 606 747 m 518 160 q 414 335 461 254 q 325 496 366 417 q 205 388 248 454 q 162 239 162 321 q 203 114 162 160 q 319 67 244 67 q 424 92 373 67 q 518 160 475 116 z "},"'":{"ha":299,"x_min":191,"x_max":352,"o":"m 352 977 q 314 864 352 951 q 232 656 277 777 l 191 656 q 194 851 194 771 q 199 961 194 931 q 229 1014 205 991 q 290 1037 254 1037 q 337 1020 321 1037 q 352 977 352 1002 z "},"(":{"ha":521,"x_min":73,"x_max":617,"o":"m 617 1039 l 606 984 q 442 893 519 968 q 307 688 365 817 q 228 429 256 576 q 199 150 199 283 q 242 -69 199 16 q 379 -172 284 -155 l 368 -222 q 150 -96 227 -205 q 73 196 73 12 q 230 771 73 534 q 617 1039 387 1008 z "},")":{"ha":521,"x_min":-62,"x_max":483,"o":"m 483 621 q 326 46 483 283 q -62 -222 169 -191 l -51 -168 q 114 -76 37 -152 q 248 128 191 -1 q 327 387 298 241 q 356 667 356 534 q 314 886 356 800 q 176 989 271 971 l 188 1039 q 406 913 328 1021 q 483 621 483 804 z "},"*":{"ha":656,"x_min":144,"x_max":684,"o":"m 684 745 q 669 709 684 720 q 633 697 655 697 q 561 712 618 697 q 434 734 505 726 q 491 664 465 692 q 535 617 517 636 q 564 583 553 597 q 574 551 574 568 q 557 519 574 532 q 523 505 541 505 q 500 512 511 505 q 481 532 489 519 q 460 595 471 552 q 414 723 450 639 q 368 595 381 642 q 346 532 355 548 q 328 512 337 519 q 304 505 319 505 q 270 518 286 505 q 254 551 254 531 q 263 581 254 567 q 292 617 273 595 q 337 665 309 635 q 393 734 366 696 q 270 712 327 728 q 195 697 212 697 q 158 708 172 697 q 144 745 144 720 q 158 781 144 768 q 195 793 172 793 q 266 779 215 793 q 393 758 317 765 q 338 826 367 793 q 292 875 309 858 q 263 910 273 895 q 254 941 254 924 q 270 973 254 960 q 304 987 286 987 q 327 980 317 987 q 346 960 338 973 q 371 887 355 943 q 414 769 387 830 q 458 890 444 838 q 481 960 472 942 q 499 980 489 972 q 523 987 510 987 q 558 974 542 987 q 574 941 574 961 q 536 876 574 913 q 434 758 498 839 q 561 780 507 766 q 633 793 615 793 q 669 781 655 793 q 684 745 684 769 z "},"+":{"ha":893,"x_min":115,"x_max":812,"o":"m 812 337 l 507 337 l 507 31 l 420 31 l 420 337 l 115 337 l 115 422 l 420 422 l 420 728 l 507 728 l 507 422 l 812 422 l 812 337 z "},",":{"ha":374,"x_min":8,"x_max":280,"o":"m 280 66 q 254 -41 280 9 q 186 -131 227 -91 q 104 -197 146 -170 q 30 -240 62 -224 l 8 -195 q 71 -156 39 -178 q 125 -113 103 -135 q 171 -61 152 -87 q 200 1 189 -35 l 168 1 q 106 22 127 1 q 85 76 85 43 q 113 141 85 111 q 186 171 140 171 q 258 142 235 171 q 280 66 280 113 z "},"-":{"ha":519,"x_min":54,"x_max":482,"o":"m 482 420 l 458 317 l 54 317 l 78 420 l 482 420 z "},".":{"ha":374,"x_min":85,"x_max":271,"o":"m 271 78 q 244 13 271 40 q 178 -14 216 -14 q 113 13 140 -14 q 85 78 85 40 q 113 143 85 116 q 178 171 140 171 q 244 143 216 171 q 271 78 271 116 z "},"/":{"ha":651,"x_min":-79,"x_max":715,"o":"m 715 1033 l 15 -288 l -79 -288 l 621 1033 l 715 1033 z "},":":{"ha":533,"x_min":117,"x_max":415,"o":"m 415 578 q 388 513 415 541 q 322 486 360 486 q 257 513 284 486 q 229 578 229 541 q 256 644 229 616 q 322 671 283 671 q 388 644 361 671 q 415 578 415 616 m 303 78 q 276 13 303 40 q 210 -14 248 -14 q 145 13 172 -14 q 117 78 117 40 q 145 143 117 116 q 210 171 172 171 q 276 143 248 171 q 303 78 303 116 z "},";":{"ha":533,"x_min":41,"x_max":415,"o":"m 415 578 q 388 513 415 541 q 322 486 360 486 q 257 513 284 486 q 229 578 229 541 q 256 644 229 616 q 322 671 283 671 q 388 644 361 671 q 415 578 415 616 m 313 66 q 287 -41 313 9 q 219 -131 260 -91 q 137 -197 179 -170 q 63 -240 96 -224 l 41 -195 q 104 -156 73 -178 q 158 -113 136 -135 q 204 -61 185 -87 q 233 1 222 -35 l 201 1 q 139 22 160 1 q 119 76 119 43 q 146 141 119 111 q 219 171 173 171 q 291 142 269 171 q 313 66 313 113 z "},"<":{"ha":893,"x_min":148,"x_max":775,"o":"m 775 15 l 148 341 l 148 418 l 775 744 l 775 651 l 254 380 l 775 108 l 775 15 z "},"=":{"ha":893,"x_min":121,"x_max":806,"o":"m 806 463 l 121 463 l 121 548 l 806 548 l 806 463 m 806 211 l 121 211 l 121 296 l 806 296 l 806 211 z "},">":{"ha":893,"x_min":152,"x_max":779,"o":"m 779 341 l 152 15 l 152 108 l 673 380 l 152 651 l 152 744 l 779 418 l 779 341 z "},"?":{"ha":665,"x_min":127,"x_max":682,"o":"m 682 759 q 580 515 682 610 q 312 399 478 420 l 278 256 l 216 256 l 269 513 q 376 533 324 518 q 467 580 427 548 q 533 660 509 612 q 557 782 557 707 q 519 894 557 854 q 414 935 482 935 q 362 925 388 935 q 321 907 336 916 q 321 860 321 888 q 317 814 321 832 q 286 764 311 783 q 218 745 260 745 q 176 762 190 745 q 162 804 162 780 q 180 866 162 836 q 234 924 197 896 q 318 967 267 950 q 429 985 370 985 q 613 924 545 985 q 682 759 682 863 m 313 78 q 286 13 313 40 q 220 -14 258 -14 q 155 13 182 -14 q 127 78 127 40 q 155 143 127 116 q 220 171 182 171 q 286 143 258 171 q 313 78 313 116 z "},"@":{"ha":1290,"x_min":132,"x_max":1198,"o":"m 1056 -81 q 895 -176 988 -140 q 687 -212 802 -212 q 486 -179 585 -212 q 307 -79 387 -146 q 180 88 229 -12 q 132 323 132 188 q 176 549 132 439 q 300 743 219 658 q 493 878 378 827 q 743 929 608 929 q 947 891 861 929 q 1088 792 1033 854 q 1170 652 1143 731 q 1198 486 1198 572 q 1108 209 1198 326 q 877 92 1019 92 q 779 121 819 92 q 734 202 739 150 l 730 203 q 655 124 697 154 q 571 95 614 95 q 514 104 543 95 q 463 134 486 113 q 428 193 441 157 q 414 281 414 229 q 437 392 414 331 q 498 509 460 454 q 598 607 537 566 q 731 648 660 648 q 799 627 769 648 q 835 564 828 606 l 839 564 l 868 640 l 969 640 l 841 275 q 831 236 835 258 q 827 201 827 214 q 845 151 827 167 q 890 135 863 135 q 1066 234 996 135 q 1137 494 1137 332 q 1112 642 1137 574 q 1035 762 1086 710 q 910 844 985 814 q 738 873 835 873 q 558 838 646 873 q 399 732 471 802 q 286 563 329 664 q 242 334 242 462 q 276 118 242 212 q 372 -38 310 25 q 514 -130 432 -99 q 692 -160 596 -160 q 884 -131 800 -160 q 1035 -46 968 -102 l 1056 -81 m 820 503 q 789 583 810 558 q 728 608 768 608 q 648 573 684 608 q 587 490 612 538 q 546 381 560 440 q 531 271 531 321 q 550 175 531 197 q 591 152 568 152 q 683 192 646 152 q 742 274 719 233 l 820 503 z "},"A":{"ha":932,"x_min":-109,"x_max":893,"o":"m 593 391 l 533 766 l 302 391 l 593 391 m 490 0 l 500 45 q 549 51 521 47 q 593 59 577 54 q 624 73 614 66 q 635 96 635 81 q 627 163 635 102 q 604 334 618 224 l 266 334 q 218 253 243 299 q 180 182 193 206 q 156 133 168 160 q 145 98 145 106 q 181 62 145 75 q 271 45 217 48 l 261 0 l -109 0 l -98 45 q -53 53 -81 46 q -5 70 -24 59 q 40 103 18 83 q 87 163 62 123 q 345 577 205 349 q 591 976 485 805 l 646 976 l 774 142 q 787 100 778 117 q 816 68 797 83 q 852 52 829 58 q 893 45 876 45 l 883 0 l 490 0 z "},"B":{"ha":908,"x_min":-20,"x_max":880,"o":"m 801 924 q 859 870 838 904 q 880 792 880 837 q 856 684 880 730 q 792 605 831 637 q 702 551 752 572 q 600 519 651 530 l 600 513 q 681 495 639 509 q 757 458 723 481 q 815 396 793 434 q 838 307 838 359 q 803 172 838 231 q 713 77 767 113 q 588 19 654 37 q 450 0 521 0 l -20 0 l -9 45 q 40 51 7 46 q 87 61 73 55 q 123 87 111 71 q 141 127 136 104 l 302 826 q 304 839 303 833 q 305 852 305 846 q 299 877 305 867 q 279 895 294 888 q 238 911 260 906 q 197 918 216 916 l 208 962 l 632 962 q 722 954 680 962 q 801 924 764 945 m 657 612 q 703 691 689 649 q 717 785 717 732 q 704 846 717 821 q 669 886 691 871 q 619 906 646 901 q 562 912 592 912 q 512 911 540 912 q 466 909 485 910 l 380 535 l 465 535 q 579 556 531 535 q 657 612 628 577 m 613 146 q 657 234 642 186 q 672 328 672 281 q 623 441 672 400 q 486 483 574 483 q 413 482 444 483 q 367 480 382 481 l 290 149 q 287 131 288 139 q 286 115 286 123 q 322 64 286 80 q 414 49 358 49 q 533 77 482 49 q 613 146 583 105 z "},"C":{"ha":892,"x_min":68,"x_max":968,"o":"m 428 -22 q 288 3 354 -22 q 174 79 222 29 q 96 200 124 129 q 68 361 68 271 q 111 600 68 489 q 231 799 155 711 q 407 934 304 883 q 621 985 509 985 q 770 965 706 985 q 876 916 834 945 l 913 962 l 968 962 l 895 619 l 839 619 l 839 646 q 830 752 839 702 q 796 844 821 803 q 729 906 772 883 q 621 930 687 930 q 466 885 538 930 q 342 767 395 841 q 260 590 291 695 q 229 376 229 485 q 299 141 229 231 q 490 52 370 52 q 673 111 589 52 q 810 269 757 170 l 859 243 q 668 37 773 97 q 428 -22 563 -22 z "},"D":{"ha":1040,"x_min":-20,"x_max":1027,"o":"m 1027 591 q 974 341 1027 454 q 833 155 920 229 q 632 39 743 79 q 400 0 522 0 l -20 0 l -9 45 q 40 48 8 45 q 86 57 73 52 q 123 84 111 66 q 140 125 136 101 l 300 817 q 304 835 302 825 q 306 851 306 845 q 301 877 306 866 q 280 896 296 888 q 237 910 262 904 q 197 918 211 916 l 208 962 l 615 962 q 748 945 676 962 q 882 886 820 928 q 988 768 948 842 q 1027 591 1027 694 m 868 591 q 787 827 868 743 q 570 911 705 911 q 513 910 543 911 q 466 908 483 909 l 294 161 q 290 143 292 152 q 289 126 289 134 q 323 69 289 85 q 434 52 357 52 q 618 98 535 52 q 756 221 701 144 q 840 394 812 300 q 868 591 868 488 z "},"E":{"ha":907,"x_min":-25,"x_max":941,"o":"m 941 962 l 888 730 l 837 730 q 807 851 833 802 q 736 907 781 900 q 687 911 716 909 q 621 912 658 912 l 467 912 l 378 525 l 486 525 q 564 535 536 525 q 614 568 592 545 q 653 624 634 588 q 680 684 672 659 l 731 684 l 644 307 l 594 307 q 595 325 594 315 q 596 348 596 336 q 593 396 596 373 q 583 430 589 419 q 543 465 569 456 q 473 473 516 473 l 365 473 l 298 179 q 291 144 294 163 q 288 114 288 125 q 315 64 288 77 q 433 52 342 52 q 588 60 547 52 q 648 84 629 68 q 739 184 687 115 q 808 283 791 252 l 857 283 l 774 0 l -25 0 l -15 45 q 41 51 6 46 q 87 60 75 55 q 124 86 111 68 q 141 127 136 104 l 302 826 q 305 838 304 831 q 306 851 306 845 q 300 876 306 865 q 279 894 294 886 q 233 909 263 903 q 186 918 203 916 l 197 962 l 941 962 z "},"F":{"ha":832,"x_min":-24,"x_max":952,"o":"m 952 962 l 897 722 l 846 722 q 815 847 843 794 q 746 907 787 901 q 697 911 725 909 q 632 912 669 912 l 467 912 l 377 521 l 488 521 q 559 529 527 521 q 623 565 592 538 q 657 611 638 579 q 688 679 677 643 l 740 679 l 653 301 l 602 301 q 603 320 602 309 q 604 344 604 331 q 602 387 604 363 q 591 424 599 412 q 544 460 573 452 q 475 469 515 469 l 364 469 l 287 132 q 285 121 286 127 q 284 110 284 115 q 290 84 284 95 q 311 64 296 73 q 354 52 322 58 q 406 45 386 46 l 395 0 l -24 0 l -13 45 q 41 49 8 46 q 87 57 75 52 q 123 84 111 66 q 140 125 135 101 l 302 826 q 305 839 304 833 q 306 852 306 846 q 301 876 306 866 q 279 894 296 886 q 235 909 264 902 q 186 918 206 916 l 197 962 l 952 962 z "},"G":{"ha":1007,"x_min":68,"x_max":1015,"o":"m 452 -22 q 301 3 371 -22 q 179 79 231 29 q 97 201 127 130 q 68 366 68 273 q 114 609 68 497 q 239 806 159 722 q 423 937 317 889 q 648 985 530 985 q 808 963 741 985 q 913 916 875 942 l 951 962 l 1005 962 l 934 626 l 878 626 q 869 736 877 682 q 835 834 861 791 q 762 904 808 878 q 633 930 716 930 q 476 887 550 930 q 345 766 401 844 q 259 585 290 690 q 227 358 227 479 q 298 121 227 208 q 495 34 370 34 q 599 52 555 34 q 669 91 643 69 q 687 150 678 119 q 705 225 695 180 l 718 283 q 721 301 720 291 q 723 320 723 311 q 719 348 723 337 q 697 366 714 359 q 640 381 677 376 q 582 388 602 387 l 592 434 l 1015 434 l 1004 388 q 959 381 987 386 q 911 369 930 377 q 875 340 887 358 q 857 296 863 321 l 840 218 q 818 122 824 154 q 807 62 812 90 q 727 30 762 43 q 640 3 692 16 q 549 -16 593 -9 q 452 -22 505 -22 z "},"H":{"ha":1132,"x_min":-17,"x_max":1201,"o":"m 1201 962 l 1191 918 q 1143 911 1172 917 q 1100 901 1115 906 q 1062 873 1074 892 q 1045 833 1050 854 l 884 132 q 882 120 882 127 q 881 109 881 113 q 887 83 881 94 q 907 64 893 73 q 944 52 917 58 q 989 45 970 45 l 979 0 l 580 0 l 590 45 q 638 49 607 46 q 682 57 669 52 q 719 83 706 66 q 737 125 732 100 l 817 472 l 365 472 l 287 132 q 285 121 286 127 q 284 109 284 115 q 291 83 284 96 q 310 64 297 71 q 347 52 320 58 q 393 45 374 45 l 382 0 l -17 0 l -7 45 q 41 49 10 46 q 85 57 73 52 q 122 83 109 66 q 140 125 135 100 l 302 826 q 304 837 304 831 q 305 849 305 843 q 299 875 305 864 q 279 894 294 886 q 238 909 262 903 q 195 918 214 916 l 205 962 l 604 962 l 594 918 q 547 911 575 917 q 503 901 518 906 q 465 873 477 892 q 448 833 454 854 l 379 530 l 831 530 l 899 826 q 901 837 901 831 q 902 848 902 843 q 896 874 902 863 q 876 894 890 886 q 835 909 859 903 q 791 918 810 916 l 802 962 l 1201 962 z "},"I":{"ha":541,"x_min":-30,"x_max":625,"o":"m 625 962 l 615 918 q 560 911 594 917 q 510 901 526 906 q 469 874 481 892 q 452 834 457 856 l 289 131 q 287 120 288 126 q 286 109 286 114 q 293 83 286 94 q 317 64 300 72 q 362 53 328 59 q 414 45 397 46 l 404 0 l -30 0 l -20 45 q 35 49 -1 46 q 85 57 70 52 q 125 83 111 66 q 143 123 138 100 l 305 827 q 307 840 307 833 q 308 852 308 846 q 302 876 308 865 q 278 894 296 886 q 228 909 260 902 q 182 918 197 916 l 192 962 l 625 962 z "},"J":{"ha":719,"x_min":-34,"x_max":820,"o":"m 820 962 l 810 918 q 761 912 790 917 q 711 901 732 908 q 673 875 684 892 q 656 833 662 857 l 527 259 q 489 163 517 214 q 416 73 460 113 q 311 3 370 30 q 175 -23 253 -23 q 23 24 80 -23 q -34 156 -34 72 q 0 273 -34 223 q 87 323 33 323 q 145 304 128 323 q 162 258 162 284 q 151 209 162 234 q 121 160 139 184 q 85 116 104 139 q 54 78 65 94 q 92 41 64 58 q 175 25 120 25 q 261 48 224 25 q 321 109 297 71 q 362 198 345 146 q 393 313 379 250 l 509 826 q 510 836 509 829 q 511 848 511 843 q 505 874 511 863 q 484 894 499 886 q 433 910 467 905 q 382 918 399 916 l 393 962 l 820 962 z "},"K":{"ha":964,"x_min":-14,"x_max":1083,"o":"m 1083 962 l 1073 918 q 1047 915 1069 918 q 1003 908 1025 913 q 950 891 976 902 q 903 861 925 881 q 711 691 814 782 q 519 527 609 600 q 636 340 580 433 q 744 159 692 248 q 786 101 763 126 q 831 64 810 76 q 873 50 846 55 q 918 45 901 45 l 906 0 l 661 0 q 542 231 607 117 q 399 457 477 345 l 362 457 l 287 132 q 285 121 286 127 q 284 109 284 115 q 289 83 284 93 q 311 64 294 73 q 350 52 319 59 q 395 45 380 45 l 385 0 l -14 0 l -4 45 q 43 49 13 46 q 86 57 73 52 q 123 84 111 66 q 140 125 136 101 l 302 826 q 304 838 304 832 q 305 850 305 844 q 299 876 305 865 q 279 894 293 887 q 242 908 267 901 q 197 918 218 915 l 208 962 l 607 962 l 597 918 q 548 911 578 917 q 503 901 518 906 q 466 874 478 893 q 448 833 454 854 l 370 490 l 383 490 q 574 640 480 559 q 728 783 669 722 q 784 845 765 820 q 804 887 804 871 q 780 907 804 899 q 712 918 757 916 l 722 962 l 1083 962 z "},"L":{"ha":838,"x_min":-17,"x_max":821,"o":"m 821 286 l 735 0 l -17 0 l -7 45 q 41 50 10 46 q 87 58 73 53 q 124 86 111 68 q 141 127 136 104 l 302 823 q 304 836 303 829 q 305 848 305 842 q 299 873 305 862 q 279 892 294 884 q 239 908 265 901 q 195 918 213 916 l 205 962 l 611 962 l 601 918 q 556 912 585 917 q 504 900 526 907 q 465 871 477 891 q 448 830 453 852 l 297 177 q 289 135 292 153 q 286 106 286 117 q 316 59 286 68 q 426 50 346 50 q 528 57 471 50 q 608 85 585 65 q 695 180 642 116 q 773 286 747 244 l 821 286 z "},"M":{"ha":1288,"x_min":-52,"x_max":1362,"o":"m 1362 962 l 1352 918 q 1301 911 1332 917 q 1256 901 1271 906 q 1218 873 1230 892 q 1201 833 1206 854 l 1039 132 q 1037 120 1038 127 q 1036 109 1036 113 q 1042 84 1036 95 q 1063 64 1048 73 q 1103 52 1072 58 q 1152 45 1134 45 l 1141 0 l 717 0 l 728 45 q 789 50 752 46 q 840 61 825 54 q 879 91 864 74 q 898 132 893 108 l 1064 849 l 1057 849 l 531 16 l 499 16 l 378 866 l 372 866 l 235 275 q 222 205 227 239 q 216 150 216 171 q 221 112 216 127 q 235 85 226 96 q 286 60 247 71 q 348 45 326 48 l 337 0 l -52 0 l -41 45 q 23 54 -9 48 q 82 77 55 60 q 128 137 109 96 q 167 267 147 178 l 282 766 q 287 794 286 782 q 289 819 289 807 q 283 856 289 841 q 269 880 278 870 q 221 908 252 900 q 166 918 191 916 l 176 962 l 500 962 l 606 239 l 980 844 q 1019 916 1001 879 q 1039 962 1036 952 l 1362 962 z "},"N":{"ha":1065,"x_min":-51,"x_max":1193,"o":"m 1193 962 l 1182 918 q 1122 907 1164 917 q 1061 886 1080 897 q 1013 821 1031 869 q 977 699 994 773 l 813 -9 l 752 -9 l 357 803 l 237 278 q 223 207 229 243 q 218 149 218 171 q 222 110 218 125 q 235 86 227 96 q 293 59 247 72 q 354 45 339 46 l 344 0 l -51 0 l -41 45 q 25 58 -18 47 q 83 79 68 69 q 129 139 110 98 q 168 271 148 180 l 276 737 q 283 775 281 760 q 285 805 285 791 q 281 836 285 821 q 264 867 277 850 q 206 904 240 894 q 144 918 172 915 l 155 962 l 431 962 l 798 210 l 908 690 q 922 760 916 726 q 927 819 927 794 q 923 856 927 841 q 909 879 918 871 q 854 904 893 893 q 791 918 816 914 l 802 962 l 1193 962 z "},"O":{"ha":1015,"x_min":68,"x_max":1002,"o":"m 1002 592 q 954 350 1002 463 q 830 155 907 236 q 651 25 751 73 q 442 -23 550 -23 q 171 86 274 -23 q 68 366 68 195 q 115 611 68 498 q 239 806 163 724 q 417 937 315 889 q 627 985 519 985 q 897 879 793 985 q 1002 592 1002 772 m 743 230 q 817 420 791 314 q 842 631 842 526 q 785 848 842 767 q 615 928 727 928 q 454 877 528 928 q 323 726 379 825 q 251 533 275 638 q 227 335 227 428 q 286 113 227 193 q 454 34 345 34 q 621 90 547 34 q 743 230 694 145 z "},"P":{"ha":847,"x_min":-17,"x_max":890,"o":"m 890 768 q 853 622 890 686 q 760 515 817 557 q 627 447 701 470 q 472 425 553 425 l 355 425 l 286 127 q 283 115 284 121 q 283 103 283 108 q 288 77 283 88 q 310 58 294 65 q 351 50 320 54 q 406 45 382 45 l 396 0 l -17 0 l -7 45 q 41 50 10 46 q 87 58 73 53 q 124 86 111 68 q 141 127 136 104 l 303 829 q 306 842 304 835 q 307 857 307 850 q 301 882 307 871 q 281 900 296 894 q 235 912 259 908 q 190 918 210 916 l 200 962 l 628 962 q 817 910 744 962 q 890 768 890 859 m 673 585 q 712 670 701 625 q 724 754 724 715 q 715 813 724 785 q 686 863 707 841 q 634 898 666 885 q 554 910 602 910 l 466 910 l 368 480 l 444 480 q 580 506 523 480 q 673 585 637 532 z "},"Q":{"ha":1015,"x_min":68,"x_max":1002,"o":"m 1002 592 q 954 350 1002 463 q 830 155 907 236 q 715 61 779 101 q 584 1 652 22 q 581 -23 581 -9 q 580 -48 580 -37 q 617 -155 580 -117 q 709 -193 654 -193 q 798 -188 767 -193 q 847 -178 829 -183 l 836 -229 q 736 -252 794 -242 q 625 -262 678 -262 q 477 -211 529 -262 q 425 -61 425 -160 q 425 -41 425 -54 q 427 -22 426 -29 q 167 90 267 -16 q 68 366 68 197 q 115 611 68 498 q 239 806 163 724 q 417 937 315 889 q 627 985 519 985 q 897 879 793 985 q 1002 592 1002 772 m 842 631 q 785 848 842 767 q 615 928 727 928 q 454 877 528 928 q 323 726 379 825 q 251 533 275 638 q 227 335 227 428 q 286 113 227 193 q 454 34 345 34 q 621 90 547 34 q 743 230 694 145 q 817 420 791 314 q 842 631 842 526 z "},"R":{"ha":975,"x_min":-18,"x_max":929,"o":"m 929 45 l 918 0 l 675 0 q 566 234 617 137 q 458 438 515 332 l 357 438 l 286 127 q 283 115 284 122 q 282 104 282 107 q 288 77 282 88 q 309 58 294 65 q 349 50 318 54 q 400 45 380 45 l 389 0 l -18 0 l -7 45 q 41 50 10 46 q 86 58 73 53 q 123 86 111 68 q 141 127 136 104 l 303 830 q 306 844 304 837 q 307 858 307 851 q 301 883 307 872 q 281 900 296 894 q 239 911 267 905 q 195 918 212 916 l 205 962 l 637 962 q 744 951 696 962 q 825 919 792 939 q 881 862 861 897 q 902 779 902 827 q 878 662 902 715 q 814 572 854 610 q 717 508 771 534 q 597 468 663 483 q 684 306 650 366 q 762 159 717 246 q 803 95 785 115 q 842 64 821 76 q 886 50 859 55 q 929 45 913 45 m 735 764 q 693 872 735 833 q 574 911 650 911 l 466 911 l 370 493 l 467 493 q 656 571 578 493 q 735 764 735 648 z "},"S":{"ha":779,"x_min":-6,"x_max":813,"o":"m 334 -20 q 188 1 251 -20 q 87 49 125 22 l 48 -1 l -6 -1 l 60 329 l 115 329 q 131 218 119 270 q 172 125 144 167 q 246 59 201 83 q 359 36 292 36 q 521 92 460 36 q 582 245 582 148 q 556 338 582 297 q 479 401 530 378 q 382 438 430 422 q 288 477 334 455 q 190 561 227 507 q 153 684 153 616 q 181 804 153 749 q 258 899 210 859 q 369 961 304 938 q 499 984 435 984 q 613 970 559 984 q 722 916 667 956 l 759 962 l 813 962 l 745 643 l 690 643 q 679 751 688 695 q 650 843 671 806 q 588 906 628 883 q 481 928 548 928 q 347 873 401 928 q 293 742 293 818 q 313 657 293 692 q 375 600 333 622 q 469 561 420 577 q 557 526 518 544 q 679 437 635 489 q 722 311 722 386 q 691 177 722 239 q 608 73 660 115 q 485 4 553 28 q 334 -20 416 -20 z "},"T":{"ha":859,"x_min":88,"x_max":987,"o":"m 987 962 l 926 701 l 880 701 q 873 762 879 725 q 857 827 867 798 q 826 881 845 859 q 782 907 808 903 q 730 911 762 910 q 671 913 699 913 l 629 913 l 450 136 q 448 124 448 131 q 447 112 447 118 q 453 85 447 96 q 476 66 459 75 q 525 53 490 61 q 583 45 561 45 l 572 0 l 118 0 l 129 45 q 188 50 149 46 q 244 60 227 54 q 285 88 271 71 q 304 130 298 106 l 484 913 l 448 913 q 397 912 428 913 q 335 907 367 911 q 283 881 313 905 q 223 824 253 857 q 172 759 195 792 q 136 701 149 726 l 88 701 l 149 962 l 987 962 z "},"U":{"ha":1050,"x_min":144,"x_max":1178,"o":"m 447 -23 q 224 37 304 -23 q 144 198 144 98 q 145 225 144 212 q 151 254 147 237 l 283 826 q 285 838 284 831 q 286 849 286 844 q 279 874 286 863 q 260 895 273 886 q 220 910 245 905 q 178 918 195 916 l 189 962 l 589 962 l 578 918 q 529 911 559 917 q 484 901 499 906 q 446 873 458 892 q 429 833 435 854 l 306 298 q 299 258 302 280 q 296 216 296 237 q 303 155 296 181 q 336 102 311 129 q 394 65 357 79 q 489 50 432 50 q 621 74 566 50 q 713 134 676 98 q 769 211 747 169 q 800 292 791 253 q 846 482 825 389 q 890 684 867 574 q 906 772 902 739 q 911 828 911 806 q 907 860 911 848 q 892 880 903 871 q 833 906 873 897 q 774 918 794 916 l 785 962 l 1178 962 l 1167 918 q 1109 909 1149 917 q 1046 887 1070 901 q 997 815 1018 871 q 962 700 975 760 q 919 504 941 603 q 868 290 897 406 q 797 135 844 196 q 689 39 749 73 q 570 -9 631 5 q 447 -23 508 -23 z "},"V":{"ha":926,"x_min":102,"x_max":1095,"o":"m 1095 962 l 1084 918 q 1040 910 1067 917 q 994 892 1014 903 q 947 854 965 876 q 909 803 929 833 q 694 465 839 695 q 396 -12 549 235 l 340 -12 q 270 484 307 216 q 220 826 232 751 q 207 864 217 848 q 178 893 197 879 q 142 910 163 905 q 102 918 121 916 l 113 962 l 503 962 l 492 918 q 391 904 420 914 q 361 873 361 893 q 362 858 361 866 q 363 847 363 850 q 393 628 372 781 q 455 197 415 475 q 647 503 549 345 q 789 734 745 661 q 839 829 829 802 q 848 864 848 857 q 835 887 848 878 q 802 903 822 897 q 759 913 783 909 q 718 918 735 916 l 728 962 l 1095 962 z "},"W":{"ha":1355,"x_min":123,"x_max":1514,"o":"m 1514 962 l 1503 918 q 1462 910 1487 917 q 1417 891 1438 903 q 1370 855 1389 876 q 1332 800 1351 835 q 1142 445 1262 670 q 897 -12 1023 220 l 836 -12 l 758 730 l 336 -12 l 277 -12 q 250 507 261 296 q 234 826 239 718 q 226 863 233 848 q 199 893 219 878 q 163 910 185 905 q 123 918 141 916 l 134 962 l 521 962 l 511 918 q 402 900 430 913 q 375 870 375 888 q 376 830 375 857 q 378 776 376 804 q 388 587 380 729 q 407 229 395 445 l 811 949 l 873 949 l 954 214 q 1102 502 1039 376 q 1215 728 1165 627 q 1256 821 1244 789 q 1268 866 1268 853 q 1237 901 1268 888 q 1148 918 1206 914 l 1158 962 l 1514 962 z "},"X":{"ha":987,"x_min":-75,"x_max":1095,"o":"m 1095 962 l 1084 918 q 1040 913 1067 917 q 992 900 1013 909 q 932 864 953 883 q 873 806 912 845 q 730 662 813 748 q 589 517 648 576 q 665 348 633 421 q 749 159 697 275 q 783 99 763 128 q 819 60 804 70 q 860 48 832 50 q 906 45 888 45 l 896 0 l 463 0 l 473 45 q 561 54 513 45 q 608 87 608 62 q 598 138 608 106 q 576 200 589 170 q 534 303 559 242 q 484 419 509 364 q 368 297 435 369 q 251 169 300 225 q 207 115 222 136 q 192 83 192 93 q 224 52 192 59 q 298 45 256 45 l 288 0 l -75 0 l -64 45 q -19 50 -47 46 q 28 62 8 54 q 94 104 66 81 q 148 155 121 127 q 296 308 212 222 q 458 476 380 393 q 388 633 430 538 q 311 806 345 728 q 279 869 290 851 q 242 900 269 886 q 200 911 229 907 q 155 918 172 916 l 165 962 l 593 962 l 583 918 q 487 906 526 916 q 448 876 448 896 q 457 828 448 854 q 482 764 467 802 q 518 677 505 711 q 566 569 532 644 q 694 705 638 645 q 789 813 750 764 q 820 855 810 841 q 829 879 829 869 q 797 908 829 899 q 726 918 765 917 l 736 962 l 1095 962 z "},"Y":{"ha":854,"x_min":97,"x_max":1029,"o":"m 1029 962 l 1018 918 q 980 909 1006 917 q 939 892 954 901 q 898 867 909 876 q 850 821 886 858 q 713 662 786 753 q 562 472 641 571 q 512 402 526 429 q 486 325 498 375 l 444 138 q 441 125 442 132 q 441 114 441 119 q 447 85 441 97 q 470 66 453 74 q 520 52 485 59 q 575 45 555 45 l 565 0 l 115 0 l 125 45 q 182 50 144 46 q 238 60 220 53 q 278 88 265 70 q 297 131 292 106 l 346 342 q 350 362 348 352 q 352 374 352 372 q 346 417 352 391 q 331 472 340 443 q 282 640 308 553 q 230 802 256 726 q 204 860 217 840 q 172 895 191 881 q 137 911 158 905 q 97 918 115 916 l 108 962 l 503 962 l 492 918 q 452 916 476 917 q 408 911 427 914 q 373 901 389 909 q 358 881 358 893 q 367 837 358 868 q 395 743 376 805 q 433 621 411 688 q 482 467 455 553 q 659 685 581 587 q 764 821 736 783 q 789 859 785 850 q 793 873 793 867 q 760 906 793 897 q 676 918 726 916 l 687 962 l 1029 962 z "},"Z":{"ha":836,"x_min":-61,"x_max":941,"o":"m 941 962 l 935 939 l 140 51 l 359 51 q 483 60 416 51 q 574 90 550 70 q 681 192 628 132 q 765 300 734 252 l 812 300 l 711 0 l -61 0 l -55 24 l 741 911 l 528 911 q 464 909 488 911 q 414 902 439 906 q 294 826 366 893 q 176 690 222 760 l 129 690 l 221 962 l 941 962 z "},"[":{"ha":521,"x_min":-18,"x_max":629,"o":"m 629 1030 l 616 972 l 375 972 l 116 -151 l 357 -151 l 343 -210 l -18 -210 l 268 1030 l 629 1030 z "},"\\":{"ha":651,"x_min":223,"x_max":475,"o":"m 475 -288 l 387 -288 l 223 1033 l 313 1033 l 475 -288 z "},"]":{"ha":521,"x_min":-87,"x_max":561,"o":"m 561 1030 l 275 -210 l -87 -210 l -73 -151 l 168 -151 l 427 972 l 186 972 l 199 1030 l 561 1030 z "},"^":{"ha":893,"x_min":163,"x_max":797,"o":"m 797 540 l 699 540 l 481 895 l 261 540 l 163 540 l 442 987 l 519 987 l 797 540 z "},"_":{"ha":893,"x_min":-124,"x_max":791,"o":"m 791 -124 l 776 -189 l -124 -189 l -109 -124 l 791 -124 z "},"`":{"ha":694,"x_min":361,"x_max":624,"o":"m 624 774 l 597 753 q 470 857 504 831 q 401 913 436 884 q 371 947 380 932 q 361 983 361 961 q 377 1025 361 1007 q 421 1043 393 1043 q 463 1029 448 1043 q 498 983 479 1016 q 551 895 516 952 q 624 774 585 838 z "},"a":{"ha":795,"x_min":47,"x_max":754,"o":"m 472 90 l 467 90 q 432 59 452 77 q 383 23 411 40 q 326 -6 357 6 q 258 -19 294 -19 q 103 52 159 -19 q 47 244 47 122 q 79 408 47 328 q 165 550 110 487 q 289 647 217 610 q 437 684 361 684 q 529 671 485 684 q 597 642 572 659 l 722 674 l 730 664 l 627 227 q 615 175 621 205 q 610 131 610 145 q 626 79 610 92 q 681 65 642 65 q 718 69 694 65 q 754 78 741 73 l 744 35 q 653 -1 683 10 q 581 -12 623 -12 q 503 17 532 -12 q 472 90 475 45 m 569 518 q 564 561 569 541 q 545 599 559 581 q 507 626 531 616 q 448 636 484 636 q 351 604 398 636 q 267 516 304 571 q 210 391 232 465 q 187 243 187 318 q 192 170 187 201 q 210 111 197 138 q 248 71 223 85 q 309 57 272 57 q 389 78 347 57 q 483 153 431 100 l 569 518 z "},"b":{"ha":769,"x_min":63,"x_max":722,"o":"m 722 425 q 689 253 722 335 q 603 111 656 170 q 479 15 548 50 q 332 -20 410 -20 q 230 -11 274 -20 q 154 16 185 -1 q 101 56 122 34 q 63 105 80 78 l 238 873 q 244 900 241 888 q 246 922 246 911 q 238 960 246 947 q 215 980 230 973 q 179 988 201 986 q 135 993 157 990 l 144 1034 l 396 1050 l 403 1040 l 300 589 l 302 589 q 410 664 363 643 q 500 684 456 684 q 663 614 604 684 q 722 425 722 544 m 582 422 q 575 494 582 458 q 554 555 569 530 q 511 595 538 581 q 444 610 484 610 q 399 602 420 610 q 356 581 378 594 q 318 551 336 568 q 283 520 299 534 l 193 118 q 205 88 195 104 q 231 60 216 72 q 274 36 250 44 q 326 28 298 28 q 427 59 380 28 q 508 144 474 91 q 564 275 545 203 q 582 422 582 347 z "},"c":{"ha":630,"x_min":45,"x_max":620,"o":"m 302 -19 q 114 50 183 -19 q 45 247 45 119 q 72 409 45 332 q 144 547 98 487 q 263 646 191 608 q 422 684 334 684 q 569 643 519 684 q 620 540 620 602 q 598 458 620 493 q 532 422 576 422 q 477 441 495 422 q 458 481 458 459 q 473 541 458 503 q 497 602 488 578 q 464 628 490 620 q 410 637 438 637 q 251 529 318 637 q 184 266 184 422 q 228 113 184 170 q 344 56 271 56 q 461 92 410 56 q 559 191 512 127 l 597 163 q 470 35 551 89 q 302 -19 390 -19 z "},"d":{"ha":799,"x_min":47,"x_max":819,"o":"m 478 93 l 473 93 q 435 59 458 80 q 385 23 411 39 q 325 -8 353 3 q 258 -19 298 -19 q 103 52 159 -19 q 47 245 47 123 q 78 410 47 330 q 160 551 108 489 q 282 647 211 610 q 432 684 354 684 q 525 672 479 684 q 601 642 571 660 l 654 873 q 660 901 658 891 q 661 924 661 911 q 651 961 661 948 q 624 980 642 974 q 579 988 608 986 q 528 993 551 990 l 537 1034 l 812 1050 l 819 1040 l 631 227 q 620 175 625 204 q 614 132 614 146 q 630 79 614 93 q 685 65 646 65 q 722 69 698 65 q 758 78 745 73 l 748 35 q 654 -1 691 9 q 585 -12 616 -12 q 507 14 536 -12 q 478 93 478 39 m 574 525 q 564 563 572 545 q 541 597 555 582 q 501 625 526 614 q 442 636 476 636 q 343 604 390 636 q 262 517 297 571 q 208 391 228 465 q 187 243 187 317 q 192 170 187 202 q 210 111 197 138 q 247 72 223 86 q 310 57 271 57 q 391 79 347 57 q 488 157 435 102 l 574 525 z "},"e":{"ha":655,"x_min":47,"x_max":628,"o":"m 628 543 q 583 420 628 471 q 452 338 538 368 q 324 300 389 315 q 182 277 260 286 q 221 113 182 170 q 338 56 261 56 q 457 90 406 56 q 559 191 509 124 l 598 163 q 463 31 544 80 q 294 -19 381 -19 q 110 48 174 -19 q 47 239 47 115 q 74 402 47 324 q 152 544 100 479 q 275 646 202 607 q 436 684 348 684 q 581 645 534 684 q 628 543 628 605 m 503 560 q 496 602 503 587 q 477 625 488 617 q 451 635 465 633 q 423 637 437 637 q 273 547 342 637 q 186 324 204 458 q 293 343 233 331 q 392 376 353 356 q 476 451 448 406 q 503 560 503 497 z "},"f":{"ha":456,"x_min":-245,"x_max":686,"o":"m 336 601 l 216 41 q 82 -205 184 -110 q -129 -301 -20 -301 q -217 -278 -189 -301 q -245 -221 -245 -256 q -227 -170 -245 -192 q -176 -147 -210 -147 q -139 -157 -155 -147 q -111 -180 -123 -166 q -90 -212 -102 -192 q -69 -245 -78 -231 q 20 -175 -17 -241 q 84 15 57 -109 l 209 601 l 77 601 l 91 663 l 222 663 l 231 709 q 283 850 248 787 q 363 958 318 913 q 463 1026 407 1001 q 570 1050 519 1050 q 658 1028 630 1050 q 686 970 686 1005 q 670 919 686 941 q 618 897 653 897 q 581 906 597 897 q 553 930 566 915 q 532 962 540 947 q 511 995 524 977 q 429 933 465 993 q 363 734 393 873 l 349 663 l 519 663 l 505 601 l 336 601 z "},"g":{"ha":795,"x_min":7,"x_max":731,"o":"m 481 92 l 476 93 q 438 62 463 82 q 386 28 413 43 q 323 -2 355 9 q 252 -14 291 -14 q 101 56 154 -14 q 47 248 47 125 q 78 411 47 332 q 163 552 109 490 q 286 648 214 612 q 437 684 358 684 q 529 672 486 684 q 599 642 572 659 l 723 674 l 731 664 l 617 130 q 551 -76 591 8 q 458 -208 511 -159 q 338 -280 404 -258 q 190 -301 273 -301 q 98 -292 134 -301 q 42 -269 62 -283 q 15 -237 22 -255 q 7 -203 7 -219 q 26 -152 7 -172 q 76 -131 44 -131 q 119 -145 101 -131 q 147 -177 136 -160 q 170 -219 159 -195 q 186 -256 180 -243 l 206 -256 q 286 -239 243 -256 q 364 -184 329 -222 q 431 -78 400 -144 q 481 92 463 -12 m 572 525 q 566 564 572 544 q 545 601 560 584 q 507 627 530 617 q 448 636 484 636 q 349 605 395 636 q 265 518 302 573 q 209 393 231 467 q 187 246 187 320 q 193 173 187 206 q 213 114 199 139 q 251 75 227 89 q 311 61 274 61 q 406 89 359 61 q 494 159 452 116 l 572 525 z "},"h":{"ha":781,"x_min":37,"x_max":742,"o":"m 742 79 l 732 35 q 637 0 671 11 q 568 -12 603 -12 q 487 17 514 -12 q 460 86 460 45 q 463 119 460 101 q 471 161 465 137 l 538 414 q 550 467 545 444 q 554 505 554 491 q 532 577 554 551 q 468 604 511 604 q 374 576 425 604 q 278 498 323 548 l 163 0 l 37 0 l 239 873 q 244 899 242 888 q 247 922 247 910 q 239 960 247 947 q 216 980 231 973 q 180 988 203 986 q 136 993 158 990 l 145 1034 l 397 1050 l 404 1040 l 295 570 l 298 570 q 422 655 368 627 q 547 684 477 684 q 649 647 612 684 q 686 548 686 609 q 682 505 686 536 q 670 443 678 473 l 613 225 q 602 175 608 203 q 595 132 595 147 q 612 79 595 93 q 668 65 629 65 q 705 70 681 65 q 742 79 729 74 z "},"i":{"ha":413,"x_min":50,"x_max":422,"o":"m 374 74 l 363 31 q 264 -4 301 5 q 200 -14 227 -14 q 119 14 146 -14 q 92 83 92 42 q 94 116 92 99 q 103 159 97 133 l 175 447 q 185 498 180 471 q 191 544 191 525 q 178 594 191 582 q 127 607 165 607 q 87 602 112 607 q 50 594 62 597 l 60 637 q 155 673 113 661 q 221 684 197 684 q 302 658 277 684 q 327 587 327 631 q 324 553 327 574 q 316 511 321 532 l 243 223 q 232 171 237 197 q 227 130 227 146 q 244 77 227 91 q 300 62 261 62 q 337 66 313 62 q 374 74 361 69 m 422 941 q 397 873 422 902 q 334 844 372 844 q 275 872 300 844 q 250 935 250 899 q 275 1000 250 972 q 334 1027 300 1027 q 397 1001 373 1027 q 422 941 422 975 z "},"j":{"ha":404,"x_min":-234,"x_max":428,"o":"m 337 587 q 334 551 337 573 q 327 511 331 530 q 280 280 303 393 q 227 41 256 167 q 92 -205 191 -110 q -118 -301 -7 -301 q -206 -278 -178 -301 q -234 -221 -234 -256 q -216 -170 -234 -192 q -165 -147 -199 -147 q -129 -157 -144 -147 q -100 -180 -113 -166 q -79 -212 -91 -192 q -58 -245 -67 -231 q 28 -178 -10 -243 q 95 15 66 -113 q 143 234 123 140 q 187 447 164 327 q 197 499 193 475 q 201 544 201 524 q 188 594 201 582 q 137 607 176 607 q 93 601 119 607 q 54 592 66 595 l 64 635 q 161 672 117 659 q 231 684 205 684 q 312 658 287 684 q 337 587 337 631 m 428 941 q 403 873 428 902 q 340 844 378 844 q 281 872 306 844 q 256 935 256 899 q 281 1000 256 972 q 340 1027 306 1027 q 404 1001 379 1027 q 428 941 428 975 z "},"k":{"ha":733,"x_min":37,"x_max":726,"o":"m 726 607 q 703 552 726 577 q 645 526 680 526 q 601 532 623 526 q 553 551 579 538 q 476 499 516 530 q 390 424 437 468 q 455 259 429 323 q 501 155 482 195 q 555 82 526 104 q 620 61 585 61 q 665 66 636 61 q 709 77 693 71 l 699 32 q 600 -3 635 6 q 527 -12 564 -12 q 453 13 484 -12 q 393 100 422 37 q 344 219 366 160 q 301 330 322 277 l 222 262 l 163 0 l 37 0 l 239 873 q 245 902 243 894 q 247 922 247 910 q 239 960 247 947 q 216 980 231 973 q 180 988 201 986 q 136 993 158 990 l 145 1034 l 397 1050 l 404 1040 l 238 334 l 241 334 q 380 477 317 416 q 511 601 443 538 q 589 662 560 646 q 650 679 617 679 q 705 660 684 679 q 726 607 726 640 z "},"l":{"ha":396,"x_min":66,"x_max":407,"o":"m 407 1040 l 218 223 q 206 172 212 197 q 201 130 201 146 q 218 77 201 91 q 274 62 235 62 q 314 66 288 62 q 355 74 341 69 l 345 31 q 251 -4 283 6 q 176 -14 218 -14 q 94 14 122 -14 q 66 83 66 42 q 69 116 66 99 q 77 159 72 133 l 242 873 q 249 902 247 894 q 250 922 250 910 q 242 960 250 947 q 219 980 234 973 q 183 988 205 986 q 139 993 161 990 l 149 1034 l 400 1050 l 407 1040 z "},"m":{"ha":1221,"x_min":54,"x_max":1182,"o":"m 1182 77 l 1172 33 q 1072 -2 1109 8 q 1008 -12 1035 -12 q 927 17 954 -12 q 900 86 900 45 q 903 119 900 101 q 911 161 905 137 l 978 414 q 990 467 985 444 q 994 505 994 491 q 975 577 994 551 q 912 604 955 604 q 823 582 867 604 q 724 503 779 561 l 606 0 l 480 0 l 587 453 q 593 485 590 468 q 596 509 596 501 q 574 578 596 553 q 509 604 552 604 q 424 584 471 604 q 315 498 377 565 l 201 0 l 75 0 l 176 439 q 186 490 181 463 q 191 536 191 517 q 178 588 191 576 q 128 601 165 601 q 90 595 113 601 q 54 587 66 590 l 64 630 q 157 665 117 654 q 227 677 198 677 q 304 647 281 677 q 328 567 327 618 l 332 567 q 464 657 412 630 q 587 684 515 684 q 685 649 647 684 q 727 562 722 614 l 730 562 q 859 653 802 622 q 991 684 916 684 q 1091 647 1056 684 q 1126 548 1126 609 q 1122 505 1126 536 q 1110 443 1118 473 l 1053 225 q 1042 175 1047 203 q 1036 132 1036 147 q 1053 79 1036 93 q 1107 65 1069 65 q 1145 68 1120 65 q 1182 77 1169 72 z "},"n":{"ha":819,"x_min":54,"x_max":779,"o":"m 779 79 l 769 35 q 674 0 708 11 q 606 -12 640 -12 q 524 17 551 -12 q 497 86 497 45 q 500 119 497 101 q 509 161 503 137 l 575 414 q 587 467 583 444 q 591 505 591 491 q 570 577 591 551 q 505 604 548 604 q 412 576 464 604 q 315 498 361 549 l 201 0 l 75 0 l 176 439 q 185 487 179 456 q 192 536 192 517 q 179 587 192 574 q 127 600 166 600 q 90 595 113 600 q 54 587 66 590 l 64 630 q 157 665 117 654 q 227 677 198 677 q 304 648 281 677 q 328 567 327 618 l 332 567 q 461 655 407 627 q 585 684 515 684 q 686 647 650 684 q 723 548 723 609 q 719 505 723 536 q 707 443 715 473 l 650 225 q 638 175 644 203 q 633 132 633 147 q 650 79 633 93 q 705 65 667 65 q 742 70 718 65 q 779 79 766 74 z "},"o":{"ha":746,"x_min":45,"x_max":701,"o":"m 701 418 q 673 258 701 338 q 595 117 646 178 q 469 17 543 55 q 298 -20 395 -20 q 116 52 186 -20 q 45 248 45 125 q 75 416 45 338 q 155 553 105 494 q 281 648 206 612 q 444 684 356 684 q 632 611 564 684 q 701 418 701 537 m 562 444 q 528 588 562 540 q 429 636 494 636 q 323 602 373 636 q 237 489 273 567 q 197 358 210 430 q 184 224 184 286 q 217 78 184 127 q 319 28 251 28 q 426 66 379 28 q 502 162 473 104 q 547 293 531 219 q 562 444 562 366 z "},"p":{"ha":803,"x_min":-104,"x_max":755,"o":"m 755 425 q 724 253 755 334 q 639 112 692 172 q 511 14 580 46 q 370 -18 442 -18 q 274 -3 311 -18 q 208 32 237 11 l 168 -146 q 162 -178 164 -163 q 159 -201 159 -193 q 173 -231 159 -220 q 203 -246 186 -241 q 241 -254 220 -252 q 279 -258 262 -257 l 269 -301 l -104 -301 l -95 -258 q -54 -255 -73 -257 q -18 -248 -35 -253 q 15 -225 3 -242 q 33 -184 28 -209 l 175 439 q 185 491 180 465 q 190 536 190 517 q 178 587 190 574 q 127 600 166 600 q 89 594 112 600 q 53 585 66 589 l 63 629 q 156 664 115 652 q 227 677 197 677 q 298 653 274 677 q 329 586 323 629 l 334 586 q 433 656 380 629 q 538 684 486 684 q 698 614 641 684 q 755 425 755 544 m 544 145 q 597 272 578 201 q 616 422 616 342 q 609 494 616 458 q 589 554 603 530 q 548 595 574 581 q 480 610 522 610 q 411 591 449 610 q 319 519 374 572 l 233 135 q 274 63 237 96 q 363 29 311 29 q 464 60 417 29 q 544 145 511 92 z "},"q":{"ha":771,"x_min":47,"x_max":732,"o":"m 477 94 l 473 94 q 438 63 456 80 q 387 25 420 45 q 328 -6 360 7 q 258 -19 295 -19 q 104 52 160 -19 q 47 244 47 122 q 79 408 47 328 q 165 550 111 487 q 291 647 218 610 q 439 684 363 684 q 532 671 487 684 q 602 642 577 659 l 724 674 l 732 664 l 548 -145 q 542 -177 544 -162 q 539 -201 539 -192 q 552 -231 539 -220 q 581 -246 564 -241 q 616 -254 596 -252 q 652 -258 636 -257 l 642 -301 l 269 -301 l 278 -258 q 322 -255 300 -257 q 361 -248 345 -253 q 395 -225 382 -242 q 413 -184 408 -209 l 477 94 m 574 518 q 568 561 574 540 q 548 599 563 581 q 510 626 534 616 q 450 636 486 636 q 353 604 400 636 q 269 516 306 571 q 210 390 232 462 q 187 243 187 319 q 192 170 187 203 q 211 111 197 136 q 247 71 224 85 q 309 56 271 56 q 399 84 355 56 q 491 159 444 113 l 574 518 z "},"r":{"ha":641,"x_min":54,"x_max":647,"o":"m 647 574 q 642 532 647 555 q 626 494 636 509 q 599 466 614 476 q 557 456 585 456 q 503 475 521 456 q 484 515 484 493 q 494 563 484 536 q 515 614 505 589 q 489 610 507 614 q 444 593 470 606 q 384 554 417 580 q 312 486 350 528 l 203 0 l 77 0 l 176 439 q 185 488 179 456 q 192 536 192 521 q 179 587 192 574 q 127 600 166 600 q 90 595 113 600 q 54 587 66 590 l 64 630 q 157 665 117 654 q 227 677 198 677 q 304 647 281 677 q 328 559 328 618 l 332 559 q 454 656 412 629 q 541 684 496 684 q 583 679 563 684 q 618 661 604 673 q 640 628 633 646 q 647 574 647 609 z "},"s":{"ha":599,"x_min":12,"x_max":570,"o":"m 245 -20 q 78 16 145 -20 q 12 109 12 52 q 31 160 12 136 q 79 184 51 184 q 123 171 106 184 q 149 142 140 159 q 167 100 159 124 q 180 60 175 75 q 209 38 191 48 q 260 28 227 28 q 371 65 334 28 q 409 164 409 102 q 374 238 409 210 q 269 288 338 265 q 210 313 243 296 q 155 349 176 330 q 116 400 131 370 q 101 471 101 430 q 179 621 101 557 q 370 684 256 684 q 427 682 396 684 q 494 667 457 679 q 548 634 526 656 q 570 579 570 613 q 552 529 570 551 q 503 506 533 506 q 461 517 477 506 q 434 546 445 528 q 416 585 423 564 q 401 627 410 606 q 378 634 389 632 q 351 636 368 636 q 251 601 285 636 q 216 516 216 565 q 247 445 216 469 q 349 395 278 420 q 483 319 441 361 q 525 213 525 276 q 446 45 525 110 q 245 -20 366 -20 z "},"t":{"ha":482,"x_min":73,"x_max":524,"o":"m 205 -14 q 111 12 141 -14 q 81 87 81 38 q 83 116 81 102 q 89 148 85 130 l 194 601 l 73 601 l 87 663 l 211 663 l 258 861 l 380 861 l 334 663 l 524 663 l 509 601 l 321 601 l 235 227 q 224 177 229 201 q 220 136 220 153 q 239 82 220 99 q 307 64 258 64 q 356 69 324 64 q 406 80 388 73 l 394 31 q 304 -1 347 12 q 205 -14 262 -14 z "},"u":{"ha":799,"x_min":41,"x_max":762,"o":"m 479 95 l 475 95 q 416 49 444 70 q 359 14 387 28 q 300 -10 327 -3 q 231 -17 274 -17 q 130 21 166 -17 q 94 119 94 58 q 97 158 94 136 q 110 224 100 180 l 163 439 q 174 492 170 469 q 178 536 178 515 q 166 587 178 574 q 115 600 153 600 q 77 594 100 600 q 41 585 54 589 l 51 629 q 144 665 104 652 q 209 677 184 677 q 289 651 263 677 q 314 579 314 626 q 311 546 314 567 q 303 504 309 525 l 243 253 q 232 200 236 224 q 227 162 227 175 q 247 90 227 117 q 309 64 267 64 q 398 86 353 64 q 490 155 444 109 l 609 666 l 727 674 l 735 664 l 634 227 q 622 171 627 199 q 616 132 616 143 q 633 79 616 93 q 688 65 650 65 q 725 69 701 65 q 762 78 749 73 l 751 35 q 657 0 695 12 q 588 -12 620 -12 q 506 20 533 -12 q 479 95 479 52 z "},"v":{"ha":747,"x_min":40,"x_max":705,"o":"m 705 559 q 673 350 705 456 q 588 164 642 243 q 457 31 533 82 q 290 -20 381 -20 q 149 29 201 -20 q 96 161 96 78 q 99 196 96 176 q 104 222 103 216 l 163 439 q 175 491 170 466 q 180 536 180 517 q 167 587 180 574 q 115 600 154 600 q 77 593 101 600 q 40 584 52 587 l 50 627 q 144 664 103 651 q 210 677 185 677 q 290 652 264 677 q 316 579 316 627 q 314 546 316 566 q 305 504 311 527 l 240 251 q 230 201 233 225 q 227 171 227 178 q 238 114 227 136 q 266 79 249 92 q 301 63 282 68 q 341 58 321 58 q 436 87 387 58 q 522 163 486 117 q 587 277 562 214 q 611 416 611 340 q 600 478 611 456 q 575 517 589 500 q 550 552 562 534 q 539 605 539 571 q 565 664 539 644 q 619 684 591 684 q 682 652 659 684 q 705 559 705 620 z "},"w":{"ha":1142,"x_min":41,"x_max":1099,"o":"m 1099 559 q 1069 348 1099 452 q 985 164 1038 243 q 852 28 926 76 q 690 -20 777 -20 q 572 15 626 -20 q 500 112 518 50 q 455 68 475 88 q 401 26 434 47 q 340 -7 368 4 q 270 -19 313 -19 q 185 -3 218 -19 q 131 39 151 13 q 104 94 112 63 q 96 159 96 125 q 99 191 96 172 q 105 225 102 211 l 163 439 q 175 495 171 470 q 178 536 178 520 q 166 587 178 574 q 115 600 153 600 q 77 594 100 600 q 41 585 54 589 l 51 629 q 144 665 104 652 q 209 677 184 677 q 289 651 263 677 q 314 579 314 626 q 311 546 314 567 q 303 504 309 525 l 240 254 q 230 202 234 229 q 226 163 226 176 q 246 86 226 112 q 315 60 267 60 q 404 83 357 60 q 490 151 451 106 l 610 666 l 728 674 l 736 664 l 640 251 q 630 201 635 231 q 625 164 625 172 q 637 105 625 127 q 667 73 649 83 q 704 61 685 63 q 741 58 723 58 q 835 87 787 58 q 920 163 884 117 q 983 279 960 216 q 1006 416 1006 342 q 995 478 1006 456 q 970 517 983 500 q 945 552 956 534 q 934 605 934 571 q 960 664 934 644 q 1014 684 985 684 q 1077 652 1054 684 q 1099 559 1099 620 z "},"x":{"ha":696,"x_min":-28,"x_max":726,"o":"m 725 610 q 696 552 724 570 q 635 533 668 533 q 589 540 614 533 q 548 552 563 547 q 477 472 517 525 q 401 355 437 419 q 430 245 417 291 q 458 153 443 199 q 498 87 471 112 q 570 62 526 62 q 615 67 587 62 q 659 77 644 71 l 647 32 q 549 -3 582 5 q 478 -12 516 -12 q 400 10 431 -12 q 350 100 369 32 q 328 183 336 149 q 311 250 319 216 q 260 170 280 203 q 192 79 239 137 q 116 8 151 29 q 45 -13 81 -13 q -7 6 14 -13 q -28 58 -28 24 q -3 112 -28 90 q 64 135 21 135 q 106 127 85 135 q 149 113 127 119 q 217 189 175 137 q 296 306 260 240 q 268 412 283 354 q 239 513 253 469 q 199 583 222 568 q 140 599 176 599 q 98 593 120 599 q 57 583 76 588 l 70 627 q 164 663 122 649 q 220 677 205 677 q 298 654 267 677 q 347 566 329 631 q 372 474 368 491 q 387 409 376 458 q 439 494 419 459 q 506 585 460 528 q 585 659 549 639 q 654 679 621 679 q 705 660 684 679 q 725 610 726 640 z "},"y":{"ha":777,"x_min":12,"x_max":736,"o":"m 486 98 l 482 98 q 363 16 420 46 q 235 -14 307 -14 q 132 24 170 -14 q 94 123 94 62 q 97 161 94 139 q 110 228 100 184 l 163 439 q 174 493 170 470 q 178 536 178 515 q 166 587 178 574 q 115 600 153 600 q 77 594 100 600 q 41 585 54 589 l 51 629 q 144 665 104 652 q 209 677 184 677 q 289 652 263 677 q 315 579 315 628 q 313 546 315 567 q 304 504 310 525 l 243 256 q 231 203 236 228 q 227 165 227 178 q 249 94 227 120 q 313 67 271 67 q 410 92 363 67 q 498 159 457 116 l 611 666 l 728 674 l 736 664 l 620 133 q 554 -66 594 16 q 460 -200 514 -149 q 339 -277 404 -254 q 191 -301 274 -301 q 99 -293 133 -301 q 45 -271 65 -285 q 19 -240 26 -257 q 12 -206 12 -223 q 30 -155 12 -177 q 81 -132 47 -132 q 123 -146 106 -132 q 152 -178 141 -161 q 174 -219 164 -196 q 191 -256 184 -242 l 207 -256 q 289 -237 245 -256 q 368 -178 332 -218 q 437 -66 406 -134 q 486 98 468 3 z "},"z":{"ha":616,"x_min":-18,"x_max":633,"o":"m 633 664 l 625 624 l 140 54 q 193 53 165 53 q 256 52 222 52 q 311 53 282 52 q 385 56 340 54 q 430 75 412 58 q 458 115 447 93 q 488 170 469 132 q 519 236 507 208 l 559 236 l 513 0 l -18 0 l -7 47 l 469 610 l 380 610 q 288 608 321 610 q 224 595 254 606 q 178 548 201 587 q 133 458 154 509 l 92 458 l 132 664 l 633 664 z "},"{":{"ha":597,"x_min":49,"x_max":709,"o":"m 467 992 q 568 1030 509 1017 q 709 1042 628 1042 l 696 990 q 631 983 666 989 q 570 964 597 977 q 519 918 540 948 q 487 840 498 888 l 452 688 q 407 567 435 614 q 339 492 378 520 q 256 449 302 465 q 157 424 211 433 l 152 403 q 225 383 191 395 q 283 353 260 370 q 322 304 309 332 q 336 228 336 276 q 327 150 336 195 q 309 71 317 105 q 290 -9 298 33 q 281 -75 281 -50 q 294 -127 281 -108 q 328 -155 307 -146 q 373 -169 348 -165 q 429 -175 398 -173 l 416 -226 q 220 -185 279 -226 q 161 -61 161 -145 q 171 14 161 -26 q 193 100 180 54 q 215 182 203 137 q 226 252 226 227 q 186 337 226 308 q 49 372 146 366 l 69 457 q 160 471 116 461 q 233 500 205 481 q 287 551 265 520 q 319 632 309 582 q 334 719 328 672 q 346 798 340 765 q 390 918 359 872 q 467 992 421 964 z "},"|":{"ha":521,"x_min":236,"x_max":322,"o":"m 322 -288 l 236 -288 l 236 1033 l 322 1033 l 322 -288 z "},"}":{"ha":597,"x_min":-92,"x_max":568,"o":"m 568 444 l 548 359 q 374 310 431 351 q 298 184 317 269 q 283 102 290 151 q 271 18 277 54 q 228 -102 258 -55 q 150 -176 197 -149 q 41 -215 101 -204 q -92 -226 -18 -226 l -79 -174 q -14 -166 -52 -172 q 47 -147 24 -160 q 98 -101 77 -131 q 130 -23 119 -72 l 165 129 q 211 250 182 204 q 278 325 239 296 q 363 368 315 353 q 460 393 412 382 l 465 414 q 392 434 427 422 q 334 464 357 446 q 295 512 309 484 q 281 589 281 541 q 291 669 281 625 q 309 746 301 713 q 329 828 321 795 q 336 892 336 861 q 323 943 336 924 q 290 972 311 962 q 242 986 269 982 q 189 991 216 989 l 201 1042 q 397 1003 338 1042 q 456 878 456 963 q 445 798 456 844 q 424 716 434 751 q 402 634 413 680 q 391 565 391 589 q 432 479 391 507 q 568 444 472 451 z "},"~":{"ha":893,"x_min":105,"x_max":822,"o":"m 822 484 q 790 421 812 459 q 741 357 768 384 q 671 304 708 323 q 591 285 634 285 q 501 299 542 285 q 427 331 460 314 q 358 363 392 349 q 291 377 325 377 q 213 343 244 377 q 158 258 182 309 l 105 279 q 137 341 114 304 q 186 406 159 378 q 254 456 213 435 q 336 478 295 478 q 427 464 387 478 q 502 432 467 449 q 569 400 538 414 q 636 386 599 386 q 716 421 684 386 q 769 505 747 457 l 822 484 z "},"":{"ha":932,"x_min":-109,"x_max":893,"o":"m 593 391 l 533 766 l 302 391 l 593 391 m 490 0 l 500 45 q 549 51 521 47 q 593 59 577 54 q 624 73 614 66 q 635 96 635 81 q 627 163 635 102 q 604 334 618 224 l 266 334 q 218 253 243 299 q 180 182 193 206 q 156 133 168 160 q 145 98 145 106 q 181 62 145 75 q 271 45 217 48 l 261 0 l -109 0 l -98 45 q -53 53 -81 46 q -5 70 -24 59 q 40 103 18 83 q 87 163 62 123 q 345 577 205 349 q 591 976 485 805 l 646 976 l 774 142 q 787 100 778 117 q 816 68 797 83 q 852 52 829 58 q 893 45 876 45 l 883 0 l 490 0 m 851 1173 q 828 1114 851 1139 q 771 1090 804 1090 q 714 1114 738 1090 q 691 1173 691 1139 q 714 1232 691 1208 q 771 1257 738 1257 q 828 1232 804 1257 q 851 1173 851 1208 m 546 1173 q 523 1114 546 1139 q 466 1090 499 1090 q 409 1114 433 1090 q 386 1173 386 1139 q 409 1232 386 1208 q 466 1257 433 1257 q 523 1232 499 1257 q 546 1173 546 1208 z "},"":{"ha":932,"x_min":-109,"x_max":893,"o":"m 593 391 l 533 766 l 302 391 l 593 391 m 490 0 l 500 45 q 549 51 521 47 q 593 59 577 54 q 624 73 614 66 q 635 96 635 81 q 627 163 635 102 q 604 334 618 224 l 266 334 q 218 253 243 299 q 180 182 193 206 q 156 133 168 160 q 145 98 145 106 q 181 62 145 75 q 271 45 217 48 l 261 0 l -109 0 l -98 45 q -53 53 -81 46 q -5 70 -24 59 q 40 103 18 83 q 87 163 62 123 q 342 572 205 349 q 585 966 479 795 q 484 1002 519 970 q 448 1088 448 1034 q 506 1215 448 1162 q 651 1267 564 1267 q 760 1232 719 1267 q 802 1141 802 1197 q 760 1032 802 1081 q 646 969 719 983 l 774 142 q 787 100 778 117 q 816 68 797 83 q 852 52 829 58 q 893 45 876 45 l 883 0 l 490 0 m 714 1141 q 697 1201 714 1176 q 644 1227 680 1227 q 565 1185 594 1227 q 535 1090 535 1144 q 552 1029 535 1053 q 607 1005 570 1005 q 684 1044 654 1005 q 714 1141 714 1082 z "},"":{"ha":892,"x_min":68,"x_max":968,"o":"m 393 -20 q 273 11 330 -15 q 174 79 216 36 q 96 200 124 129 q 68 361 68 271 q 111 600 68 489 q 231 799 155 711 q 407 934 304 883 q 621 985 509 985 q 770 965 706 985 q 876 916 834 945 l 913 962 l 968 962 l 895 619 l 839 619 l 839 646 q 830 752 839 702 q 796 844 821 803 q 729 906 772 883 q 621 930 687 930 q 466 885 538 930 q 342 767 395 841 q 260 590 291 695 q 229 376 229 485 q 299 141 229 231 q 490 52 370 52 q 673 111 589 52 q 810 269 757 170 l 859 243 q 675 42 777 102 q 446 -22 574 -18 l 436 -67 q 541 -91 505 -67 q 576 -153 576 -115 q 550 -228 576 -197 q 484 -273 525 -258 q 395 -295 446 -288 q 280 -301 344 -301 l 290 -252 q 354 -251 319 -252 q 413 -244 389 -250 q 457 -225 441 -237 q 473 -186 473 -212 q 450 -152 473 -164 q 369 -140 427 -140 l 393 -20 z "},"":{"ha":907,"x_min":-25,"x_max":941,"o":"m 941 962 l 888 730 l 837 730 q 807 851 833 802 q 736 907 781 900 q 687 911 716 909 q 621 912 658 912 l 467 912 l 378 525 l 486 525 q 564 535 536 525 q 614 568 592 545 q 653 624 634 588 q 680 684 672 659 l 731 684 l 644 307 l 594 307 q 595 325 594 315 q 596 348 596 336 q 593 396 596 373 q 583 430 589 419 q 543 465 569 456 q 473 473 516 473 l 365 473 l 298 179 q 291 144 294 163 q 288 114 288 125 q 315 64 288 77 q 433 52 342 52 q 588 60 547 52 q 648 84 629 68 q 739 184 687 115 q 808 283 791 252 l 857 283 l 774 0 l -25 0 l -15 45 q 41 51 6 46 q 87 60 75 55 q 124 86 111 68 q 141 127 136 104 l 302 826 q 305 838 304 831 q 306 851 306 845 q 300 876 306 865 q 279 894 294 886 q 233 909 263 903 q 186 918 203 916 l 197 962 l 941 962 m 798 1218 q 779 1169 798 1187 q 729 1135 760 1150 q 633 1091 698 1120 q 484 1022 568 1061 l 466 1048 q 575 1147 536 1110 q 657 1227 614 1184 q 703 1260 683 1253 q 741 1267 722 1267 q 782 1253 766 1267 q 798 1218 798 1239 z "},"":{"ha":1065,"x_min":-51,"x_max":1193,"o":"m 1193 962 l 1182 918 q 1122 907 1164 917 q 1061 886 1080 897 q 1013 821 1031 869 q 977 699 994 773 l 813 -9 l 752 -9 l 357 803 l 237 278 q 223 207 229 243 q 218 149 218 171 q 222 110 218 125 q 235 86 227 96 q 293 59 247 72 q 354 45 339 46 l 344 0 l -51 0 l -41 45 q 25 58 -18 47 q 83 79 68 69 q 129 139 110 98 q 168 271 148 180 l 276 737 q 283 775 281 760 q 285 805 285 791 q 281 836 285 821 q 264 867 277 850 q 206 904 240 894 q 144 918 172 915 l 155 962 l 431 962 l 798 210 l 908 690 q 922 760 916 726 q 927 819 927 794 q 923 856 927 841 q 909 879 918 871 q 854 904 893 893 q 791 918 816 914 l 802 962 l 1193 962 m 952 1248 q 932 1195 945 1222 q 895 1141 918 1168 q 843 1099 870 1115 q 779 1083 817 1083 q 712 1094 741 1083 q 662 1118 684 1105 q 616 1142 638 1131 q 569 1153 594 1153 q 514 1128 534 1153 q 473 1061 495 1103 l 434 1078 q 457 1130 441 1099 q 492 1183 473 1160 q 542 1225 513 1208 q 603 1242 571 1242 q 667 1231 639 1242 q 719 1207 696 1220 q 763 1183 745 1193 q 806 1173 781 1173 q 873 1195 852 1173 q 911 1263 894 1217 l 952 1248 z "},"":{"ha":1034,"x_min":68,"x_max":1002,"o":"m 1002 592 q 954 350 1002 463 q 830 155 907 236 q 651 25 751 73 q 442 -23 550 -23 q 171 86 274 -23 q 68 366 68 195 q 115 611 68 498 q 239 806 163 724 q 417 937 315 889 q 627 985 519 985 q 897 879 793 985 q 1002 592 1002 772 m 743 230 q 817 420 791 314 q 842 631 842 526 q 785 848 842 767 q 615 928 727 928 q 454 877 528 928 q 323 726 379 825 q 251 533 275 638 q 227 335 227 428 q 286 113 227 193 q 454 34 345 34 q 621 90 547 34 q 743 230 694 145 m 881 1173 q 858 1114 881 1139 q 801 1090 834 1090 q 744 1114 768 1090 q 721 1173 721 1139 q 744 1232 721 1208 q 801 1257 768 1257 q 858 1232 834 1257 q 881 1173 881 1208 m 576 1173 q 552 1114 576 1139 q 496 1090 529 1090 q 439 1114 463 1090 q 416 1173 416 1139 q 439 1232 416 1208 q 496 1257 463 1257 q 552 1232 529 1257 q 576 1173 576 1208 z "},"":{"ha":1050,"x_min":144,"x_max":1178,"o":"m 447 -23 q 224 37 304 -23 q 144 198 144 98 q 145 225 144 212 q 151 254 147 237 l 283 826 q 285 838 284 831 q 286 849 286 844 q 279 874 286 863 q 260 895 273 886 q 220 910 245 905 q 178 918 195 916 l 189 962 l 589 962 l 578 918 q 529 911 559 917 q 484 901 499 906 q 446 873 458 892 q 429 833 435 854 l 306 298 q 299 258 302 280 q 296 216 296 237 q 303 155 296 181 q 336 102 311 129 q 394 65 357 79 q 489 50 432 50 q 621 74 566 50 q 713 134 676 98 q 769 211 747 169 q 800 292 791 253 q 846 482 825 389 q 890 684 867 574 q 906 772 902 739 q 911 828 911 806 q 907 860 911 848 q 892 880 903 871 q 833 906 873 897 q 774 918 794 916 l 785 962 l 1178 962 l 1167 918 q 1109 909 1149 917 q 1046 887 1070 901 q 997 815 1018 871 q 962 700 975 760 q 919 504 941 603 q 868 290 897 406 q 797 135 844 196 q 689 39 749 73 q 570 -9 631 5 q 447 -23 508 -23 m 941 1173 q 917 1114 941 1139 q 861 1090 894 1090 q 804 1114 827 1090 q 781 1173 781 1139 q 804 1232 781 1208 q 861 1257 827 1257 q 917 1232 894 1257 q 941 1173 941 1208 m 635 1173 q 612 1114 635 1139 q 555 1090 589 1090 q 499 1114 522 1090 q 475 1173 475 1139 q 499 1232 475 1208 q 555 1257 522 1257 q 612 1232 589 1257 q 635 1173 635 1208 z "},"":{"ha":795,"x_min":47,"x_max":754,"o":"m 472 90 l 467 90 q 432 59 452 77 q 383 23 411 40 q 326 -6 357 6 q 258 -19 294 -19 q 103 52 159 -19 q 47 244 47 122 q 79 408 47 328 q 165 550 110 487 q 289 647 217 610 q 437 684 361 684 q 529 671 485 684 q 597 642 572 659 l 722 674 l 730 664 l 627 227 q 615 175 621 205 q 610 131 610 145 q 626 79 610 92 q 681 65 642 65 q 718 69 694 65 q 754 78 741 73 l 744 35 q 653 -1 683 10 q 581 -12 623 -12 q 503 17 532 -12 q 472 90 475 45 m 569 518 q 564 561 569 541 q 545 599 559 581 q 507 626 531 616 q 448 636 484 636 q 351 604 398 636 q 267 516 304 571 q 210 391 232 465 q 187 243 187 318 q 192 170 187 201 q 210 111 197 138 q 248 71 223 85 q 309 57 272 57 q 389 78 347 57 q 483 153 431 100 l 569 518 m 627 994 q 614 950 627 967 q 574 913 601 934 q 492 853 543 889 q 355 753 441 817 l 331 774 q 424 901 398 864 q 480 983 450 939 q 526 1031 504 1020 q 574 1043 548 1043 q 611 1028 596 1043 q 627 994 627 1013 z "},"":{"ha":795,"x_min":47,"x_max":754,"o":"m 472 90 l 467 90 q 432 59 452 77 q 383 23 411 40 q 326 -6 357 6 q 258 -19 294 -19 q 103 52 159 -19 q 47 244 47 122 q 79 408 47 328 q 165 550 110 487 q 289 647 217 610 q 437 684 361 684 q 529 671 485 684 q 597 642 572 659 l 722 674 l 730 664 l 627 227 q 615 175 621 205 q 610 131 610 145 q 626 79 610 92 q 681 65 642 65 q 718 69 694 65 q 754 78 741 73 l 744 35 q 653 -1 683 10 q 581 -12 623 -12 q 503 17 532 -12 q 472 90 475 45 m 569 518 q 564 561 569 541 q 545 599 559 581 q 507 626 531 616 q 448 636 484 636 q 351 604 398 636 q 267 516 304 571 q 210 391 232 465 q 187 243 187 318 q 192 170 187 201 q 210 111 197 138 q 248 71 223 85 q 309 57 272 57 q 389 78 347 57 q 483 153 431 100 l 569 518 m 606 774 l 578 753 q 452 857 486 831 q 383 913 418 884 q 352 947 362 932 q 342 983 342 961 q 358 1025 342 1007 q 403 1043 374 1043 q 445 1029 429 1043 q 479 983 460 1016 q 532 895 498 952 q 606 774 567 838 z "},"":{"ha":795,"x_min":47,"x_max":754,"o":"m 472 90 l 467 90 q 432 59 452 77 q 383 23 411 40 q 326 -6 357 6 q 258 -19 294 -19 q 103 52 159 -19 q 47 244 47 122 q 79 408 47 328 q 165 550 110 487 q 289 647 217 610 q 437 684 361 684 q 529 671 485 684 q 597 642 572 659 l 722 674 l 730 664 l 627 227 q 615 175 621 205 q 610 131 610 145 q 626 79 610 92 q 681 65 642 65 q 718 69 694 65 q 754 78 741 73 l 744 35 q 653 -1 683 10 q 581 -12 623 -12 q 503 17 532 -12 q 472 90 475 45 m 569 518 q 564 561 569 541 q 545 599 559 581 q 507 626 531 616 q 448 636 484 636 q 351 604 398 636 q 267 516 304 571 q 210 391 232 465 q 187 243 187 318 q 192 170 187 201 q 210 111 197 138 q 248 71 223 85 q 309 57 272 57 q 389 78 347 57 q 483 153 431 100 l 569 518 m 677 780 l 644 758 l 492 943 l 269 758 l 237 780 l 442 1015 q 468 1038 455 1031 q 508 1046 481 1046 q 544 1039 534 1046 q 561 1018 554 1031 l 677 780 z "},"":{"ha":795,"x_min":47,"x_max":754,"o":"m 472 90 l 467 90 q 432 59 452 77 q 383 23 411 40 q 326 -6 357 6 q 258 -19 294 -19 q 103 52 159 -19 q 47 244 47 122 q 79 408 47 328 q 165 550 110 487 q 289 647 217 610 q 437 684 361 684 q 529 671 485 684 q 597 642 572 659 l 722 674 l 730 664 l 627 227 q 615 175 621 205 q 610 131 610 145 q 626 79 610 92 q 681 65 642 65 q 718 69 694 65 q 754 78 741 73 l 744 35 q 653 -1 683 10 q 581 -12 623 -12 q 503 17 532 -12 q 472 90 475 45 m 569 518 q 564 561 569 541 q 545 599 559 581 q 507 626 531 616 q 448 636 484 636 q 351 604 398 636 q 267 516 304 571 q 210 391 232 465 q 187 243 187 318 q 192 170 187 201 q 210 111 197 138 q 248 71 223 85 q 309 57 272 57 q 389 78 347 57 q 483 153 431 100 l 569 518 m 707 925 q 684 866 707 890 q 627 842 661 842 q 571 866 594 842 q 547 925 547 890 q 571 984 547 960 q 627 1008 594 1008 q 684 984 661 1008 q 707 925 707 960 m 416 925 q 392 866 416 890 q 336 842 369 842 q 279 866 302 842 q 256 925 256 890 q 279 984 256 960 q 336 1008 302 1008 q 392 984 369 1008 q 416 925 416 960 z "},"":{"ha":795,"x_min":47,"x_max":754,"o":"m 472 90 l 467 90 q 432 59 452 77 q 383 23 411 40 q 326 -6 357 6 q 258 -19 294 -19 q 103 52 159 -19 q 47 244 47 122 q 79 408 47 328 q 165 550 110 487 q 289 647 217 610 q 437 684 361 684 q 529 671 485 684 q 597 642 572 659 l 722 674 l 730 664 l 627 227 q 615 175 621 205 q 610 131 610 145 q 626 79 610 92 q 681 65 642 65 q 718 69 694 65 q 754 78 741 73 l 744 35 q 653 -1 683 10 q 581 -12 623 -12 q 503 17 532 -12 q 472 90 475 45 m 569 518 q 564 561 569 541 q 545 599 559 581 q 507 626 531 616 q 448 636 484 636 q 351 604 398 636 q 267 516 304 571 q 210 391 232 465 q 187 243 187 318 q 192 170 187 201 q 210 111 197 138 q 248 71 223 85 q 309 57 272 57 q 389 78 347 57 q 483 153 431 100 l 569 518 m 737 998 q 717 945 730 972 q 680 892 703 918 q 628 849 655 865 q 564 833 602 833 q 497 845 526 833 q 447 868 469 856 q 401 892 423 882 q 354 903 379 903 q 299 879 319 903 q 258 811 280 854 l 219 828 q 242 880 226 850 q 277 934 258 911 q 327 976 298 958 q 388 993 356 993 q 452 982 424 993 q 504 958 481 970 q 548 933 530 943 q 591 923 566 923 q 658 945 637 923 q 696 1014 679 967 l 737 998 z "},"":{"ha":795,"x_min":47,"x_max":754,"o":"m 472 90 l 467 90 q 432 59 452 77 q 383 23 411 40 q 326 -6 357 6 q 258 -19 294 -19 q 103 52 159 -19 q 47 244 47 122 q 79 408 47 328 q 165 550 110 487 q 289 647 217 610 q 437 684 361 684 q 529 671 485 684 q 597 642 572 659 l 722 674 l 730 664 l 627 227 q 615 175 621 205 q 610 131 610 145 q 626 79 610 92 q 681 65 642 65 q 718 69 694 65 q 754 78 741 73 l 744 35 q 653 -1 683 10 q 581 -12 623 -12 q 503 17 532 -12 q 472 90 475 45 m 569 518 q 564 561 569 541 q 545 599 559 581 q 507 626 531 616 q 448 636 484 636 q 351 604 398 636 q 267 516 304 571 q 210 391 232 465 q 187 243 187 318 q 192 170 187 201 q 210 111 197 138 q 248 71 223 85 q 309 57 272 57 q 389 78 347 57 q 483 153 431 100 l 569 518 m 659 931 q 603 807 659 858 q 457 755 547 755 q 346 789 387 755 q 305 879 305 823 q 363 1005 305 953 q 509 1057 422 1057 q 618 1022 576 1057 q 659 931 659 987 m 574 931 q 556 992 574 966 q 501 1017 538 1017 q 421 976 452 1017 q 391 881 391 935 q 409 820 391 844 q 465 795 427 795 q 544 836 515 795 q 574 931 574 876 z "},"":{"ha":630,"x_min":45,"x_max":620,"o":"m 272 -17 q 106 60 167 -9 q 45 247 45 128 q 72 409 45 332 q 144 547 98 487 q 263 646 191 608 q 422 684 334 684 q 569 643 519 684 q 620 540 620 602 q 598 458 620 493 q 532 422 576 422 q 477 441 495 422 q 458 481 458 459 q 473 541 458 503 q 497 602 488 578 q 464 628 490 620 q 410 637 438 637 q 251 529 318 637 q 184 266 184 422 q 228 113 184 170 q 344 56 271 56 q 461 92 410 56 q 559 191 512 127 l 597 163 q 480 42 554 94 q 325 -17 406 -10 l 314 -67 q 418 -91 383 -67 q 454 -153 454 -115 q 428 -228 454 -197 q 362 -273 403 -258 q 273 -295 324 -288 q 158 -301 222 -301 l 168 -252 q 232 -251 197 -252 q 291 -244 267 -250 q 335 -225 319 -237 q 351 -186 351 -212 q 328 -152 351 -164 q 247 -140 304 -140 l 272 -17 z "},"":{"ha":655,"x_min":47,"x_max":628,"o":"m 628 543 q 583 420 628 471 q 452 338 538 368 q 324 300 389 315 q 182 277 260 286 q 221 113 182 170 q 338 56 261 56 q 457 90 406 56 q 559 191 509 124 l 598 163 q 463 31 544 80 q 294 -19 381 -19 q 110 48 174 -19 q 47 239 47 115 q 74 402 47 324 q 152 544 100 479 q 275 646 202 607 q 436 684 348 684 q 581 645 534 684 q 628 543 628 605 m 503 560 q 496 602 503 587 q 477 625 488 617 q 451 635 465 633 q 423 637 437 637 q 273 547 342 637 q 186 324 204 458 q 293 343 233 331 q 392 376 353 356 q 476 451 448 406 q 503 560 503 497 m 613 994 q 600 950 613 967 q 561 913 587 934 q 478 853 529 889 q 342 753 428 817 l 317 774 q 411 901 385 864 q 467 983 437 939 q 512 1031 490 1020 q 560 1043 534 1043 q 598 1028 583 1043 q 613 994 613 1013 z "},"":{"ha":655,"x_min":47,"x_max":628,"o":"m 628 543 q 583 420 628 471 q 452 338 538 368 q 324 300 389 315 q 182 277 260 286 q 221 113 182 170 q 338 56 261 56 q 457 90 406 56 q 559 191 509 124 l 598 163 q 463 31 544 80 q 294 -19 381 -19 q 110 48 174 -19 q 47 239 47 115 q 74 402 47 324 q 152 544 100 479 q 275 646 202 607 q 436 684 348 684 q 581 645 534 684 q 628 543 628 605 m 503 560 q 496 602 503 587 q 477 625 488 617 q 451 635 465 633 q 423 637 437 637 q 273 547 342 637 q 186 324 204 458 q 293 343 233 331 q 392 376 353 356 q 476 451 448 406 q 503 560 503 497 m 556 774 l 529 753 q 402 857 436 831 q 334 913 368 884 q 303 947 313 932 q 293 983 293 961 q 309 1025 293 1007 q 353 1043 325 1043 q 395 1029 380 1043 q 430 983 411 1016 q 483 895 448 952 q 556 774 517 838 z "},"":{"ha":655,"x_min":47,"x_max":652,"o":"m 628 543 q 583 420 628 471 q 452 338 538 368 q 324 300 389 315 q 182 277 260 286 q 221 113 182 170 q 338 56 261 56 q 457 90 406 56 q 559 191 509 124 l 598 163 q 463 31 544 80 q 294 -19 381 -19 q 110 48 174 -19 q 47 239 47 115 q 74 402 47 324 q 152 544 100 479 q 275 646 202 607 q 436 684 348 684 q 581 645 534 684 q 628 543 628 605 m 503 560 q 496 602 503 587 q 477 625 488 617 q 451 635 465 633 q 423 637 437 637 q 273 547 342 637 q 186 324 204 458 q 293 343 233 331 q 392 376 353 356 q 476 451 448 406 q 503 560 503 497 m 652 780 l 618 758 l 467 943 l 243 758 l 211 780 l 416 1015 q 443 1038 429 1031 q 482 1046 456 1046 q 518 1039 508 1046 q 535 1018 528 1031 l 652 780 z "},"":{"ha":655,"x_min":47,"x_max":675,"o":"m 628 543 q 583 420 628 471 q 452 338 538 368 q 324 300 389 315 q 182 277 260 286 q 221 113 182 170 q 338 56 261 56 q 457 90 406 56 q 559 191 509 124 l 598 163 q 463 31 544 80 q 294 -19 381 -19 q 110 48 174 -19 q 47 239 47 115 q 74 402 47 324 q 152 544 100 479 q 275 646 202 607 q 436 684 348 684 q 581 645 534 684 q 628 543 628 605 m 503 560 q 496 602 503 587 q 477 625 488 617 q 451 635 465 633 q 423 637 437 637 q 273 547 342 637 q 186 324 204 458 q 293 343 233 331 q 392 376 353 356 q 476 451 448 406 q 503 560 503 497 m 675 925 q 651 866 675 890 q 595 842 628 842 q 538 866 562 842 q 515 925 515 890 q 538 984 515 960 q 595 1008 562 1008 q 651 984 628 1008 q 675 925 675 960 m 383 925 q 360 866 383 890 q 303 842 336 842 q 247 866 270 842 q 223 925 223 890 q 247 984 223 960 q 303 1008 270 1008 q 360 984 336 1008 q 383 925 383 960 z "},"":{"ha":413,"x_min":50,"x_max":450,"o":"m 374 74 l 363 31 q 264 -4 301 5 q 200 -14 227 -14 q 119 14 146 -14 q 92 83 92 42 q 94 116 92 99 q 103 159 97 133 l 175 447 q 185 498 180 471 q 191 544 191 525 q 178 594 191 582 q 127 607 165 607 q 87 602 112 607 q 50 594 62 597 l 60 637 q 155 673 113 661 q 221 684 197 684 q 302 658 277 684 q 327 587 327 631 q 324 553 327 574 q 316 511 321 532 l 243 223 q 232 171 237 197 q 227 130 227 146 q 244 77 227 91 q 300 62 261 62 q 337 66 313 62 q 374 74 361 69 m 450 994 q 437 950 450 967 q 398 913 425 934 q 316 853 366 889 q 179 753 265 817 l 155 774 q 248 901 222 864 q 304 983 274 939 q 350 1031 328 1020 q 397 1043 372 1043 q 435 1028 420 1043 q 450 994 450 1013 z "},"":{"ha":413,"x_min":50,"x_max":400,"o":"m 374 74 l 363 31 q 264 -4 301 5 q 200 -14 227 -14 q 119 14 146 -14 q 92 83 92 42 q 94 116 92 99 q 103 159 97 133 l 175 447 q 185 498 180 471 q 191 544 191 525 q 178 594 191 582 q 127 607 165 607 q 87 602 112 607 q 50 594 62 597 l 60 637 q 155 673 113 661 q 221 684 197 684 q 302 658 277 684 q 327 587 327 631 q 324 553 327 574 q 316 511 321 532 l 243 223 q 232 171 237 197 q 227 130 227 146 q 244 77 227 91 q 300 62 261 62 q 337 66 313 62 q 374 74 361 69 m 400 774 l 373 753 q 246 857 280 831 q 178 913 212 884 q 147 947 157 932 q 137 983 137 961 q 153 1025 137 1007 q 197 1043 169 1043 q 239 1029 224 1043 q 274 983 255 1016 q 327 895 292 952 q 400 774 361 838 z "},"":{"ha":413,"x_min":39,"x_max":433,"o":"m 374 74 l 363 31 q 264 -4 301 5 q 200 -14 227 -14 q 119 14 146 -14 q 92 83 92 42 q 94 116 92 99 q 103 159 97 133 l 175 447 q 185 498 180 471 q 191 544 191 525 q 178 594 191 582 q 127 607 165 607 q 87 602 112 607 q 50 594 62 597 l 60 637 q 155 673 113 661 q 221 684 197 684 q 302 658 277 684 q 327 587 327 631 q 324 553 327 574 q 316 511 321 532 l 243 223 q 232 171 237 197 q 227 130 227 146 q 244 77 227 91 q 300 62 261 62 q 337 66 313 62 q 374 74 361 69 m 433 780 l 398 760 l 268 943 l 70 760 l 39 780 l 218 1013 q 241 1036 227 1025 q 284 1046 255 1046 q 323 1035 314 1046 q 336 1015 333 1024 l 433 780 z "},"":{"ha":413,"x_min":50,"x_max":478,"o":"m 374 74 l 363 31 q 264 -4 301 5 q 200 -14 227 -14 q 119 14 146 -14 q 92 83 92 42 q 94 116 92 99 q 103 159 97 133 l 175 447 q 185 498 180 471 q 191 544 191 525 q 178 594 191 582 q 127 607 165 607 q 87 602 112 607 q 50 594 62 597 l 60 637 q 155 673 113 661 q 221 684 197 684 q 302 658 277 684 q 327 587 327 631 q 324 553 327 574 q 316 511 321 532 l 243 223 q 232 171 237 197 q 227 130 227 146 q 244 77 227 91 q 300 62 261 62 q 337 66 313 62 q 374 74 361 69 m 478 925 q 456 866 478 890 q 400 842 433 842 q 345 866 367 842 q 322 925 322 890 q 345 984 322 960 q 400 1008 367 1008 q 456 984 433 1008 q 478 925 478 960 m 241 925 q 218 866 241 890 q 163 842 196 842 q 107 866 130 842 q 85 925 85 890 q 107 984 85 960 q 163 1008 130 1008 q 218 984 196 1008 q 241 925 241 960 z "},"":{"ha":819,"x_min":54,"x_max":779,"o":"m 779 79 l 769 35 q 674 0 708 11 q 606 -12 640 -12 q 524 17 551 -12 q 497 86 497 45 q 500 119 497 101 q 509 161 503 137 l 575 414 q 587 467 583 444 q 591 505 591 491 q 570 577 591 551 q 505 604 548 604 q 412 576 464 604 q 315 498 361 549 l 201 0 l 75 0 l 176 439 q 185 487 179 456 q 192 536 192 517 q 179 587 192 574 q 127 600 166 600 q 90 595 113 600 q 54 587 66 590 l 64 630 q 157 665 117 654 q 227 677 198 677 q 304 648 281 677 q 328 567 327 618 l 332 567 q 461 655 407 627 q 585 684 515 684 q 686 647 650 684 q 723 548 723 609 q 719 505 723 536 q 707 443 715 473 l 650 225 q 638 175 644 203 q 633 132 633 147 q 650 79 633 93 q 705 65 667 65 q 742 70 718 65 q 779 79 766 74 m 745 998 q 725 945 739 972 q 688 892 711 918 q 636 849 663 865 q 572 833 610 833 q 506 845 534 833 q 455 868 477 856 q 409 892 431 882 q 362 903 387 903 q 308 879 327 903 q 267 811 288 854 l 227 828 q 250 880 234 850 q 286 934 267 911 q 335 976 306 958 q 396 993 364 993 q 460 982 432 993 q 512 958 489 970 q 556 933 538 943 q 599 923 574 923 q 666 945 646 923 q 704 1014 687 967 l 745 998 z "},"":{"ha":746,"x_min":45,"x_max":701,"o":"m 701 418 q 673 258 701 338 q 595 117 646 178 q 469 17 543 55 q 298 -20 395 -20 q 116 52 186 -20 q 45 248 45 125 q 75 416 45 338 q 155 553 105 494 q 281 648 206 612 q 444 684 356 684 q 632 611 564 684 q 701 418 701 537 m 562 444 q 528 588 562 540 q 429 636 494 636 q 323 602 373 636 q 237 489 273 567 q 197 358 210 430 q 184 224 184 286 q 217 78 184 127 q 319 28 251 28 q 426 66 379 28 q 502 162 473 104 q 547 293 531 219 q 562 444 562 366 m 615 994 q 602 950 615 967 q 563 913 589 934 q 480 853 531 889 q 344 753 430 817 l 319 774 q 413 901 387 864 q 469 983 439 939 q 514 1031 492 1020 q 562 1043 536 1043 q 600 1028 585 1043 q 615 994 615 1013 z "},"":{"ha":746,"x_min":45,"x_max":701,"o":"m 701 418 q 673 258 701 338 q 595 117 646 178 q 469 17 543 55 q 298 -20 395 -20 q 116 52 186 -20 q 45 248 45 125 q 75 416 45 338 q 155 553 105 494 q 281 648 206 612 q 444 684 356 684 q 632 611 564 684 q 701 418 701 537 m 562 444 q 528 588 562 540 q 429 636 494 636 q 323 602 373 636 q 237 489 273 567 q 197 358 210 430 q 184 224 184 286 q 217 78 184 127 q 319 28 251 28 q 426 66 379 28 q 502 162 473 104 q 547 293 531 219 q 562 444 562 366 m 587 774 l 559 753 q 433 857 467 831 q 364 913 399 884 q 333 947 343 932 q 323 983 323 961 q 339 1025 323 1007 q 384 1043 355 1043 q 426 1029 410 1043 q 460 983 441 1016 q 513 895 479 952 q 587 774 548 838 z "},"":{"ha":746,"x_min":45,"x_max":701,"o":"m 701 418 q 673 258 701 338 q 595 117 646 178 q 469 17 543 55 q 298 -20 395 -20 q 116 52 186 -20 q 45 248 45 125 q 75 416 45 338 q 155 553 105 494 q 281 648 206 612 q 444 684 356 684 q 632 611 564 684 q 701 418 701 537 m 562 444 q 528 588 562 540 q 429 636 494 636 q 323 602 373 636 q 237 489 273 567 q 197 358 210 430 q 184 224 184 286 q 217 78 184 127 q 319 28 251 28 q 426 66 379 28 q 502 162 473 104 q 547 293 531 219 q 562 444 562 366 m 669 780 l 636 758 l 484 943 l 260 758 l 229 780 l 434 1015 q 460 1038 447 1031 q 500 1046 473 1046 q 536 1039 526 1046 q 553 1018 546 1031 l 669 780 z "},"":{"ha":746,"x_min":45,"x_max":701,"o":"m 701 418 q 673 258 701 338 q 595 117 646 178 q 469 17 543 55 q 298 -20 395 -20 q 116 52 186 -20 q 45 248 45 125 q 75 416 45 338 q 155 553 105 494 q 281 648 206 612 q 444 684 356 684 q 632 611 564 684 q 701 418 701 537 m 562 444 q 528 588 562 540 q 429 636 494 636 q 323 602 373 636 q 237 489 273 567 q 197 358 210 430 q 184 224 184 286 q 217 78 184 127 q 319 28 251 28 q 426 66 379 28 q 502 162 473 104 q 547 293 531 219 q 562 444 562 366 m 700 925 q 676 866 700 890 q 620 842 653 842 q 563 866 587 842 q 540 925 540 890 q 563 984 540 960 q 620 1008 587 1008 q 676 984 653 1008 q 700 925 700 960 m 408 925 q 385 866 408 890 q 328 842 361 842 q 272 866 295 842 q 248 925 248 890 q 272 984 248 960 q 328 1008 295 1008 q 385 984 361 1008 q 408 925 408 960 z "},"":{"ha":746,"x_min":45,"x_max":722,"o":"m 701 418 q 673 258 701 338 q 595 117 646 178 q 469 17 543 55 q 298 -20 395 -20 q 116 52 186 -20 q 45 248 45 125 q 75 416 45 338 q 155 553 105 494 q 281 648 206 612 q 444 684 356 684 q 632 611 564 684 q 701 418 701 537 m 562 444 q 528 588 562 540 q 429 636 494 636 q 323 602 373 636 q 237 489 273 567 q 197 358 210 430 q 184 224 184 286 q 217 78 184 127 q 319 28 251 28 q 426 66 379 28 q 502 162 473 104 q 547 293 531 219 q 562 444 562 366 m 722 998 q 702 945 715 972 q 665 892 688 918 q 613 849 640 865 q 549 833 587 833 q 483 845 511 833 q 432 868 454 856 q 386 892 408 882 q 339 903 364 903 q 284 879 304 903 q 243 811 265 854 l 204 828 q 227 880 211 850 q 262 934 243 911 q 312 976 283 958 q 373 993 341 993 q 437 982 409 993 q 489 958 466 970 q 533 933 515 943 q 576 923 551 923 q 643 945 623 923 q 681 1014 664 967 l 722 998 z "},"":{"ha":799,"x_min":41,"x_max":762,"o":"m 479 95 l 475 95 q 416 49 444 70 q 359 14 387 28 q 300 -10 327 -3 q 231 -17 274 -17 q 130 21 166 -17 q 94 119 94 58 q 97 158 94 136 q 110 224 100 180 l 163 439 q 174 492 170 469 q 178 536 178 515 q 166 587 178 574 q 115 600 153 600 q 77 594 100 600 q 41 585 54 589 l 51 629 q 144 665 104 652 q 209 677 184 677 q 289 651 263 677 q 314 579 314 626 q 311 546 314 567 q 303 504 309 525 l 243 253 q 232 200 236 224 q 227 162 227 175 q 247 90 227 117 q 309 64 267 64 q 398 86 353 64 q 490 155 444 109 l 609 666 l 727 674 l 735 664 l 634 227 q 622 171 627 199 q 616 132 616 143 q 633 79 616 93 q 688 65 650 65 q 725 69 701 65 q 762 78 749 73 l 751 35 q 657 0 695 12 q 588 -12 620 -12 q 506 20 533 -12 q 479 95 479 52 m 654 994 q 641 950 654 967 q 602 913 628 934 q 519 853 570 889 q 382 753 469 817 l 358 774 q 451 901 425 864 q 507 983 477 939 q 553 1031 531 1020 q 601 1043 575 1043 q 638 1028 623 1043 q 654 994 654 1013 z "},"":{"ha":799,"x_min":41,"x_max":762,"o":"m 479 95 l 475 95 q 416 49 444 70 q 359 14 387 28 q 300 -10 327 -3 q 231 -17 274 -17 q 130 21 166 -17 q 94 119 94 58 q 97 158 94 136 q 110 224 100 180 l 163 439 q 174 492 170 469 q 178 536 178 515 q 166 587 178 574 q 115 600 153 600 q 77 594 100 600 q 41 585 54 589 l 51 629 q 144 665 104 652 q 209 677 184 677 q 289 651 263 677 q 314 579 314 626 q 311 546 314 567 q 303 504 309 525 l 243 253 q 232 200 236 224 q 227 162 227 175 q 247 90 227 117 q 309 64 267 64 q 398 86 353 64 q 490 155 444 109 l 609 666 l 727 674 l 735 664 l 634 227 q 622 171 627 199 q 616 132 616 143 q 633 79 616 93 q 688 65 650 65 q 725 69 701 65 q 762 78 749 73 l 751 35 q 657 0 695 12 q 588 -12 620 -12 q 506 20 533 -12 q 479 95 479 52 m 576 774 l 549 753 q 422 857 456 831 q 354 913 389 884 q 323 947 333 932 q 313 983 313 961 q 329 1025 313 1007 q 374 1043 345 1043 q 416 1029 400 1043 q 450 983 431 1016 q 503 895 469 952 q 576 774 538 838 z "},"":{"ha":799,"x_min":41,"x_max":762,"o":"m 479 95 l 475 95 q 416 49 444 70 q 359 14 387 28 q 300 -10 327 -3 q 231 -17 274 -17 q 130 21 166 -17 q 94 119 94 58 q 97 158 94 136 q 110 224 100 180 l 163 439 q 174 492 170 469 q 178 536 178 515 q 166 587 178 574 q 115 600 153 600 q 77 594 100 600 q 41 585 54 589 l 51 629 q 144 665 104 652 q 209 677 184 677 q 289 651 263 677 q 314 579 314 626 q 311 546 314 567 q 303 504 309 525 l 243 253 q 232 200 236 224 q 227 162 227 175 q 247 90 227 117 q 309 64 267 64 q 398 86 353 64 q 490 155 444 109 l 609 666 l 727 674 l 735 664 l 634 227 q 622 171 627 199 q 616 132 616 143 q 633 79 616 93 q 688 65 650 65 q 725 69 701 65 q 762 78 749 73 l 751 35 q 657 0 695 12 q 588 -12 620 -12 q 506 20 533 -12 q 479 95 479 52 m 674 780 l 641 758 l 489 943 l 265 758 l 233 780 l 439 1015 q 465 1038 452 1031 q 505 1046 478 1046 q 541 1039 530 1046 q 557 1018 551 1031 l 674 780 z "},"":{"ha":799,"x_min":41,"x_max":762,"o":"m 479 95 l 475 95 q 416 49 444 70 q 359 14 387 28 q 300 -10 327 -3 q 231 -17 274 -17 q 130 21 166 -17 q 94 119 94 58 q 97 158 94 136 q 110 224 100 180 l 163 439 q 174 492 170 469 q 178 536 178 515 q 166 587 178 574 q 115 600 153 600 q 77 594 100 600 q 41 585 54 589 l 51 629 q 144 665 104 652 q 209 677 184 677 q 289 651 263 677 q 314 579 314 626 q 311 546 314 567 q 303 504 309 525 l 243 253 q 232 200 236 224 q 227 162 227 175 q 247 90 227 117 q 309 64 267 64 q 398 86 353 64 q 490 155 444 109 l 609 666 l 727 674 l 735 664 l 634 227 q 622 171 627 199 q 616 132 616 143 q 633 79 616 93 q 688 65 650 65 q 725 69 701 65 q 762 78 749 73 l 751 35 q 657 0 695 12 q 588 -12 620 -12 q 506 20 533 -12 q 479 95 479 52 m 698 925 q 674 866 698 890 q 618 842 651 842 q 561 866 585 842 q 538 925 538 890 q 561 984 538 960 q 618 1008 585 1008 q 674 984 651 1008 q 698 925 698 960 m 406 925 q 383 866 406 890 q 326 842 359 842 q 270 866 293 842 q 246 925 246 890 q 270 984 246 960 q 326 1008 293 1008 q 383 984 359 1008 q 406 925 406 960 z "},"":{"ha":656,"x_min":153,"x_max":669,"o":"m 669 724 q 655 689 669 701 q 618 676 641 676 q 545 690 600 676 q 425 709 491 704 q 376 407 405 592 q 341 200 347 222 q 326 170 336 180 q 294 159 315 159 q 261 170 277 159 q 245 209 245 181 q 258 259 245 220 q 288 360 270 298 q 329 500 302 410 q 390 709 357 591 q 273 689 324 702 q 203 676 221 676 q 167 688 181 676 q 153 724 153 701 q 167 761 153 749 q 203 772 181 772 q 261 761 220 772 q 396 736 302 749 q 408 859 404 791 q 415 947 411 927 q 432 975 418 963 q 464 987 445 987 q 499 975 486 987 q 513 940 513 962 q 486 866 513 920 q 432 737 459 812 q 552 759 503 745 q 618 772 602 772 q 655 761 641 772 q 669 724 669 750 z "},"":{"ha":583,"x_min":121,"x_max":563,"o":"m 563 765 q 501 608 563 672 q 342 545 439 545 q 183 609 244 545 q 121 765 121 673 q 184 923 121 861 q 342 985 248 985 q 501 922 439 985 q 563 765 563 858 m 463 760 q 429 889 463 844 q 341 935 396 935 q 254 889 286 935 q 222 767 222 844 q 254 642 222 688 q 344 595 286 595 q 428 639 394 595 q 463 760 463 683 z "},"":{"ha":771,"x_min":75,"x_max":707,"o":"m 707 543 q 686 468 707 502 q 626 435 665 435 q 571 451 588 435 q 554 492 554 467 q 570 543 554 511 q 595 595 586 575 q 562 623 589 609 q 507 640 536 636 l 374 62 q 387 61 379 62 q 402 60 394 60 q 523 89 470 60 q 635 195 576 117 l 676 166 q 617 97 652 132 q 545 39 583 61 q 458 -1 502 13 q 357 -14 415 -14 l 314 -203 l 252 -203 l 298 -10 q 131 75 187 5 q 75 250 75 145 q 100 406 75 332 q 176 543 125 480 q 296 644 224 604 q 458 688 368 683 l 498 865 l 561 865 l 518 687 q 657 640 608 681 q 707 543 707 598 m 448 640 q 361 604 402 633 q 286 526 320 575 q 233 411 254 479 q 213 269 213 343 q 238 147 213 199 q 316 72 263 94 l 448 640 z "},"":{"ha":864,"x_min":9,"x_max":859,"o":"m 859 819 q 837 739 859 777 q 768 702 816 702 q 713 719 732 702 q 694 762 694 735 q 709 819 694 786 q 736 876 724 852 q 707 919 732 901 q 637 937 681 937 q 585 929 613 937 q 524 899 556 922 q 469 835 493 876 q 434 734 446 794 q 413 611 425 686 q 392 485 402 536 l 661 485 l 648 422 l 382 422 q 309 253 366 331 q 161 126 253 175 l 159 117 l 747 117 l 720 0 l 9 0 l 32 100 q 120 149 83 116 q 182 229 157 182 q 223 322 207 271 q 248 422 239 372 l 130 422 l 144 485 l 258 485 q 268 567 260 512 q 281 657 275 622 q 410 893 307 799 q 650 987 512 987 q 803 938 747 987 q 859 819 859 889 z "},"":{"ha":694,"x_min":24,"x_max":684,"o":"m 648 951 q 676 918 668 936 q 684 883 684 901 q 663 827 684 854 q 604 801 643 801 q 569 813 583 801 q 547 844 555 825 q 532 887 537 864 q 523 930 528 909 q 499 935 514 933 q 469 937 484 937 q 349 896 401 937 q 298 798 298 854 q 309 759 298 776 q 345 725 321 741 q 397 694 364 711 q 477 654 431 677 q 592 568 553 616 q 631 463 631 519 q 569 315 631 385 q 412 212 507 245 q 495 146 466 184 q 524 59 524 107 q 436 -104 524 -34 q 206 -175 347 -175 q 110 -163 149 -175 q 53 -133 72 -151 q 28 -95 33 -115 q 26 -58 24 -75 q 51 -12 31 -35 q 107 10 71 10 q 142 -2 128 10 q 163 -33 155 -15 q 175 -72 170 -50 q 185 -117 180 -93 q 209 -123 195 -121 q 241 -126 222 -126 q 363 -83 311 -126 q 416 20 416 -40 q 386 87 416 58 q 255 163 355 117 q 127 255 168 205 q 87 367 87 305 q 142 510 87 447 q 300 614 196 572 q 218 680 247 645 q 189 762 189 715 q 280 922 189 859 q 503 986 370 986 q 594 976 559 986 q 648 951 629 966 m 521 425 q 510 472 521 450 q 478 512 499 494 q 426 548 456 531 q 351 586 395 566 q 233 508 271 555 q 196 401 196 461 q 207 351 196 372 q 239 310 218 329 q 292 274 261 292 q 369 234 323 256 q 487 323 452 276 q 521 425 521 370 z "},"":{"ha":545,"x_min":100,"x_max":458,"o":"m 458 406 q 406 280 458 332 q 279 227 353 227 q 153 280 205 227 q 100 406 100 332 q 153 533 100 480 q 279 585 205 585 q 406 533 353 585 q 458 406 458 480 z "},"":{"ha":694,"x_min":132,"x_max":781,"o":"m 770 912 l 694 912 l 450 -146 l 380 -146 l 625 912 l 516 912 l 272 -146 l 202 -146 l 346 475 q 194 528 256 475 q 132 675 132 580 q 220 879 132 796 q 446 962 307 962 l 781 962 l 770 912 z "},"":{"ha":753,"x_min":-272,"x_max":766,"o":"m 766 892 q 741 781 766 828 q 679 703 715 733 q 602 656 641 672 q 531 636 562 640 l 529 630 q 659 550 610 608 q 707 404 707 492 q 674 243 707 319 q 589 113 642 167 q 469 25 536 57 q 331 -7 401 -7 q 286 -5 311 -7 q 248 0 261 -3 l 260 55 q 293 50 276 52 q 322 47 309 47 q 426 82 379 47 q 503 172 472 117 q 551 294 534 227 q 568 431 568 362 q 530 557 568 511 q 418 604 492 604 l 405 604 l 418 659 l 443 659 q 510 673 473 659 q 576 713 547 686 q 605 745 591 726 q 628 785 619 764 q 643 834 637 808 q 648 892 648 860 q 624 971 648 943 q 553 1000 600 1000 q 415 928 469 1000 q 333 719 362 857 l 189 41 q 137 -99 172 -36 q 54 -207 102 -161 q -48 -276 7 -252 q -156 -301 -102 -301 q -244 -278 -216 -301 q -272 -221 -272 -256 q -254 -170 -272 -192 q -203 -147 -237 -147 q -166 -157 -182 -147 q -138 -180 -151 -166 q -117 -212 -129 -192 q -96 -245 -105 -231 q -5 -172 -45 -244 q 57 15 34 -99 l 199 682 q 251 837 216 764 q 348 964 285 909 q 459 1031 401 1010 q 572 1051 517 1051 q 712 1010 658 1051 q 766 892 766 968 z "},"":{"ha":1308,"x_min":73,"x_max":1272,"o":"m 1272 408 q 1096 -15 1272 160 q 672 -191 920 -191 q 248 -15 424 -191 q 73 408 73 160 q 248 832 73 656 q 672 1007 424 1007 q 1096 832 920 1007 q 1272 408 1272 656 m 1205 408 q 1050 789 1205 630 q 672 947 895 947 q 295 789 450 947 q 140 408 140 630 q 295 28 140 186 q 672 -131 450 -131 q 1050 28 895 -131 q 1205 408 1205 186 m 1064 98 l 869 98 q 758 250 805 189 q 661 372 710 311 l 589 372 l 589 195 q 595 167 589 180 q 618 149 601 155 q 649 142 625 146 q 685 138 673 138 l 685 98 l 387 98 l 387 138 q 420 142 399 139 q 452 149 441 144 q 473 166 467 155 q 479 195 479 178 l 479 630 q 475 658 479 646 q 452 676 470 670 q 419 685 437 681 q 387 690 401 688 l 387 729 l 721 729 q 795 721 759 729 q 862 695 832 713 q 909 649 891 677 q 928 579 928 620 q 887 463 928 505 q 768 399 847 421 q 861 287 823 333 q 928 203 899 240 q 966 168 947 179 q 1001 151 984 156 q 1034 142 1015 146 q 1064 138 1053 138 l 1064 98 m 802 566 q 768 651 802 622 q 668 680 734 680 l 589 680 l 589 424 l 648 424 q 760 461 719 424 q 802 566 802 498 z "},"":{"ha":1308,"x_min":73,"x_max":1272,"o":"m 1272 408 q 1096 -15 1272 160 q 672 -191 920 -191 q 248 -15 424 -191 q 73 408 73 160 q 248 832 73 656 q 672 1007 424 1007 q 1096 832 920 1007 q 1272 408 1272 656 m 1205 408 q 1050 789 1205 630 q 672 947 895 947 q 295 789 450 947 q 140 408 140 630 q 295 28 140 186 q 672 -131 450 -131 q 1050 28 895 -131 q 1205 408 1205 186 m 951 274 q 913 202 937 239 q 859 139 890 165 q 783 92 823 109 q 684 75 743 75 q 550 98 612 75 q 444 163 489 120 q 376 267 400 206 q 352 401 352 327 q 378 534 352 473 q 451 643 404 596 q 563 714 496 688 q 704 741 629 741 q 787 727 743 741 q 852 697 831 713 l 883 742 l 923 742 l 926 496 l 890 496 q 862 569 876 536 q 821 631 847 602 q 763 675 798 659 q 677 691 728 691 q 544 615 596 691 q 492 408 492 540 q 555 212 492 284 q 712 140 618 140 q 829 176 781 140 q 911 291 877 212 l 951 274 z "},"":{"ha":1309,"x_min":171,"x_max":1364,"o":"m 1364 497 l 1129 497 l 1129 532 q 1160 534 1140 532 q 1187 539 1180 536 q 1202 551 1198 547 q 1206 566 1206 556 l 1206 872 l 1196 872 l 1030 512 l 1008 512 l 848 879 l 838 879 l 838 632 q 842 577 838 596 q 857 549 846 559 q 887 538 866 544 q 924 532 908 532 l 924 497 l 710 497 l 710 531 q 742 536 721 533 q 774 547 764 539 q 790 571 786 555 q 794 629 794 587 l 794 865 q 789 892 794 881 q 774 911 784 903 q 749 923 764 919 q 714 928 734 926 l 714 962 l 903 962 l 1046 642 l 1165 905 q 1176 937 1173 922 q 1182 962 1180 952 l 1364 962 l 1364 928 q 1334 924 1352 927 q 1309 919 1316 922 q 1296 909 1299 917 q 1293 895 1293 902 l 1293 566 q 1296 551 1293 557 q 1309 541 1299 545 q 1332 535 1316 538 q 1364 532 1349 532 l 1364 497 m 631 828 l 599 828 q 571 884 592 850 q 531 922 551 918 q 502 924 516 923 q 478 924 488 924 l 445 924 l 445 569 q 448 553 445 559 q 462 542 451 547 q 487 536 469 540 q 521 532 505 532 l 521 497 l 281 497 l 281 532 q 315 535 295 532 q 340 539 334 537 q 354 550 351 543 q 357 565 357 557 l 357 924 l 324 924 q 297 923 314 924 q 271 922 280 922 q 230 884 250 918 q 203 828 210 850 l 171 828 l 171 962 l 631 962 l 631 828 z "},"":{"ha":694,"x_min":317,"x_max":613,"o":"m 613 994 q 600 950 613 967 q 561 913 587 934 q 478 853 529 889 q 342 753 428 817 l 317 774 q 411 901 385 864 q 467 983 437 939 q 512 1031 490 1020 q 560 1043 534 1043 q 598 1028 583 1043 q 613 994 613 1013 z "},"":{"ha":694,"x_min":257,"x_max":709,"o":"m 709 925 q 685 866 709 890 q 629 842 662 842 q 572 866 595 842 q 549 925 549 890 q 572 984 549 960 q 629 1008 595 1008 q 685 984 662 1008 q 709 925 709 960 m 417 925 q 394 866 417 890 q 337 842 370 842 q 280 866 304 842 q 257 925 257 890 q 280 984 257 960 q 337 1008 304 1008 q 394 984 370 1008 q 417 925 417 960 z "},"":{"ha":893,"x_min":121,"x_max":806,"o":"m 806 211 l 455 211 l 394 0 l 315 0 l 376 211 l 121 211 l 121 296 l 401 296 l 449 463 l 121 463 l 121 548 l 472 548 l 533 759 l 612 759 l 551 548 l 806 548 l 806 463 l 526 463 l 479 296 l 806 296 l 806 211 z "},"":{"ha":1348,"x_min":-151,"x_max":1382,"o":"m 1382 962 l 1329 730 l 1278 730 q 1271 784 1276 754 q 1253 840 1265 814 q 1223 884 1242 865 q 1177 907 1205 902 q 1128 911 1157 909 q 1062 912 1099 912 l 914 912 l 825 525 l 927 525 q 1005 535 977 525 q 1055 568 1033 545 q 1094 624 1075 588 q 1121 684 1113 659 l 1172 684 l 1085 307 l 1035 307 q 1036 325 1035 315 q 1037 348 1037 336 q 1034 396 1037 373 q 1024 430 1030 419 q 983 465 1010 456 q 914 473 957 473 l 812 473 l 745 179 q 739 143 742 163 q 736 114 736 124 q 765 63 736 73 q 874 52 793 52 q 1024 60 980 52 q 1089 84 1068 67 q 1180 184 1128 115 q 1249 283 1232 252 l 1298 283 l 1215 0 l 422 0 l 433 45 q 488 51 454 46 q 535 60 523 55 q 571 86 559 68 q 589 127 584 104 l 654 410 l 332 410 q 258 319 286 353 q 158 182 231 284 q 132 137 144 163 q 121 101 121 111 q 146 62 121 75 q 222 45 171 48 l 212 0 l -151 0 l -141 45 q -94 55 -119 47 q -47 73 -68 62 q 4 109 -22 85 q 57 165 31 132 q 348 527 195 334 q 644 903 501 721 q 591 913 627 910 q 530 918 556 916 l 541 962 l 1382 962 m 768 906 l 722 906 l 377 467 l 667 467 l 768 906 z "},"":{"ha":1034,"x_min":18,"x_max":1029,"o":"m 1002 592 q 954 350 1002 463 q 830 155 907 236 q 651 25 751 73 q 442 -23 550 -23 q 286 7 357 -23 q 167 91 216 37 l 52 -22 l 18 13 l 137 129 q 85 238 103 178 q 68 366 68 299 q 115 611 68 498 q 239 806 163 724 q 417 937 315 889 q 627 985 519 985 q 778 957 709 985 q 898 876 847 929 l 992 968 l 1029 934 l 929 837 q 983 725 964 787 q 1002 592 1002 663 m 815 795 q 738 895 789 860 q 615 929 688 929 q 457 880 532 929 q 323 727 382 831 q 250 534 274 640 q 226 335 226 428 q 228 277 226 301 q 235 224 230 253 l 815 795 m 743 228 q 818 418 791 312 q 844 631 844 524 q 841 690 844 657 q 833 744 838 722 l 252 174 q 326 71 276 108 q 454 33 376 33 q 621 89 547 33 q 743 228 695 144 z "},"":{"ha":996,"x_min":68,"x_max":961,"o":"m 961 382 q 893 181 961 263 q 730 100 825 100 q 608 141 664 100 q 507 263 553 182 q 415 140 469 180 q 298 100 361 100 q 133 178 197 100 q 68 382 68 256 q 137 585 68 505 q 299 665 205 665 q 420 625 365 665 q 522 501 475 585 q 613 623 558 582 q 732 664 667 664 q 897 586 833 664 q 961 382 961 508 m 903 380 q 858 501 903 456 q 739 546 812 546 q 621 524 671 546 q 546 457 572 501 q 644 276 599 332 q 759 220 689 220 q 864 266 826 220 q 903 380 903 311 m 484 307 q 384 490 430 435 q 271 544 338 544 q 165 498 203 544 q 127 385 127 453 q 172 263 127 309 q 290 218 218 218 q 408 241 356 218 q 484 307 459 264 z "},"":{"ha":893,"x_min":118,"x_max":809,"o":"m 809 0 l 118 0 l 118 85 l 420 85 l 420 357 l 118 357 l 118 442 l 420 442 l 420 748 l 507 748 l 507 442 l 809 442 l 809 357 l 507 357 l 507 85 l 809 85 l 809 0 z "},"":{"ha":893,"x_min":140,"x_max":787,"o":"m 787 136 l 140 401 l 140 479 l 787 745 l 787 651 l 262 441 l 787 230 l 787 136 m 787 0 l 140 0 l 140 85 l 787 85 l 787 0 z "},"":{"ha":893,"x_min":140,"x_max":787,"o":"m 787 401 l 140 136 l 140 230 l 665 441 l 140 651 l 140 745 l 787 479 l 787 401 m 787 0 l 140 0 l 140 85 l 787 85 l 787 0 z "},"":{"ha":854,"x_min":79,"x_max":1004,"o":"m 1004 962 l 994 918 q 956 909 981 917 q 915 892 930 901 q 874 867 886 877 q 828 822 861 858 q 666 634 727 710 q 505 437 604 559 l 492 378 l 763 378 l 748 316 l 477 316 l 436 137 q 434 124 435 132 q 433 111 433 117 q 439 85 433 96 q 459 66 446 73 q 503 53 470 60 q 553 45 535 46 l 543 0 l 132 0 l 142 45 q 194 50 159 46 q 244 59 229 53 q 280 85 267 68 q 299 130 293 102 l 342 316 l 79 316 l 94 378 l 357 378 l 367 425 q 311 621 336 540 q 251 804 286 701 q 225 861 237 843 q 193 895 212 880 q 158 911 179 905 q 119 918 138 916 l 130 962 l 509 962 l 499 918 q 404 906 431 914 q 377 882 377 899 q 379 863 377 875 q 388 829 382 852 q 427 702 400 784 q 490 507 454 619 q 610 656 564 599 q 699 768 656 714 q 759 846 747 827 q 772 876 772 865 q 750 903 772 893 q 666 918 728 913 l 676 962 l 1004 962 z "},"":{"ha":787,"x_min":-47,"x_max":750,"o":"m 468 95 l 464 95 q 420 59 446 81 q 370 24 393 37 q 308 -4 337 5 q 229 -14 279 -14 q 157 4 189 -14 q 113 47 125 23 l 109 47 l 100 1 q 91 -70 91 -36 q 90 -139 90 -104 q 90 -188 90 -162 q 84 -232 89 -213 q 52 -282 77 -264 q 1 -301 27 -301 q -34 -288 -22 -301 q -47 -252 -47 -275 q -15 -145 -47 -225 q 29 -30 17 -66 q 50 36 41 5 q 64 92 58 68 l 195 666 l 315 674 l 323 666 l 226 240 q 215 185 217 203 q 214 157 214 166 q 237 87 214 111 q 299 64 261 64 q 401 95 349 64 q 479 156 454 125 l 597 666 l 716 674 l 724 666 l 623 227 q 612 175 618 208 q 606 131 606 143 q 622 79 606 92 q 677 65 638 65 q 713 69 690 65 q 750 78 737 73 l 740 35 q 646 0 684 12 q 576 -12 608 -12 q 495 20 522 -12 q 468 95 468 52 z "},"":{"ha":800,"x_min":76,"x_max":752,"o":"m 511 161 q 561 276 539 212 q 589 386 582 341 q 578 443 587 416 q 549 492 570 469 q 501 527 530 514 q 433 540 473 540 q 277 444 345 540 q 209 220 209 348 q 215 148 209 180 q 236 89 220 116 q 276 48 251 64 q 339 33 302 33 q 436 69 392 33 q 511 161 479 106 m 328 901 q 332 868 329 888 q 334 827 334 848 q 316 769 333 791 q 256 747 300 747 q 202 769 220 747 q 184 821 184 791 q 201 876 184 847 q 247 928 218 904 q 325 971 277 954 q 433 987 373 987 q 578 956 518 987 q 677 872 638 925 q 734 752 716 820 q 752 609 752 684 q 728 404 752 516 q 653 202 703 292 q 510 34 590 89 q 338 -22 431 -22 q 144 56 213 -22 q 76 261 76 134 q 173 511 76 402 q 389 619 271 619 q 526 588 472 619 q 610 496 580 556 q 615 555 614 526 q 617 623 617 585 q 607 742 617 682 q 578 842 597 802 q 522 909 557 885 q 432 934 486 934 q 370 924 395 934 q 328 901 345 913 z "},"":{"ha":979,"x_min":38,"x_max":963,"o":"m 46 962 l 853 962 l 882 690 l 835 690 q 750 828 805 764 q 650 902 695 892 q 597 907 629 906 q 530 909 564 909 l 236 909 l 629 393 l 629 374 l 182 -159 l 723 -159 q 789 -142 759 -159 q 843 -98 820 -125 q 886 -34 867 -69 q 918 31 905 1 l 963 17 l 883 -281 l 38 -281 l 38 -248 l 510 321 l 46 932 l 46 962 z "},"":{"ha":1159,"x_min":90,"x_max":1120,"o":"m 1120 962 l 1120 901 l 981 901 l 981 -145 q 988 -185 981 -169 q 1019 -214 996 -201 q 1060 -226 1031 -220 q 1107 -233 1090 -232 l 1107 -281 l 707 -281 l 707 -233 q 754 -228 724 -231 q 797 -220 785 -225 q 827 -196 817 -212 q 836 -153 836 -179 l 836 901 l 370 901 l 370 -145 q 378 -185 370 -169 q 409 -214 386 -201 q 450 -226 420 -220 q 496 -233 479 -232 l 496 -281 l 97 -281 l 97 -233 q 144 -228 113 -231 q 186 -220 175 -225 q 216 -196 207 -212 q 226 -153 226 -179 l 226 901 l 90 901 l 90 962 l 1120 962 z "},"":{"ha":694,"x_min":31,"x_max":697,"o":"m 302 648 q 319 836 302 757 q 377 964 336 916 q 458 1027 410 1003 q 549 1050 505 1050 q 618 1039 591 1050 q 663 1013 646 1028 q 689 978 681 996 q 697 940 697 959 q 681 896 697 913 q 634 878 665 878 q 569 912 585 878 q 552 998 552 947 q 546 999 548 999 q 543 1000 545 1000 q 538 1001 542 1001 q 530 1001 535 1001 q 478 979 498 1001 q 446 920 458 958 q 430 833 433 884 q 426 737 426 783 l 426 102 q 411 -82 426 -1 q 351 -214 395 -162 q 270 -279 315 -256 q 179 -301 226 -301 q 111 -291 138 -301 q 65 -264 83 -281 q 39 -229 48 -248 q 31 -191 31 -210 q 46 -148 31 -167 q 94 -128 62 -128 q 157 -160 138 -128 q 176 -249 176 -192 q 181 -250 179 -250 q 185 -251 184 -251 q 189 -251 186 -251 q 198 -252 191 -252 q 251 -229 231 -252 q 282 -171 271 -206 q 298 -88 294 -132 q 302 16 302 -43 l 302 648 z "},"":{"ha":694,"x_min":102,"x_max":690,"o":"m 450 501 l 446 501 q 415 475 435 492 q 378 448 395 458 q 331 424 353 433 q 275 416 309 416 q 147 473 193 416 q 102 629 102 530 q 130 765 102 701 q 201 877 157 829 q 306 956 245 926 q 431 985 366 985 q 502 976 466 985 q 563 951 537 967 l 662 977 l 674 969 l 583 618 q 573 574 578 598 q 569 540 569 551 q 583 497 569 508 q 629 487 596 487 q 661 492 641 487 q 690 500 680 496 l 681 459 q 605 431 630 439 q 544 422 579 422 q 477 444 503 422 q 450 501 452 467 m 532 850 q 530 884 532 869 q 515 914 527 899 q 487 935 505 927 q 440 943 469 943 q 361 917 401 943 q 291 846 322 891 q 243 746 262 804 q 224 628 224 687 q 227 569 224 592 q 241 523 230 545 q 270 493 251 504 q 319 481 289 481 q 398 509 361 481 q 456 559 435 537 l 532 850 z "},"":{"ha":694,"x_min":125,"x_max":678,"o":"m 678 768 q 653 637 678 703 q 585 522 629 571 q 477 440 539 470 q 341 411 414 411 q 186 472 247 411 q 125 633 125 534 q 150 767 125 703 q 220 880 176 831 q 326 957 264 928 q 459 985 388 985 q 620 924 562 985 q 678 768 678 863 m 555 791 q 528 900 555 861 q 448 939 500 939 q 357 905 399 939 q 292 817 315 872 q 259 713 270 770 q 248 610 248 656 q 275 501 248 545 q 357 458 301 458 q 439 488 401 458 q 502 566 476 517 q 541 673 528 616 q 555 791 555 731 z "},"":{"ha":1082,"x_min":-16,"x_max":1062,"o":"m 1062 248 l 925 0 l 538 0 l 549 46 q 688 197 631 131 q 787 329 745 263 q 855 480 833 406 q 877 674 877 555 q 866 767 877 720 q 829 849 854 814 q 760 907 804 885 q 655 928 717 928 q 492 882 565 928 q 370 737 419 835 q 313 568 330 660 q 295 398 295 476 q 320 227 295 307 q 395 46 345 146 l 385 0 l 7 0 l -16 261 l 29 261 q 40 214 33 236 q 60 168 46 192 q 91 132 73 146 q 135 118 109 118 l 292 118 l 297 144 q 236 232 269 184 q 186 316 203 279 q 153 403 165 357 q 142 505 142 448 q 180 684 142 597 q 290 840 218 771 q 456 945 359 905 q 667 985 553 985 q 936 896 832 985 q 1040 668 1040 806 q 1016 516 1040 585 q 948 387 991 447 q 845 269 905 328 q 706 144 785 210 l 701 118 l 845 118 q 937 162 888 118 q 1023 263 987 206 l 1062 248 z "},"":{"ha":1061,"x_min":31,"x_max":1034,"o":"m 1034 543 q 996 427 1034 475 q 858 342 957 378 q 730 308 794 319 q 588 290 667 297 q 626 111 588 166 q 744 56 665 56 q 864 90 812 56 q 966 191 916 124 l 1004 163 q 869 31 950 80 q 700 -19 787 -19 q 557 18 610 -19 q 477 114 503 54 l 473 114 q 394 43 431 69 q 320 4 357 18 q 253 -14 283 -9 q 191 -18 222 -18 q 75 20 118 -18 q 31 119 31 57 q 75 249 31 193 q 216 340 118 306 q 360 381 307 372 q 481 401 414 391 q 496 463 486 422 q 507 528 507 504 q 502 563 507 544 q 485 598 497 582 q 452 625 473 614 q 399 636 431 636 q 330 623 365 636 q 281 602 294 610 q 280 559 281 587 q 276 512 280 532 q 246 468 270 486 q 182 450 222 450 q 142 467 155 450 q 129 507 129 484 q 157 576 129 544 q 227 633 185 609 q 315 669 264 654 q 412 684 366 684 q 477 682 448 684 q 534 669 507 679 q 582 644 562 660 q 615 600 602 629 q 719 661 660 637 q 842 684 779 684 q 987 645 940 684 q 1034 543 1034 605 m 909 560 q 902 602 909 587 q 883 625 895 617 q 857 635 871 633 q 829 637 844 637 q 680 549 751 637 q 592 338 610 461 q 703 352 648 343 q 798 382 758 361 q 882 454 854 411 q 909 560 909 497 m 466 346 q 359 328 412 341 q 264 290 307 314 q 196 229 223 267 q 170 142 170 191 q 194 80 170 101 q 257 58 218 58 q 364 84 310 58 q 462 165 418 111 q 458 197 460 176 q 456 239 456 218 q 460 298 456 270 q 466 346 463 327 z "},"":{"ha":746,"x_min":-16,"x_max":756,"o":"m 701 418 q 673 258 701 338 q 595 117 646 178 q 469 17 543 55 q 298 -20 395 -20 q 192 1 241 -20 q 109 62 143 23 l 15 -23 l -16 7 l 83 98 q 55 167 64 130 q 45 248 45 203 q 75 416 45 338 q 155 553 105 494 q 281 648 206 612 q 444 684 356 684 q 556 663 509 684 q 636 604 603 642 l 725 685 l 756 654 l 662 568 q 691 498 681 536 q 701 418 701 460 m 555 530 q 513 608 543 578 q 429 637 484 637 q 320 600 369 637 q 236 489 271 563 q 194 353 206 427 q 181 224 181 279 q 181 205 181 215 q 182 186 182 195 l 555 530 m 503 162 q 549 294 533 220 q 565 444 565 367 q 565 463 565 452 q 564 481 564 473 l 190 137 q 233 57 201 87 q 319 27 264 27 q 426 65 379 27 q 503 162 473 103 z "},"":{"ha":665,"x_min":39,"x_max":593,"o":"m 593 893 q 566 828 593 855 q 500 800 538 800 q 435 828 463 800 q 408 893 408 855 q 435 958 408 931 q 500 985 463 985 q 566 958 538 985 q 593 893 593 931 m 559 167 q 540 105 559 138 q 488 47 522 72 q 404 3 450 19 q 292 -14 358 -14 q 107 48 175 -14 q 39 212 39 110 q 141 455 39 361 q 409 572 242 550 l 443 715 l 505 715 l 452 458 q 346 438 397 454 q 254 391 295 422 q 189 311 213 361 q 164 189 164 260 q 202 77 164 117 q 307 37 239 37 q 362 46 335 37 q 400 64 389 56 q 400 111 400 86 q 404 157 400 136 q 436 207 409 187 q 503 227 464 227 q 545 209 531 227 q 559 167 559 191 z "},"":{"ha":460,"x_min":78,"x_max":438,"o":"m 438 895 q 411 830 438 857 q 345 802 383 802 q 280 830 307 802 q 252 895 252 857 q 280 960 252 933 q 345 987 307 987 q 411 960 383 987 q 438 895 438 933 m 334 680 q 286 309 307 500 q 254 77 264 117 q 215 10 244 34 q 146 -14 186 -14 q 96 5 114 -14 q 78 54 78 24 q 81 83 78 68 q 97 138 85 99 q 175 366 128 235 q 281 680 222 496 l 334 680 z "},"":{"ha":893,"x_min":115,"x_max":806,"o":"m 806 52 l 716 52 l 716 357 l 115 357 l 115 442 l 806 442 l 806 52 z "},"":{"ha":929,"x_min":84,"x_max":1123,"o":"m 1123 1154 l 433 -85 l 388 -85 l 214 552 l 84 552 l 94 612 l 334 612 l 471 121 l 1038 1154 l 1123 1154 z "},"":{"ha":721,"x_min":-153,"x_max":758,"o":"m 732 854 q 752 825 746 842 q 758 793 758 809 q 739 742 758 764 q 686 721 720 721 q 626 752 652 721 q 579 840 599 784 q 483 766 523 831 q 415 568 442 700 l 398 486 l 578 486 l 564 424 l 391 424 q 365 285 377 351 q 336 149 353 220 q 269 -45 307 30 q 180 -168 231 -121 q 84 -229 138 -207 q -24 -250 31 -250 q -85 -242 -60 -250 q -125 -220 -111 -233 q -146 -190 -140 -205 q -153 -159 -153 -174 q -132 -109 -153 -130 q -80 -87 -112 -87 q -20 -118 -45 -87 q 25 -205 5 -150 q 119 -131 79 -198 q 189 66 159 -63 q 230 257 213 168 q 261 424 247 347 l 115 424 l 130 486 l 269 486 q 327 672 292 600 q 425 805 361 745 q 517 865 465 844 q 630 886 569 886 q 692 877 667 886 q 732 854 718 868 z "},"":{"ha":893,"x_min":119,"x_max":808,"o":"m 808 357 q 776 292 795 323 q 730 235 756 260 q 665 186 699 205 q 585 168 631 168 q 500 181 539 168 q 428 209 461 193 q 363 236 399 222 q 298 250 326 250 q 224 220 250 250 q 170 138 198 190 l 119 159 q 149 219 130 187 q 197 279 169 251 q 262 325 223 305 q 341 345 302 345 q 429 332 390 345 q 500 303 467 319 q 565 275 536 287 q 629 262 593 262 q 703 295 675 262 q 757 378 731 328 l 808 357 m 808 616 q 776 551 795 583 q 730 494 756 519 q 665 446 699 464 q 585 427 631 427 q 500 440 539 427 q 428 468 461 452 q 363 495 399 481 q 298 509 326 509 q 224 479 250 509 q 170 397 198 449 l 119 418 q 149 478 130 446 q 197 538 169 510 q 262 584 223 564 q 341 604 302 604 q 429 591 390 604 q 500 562 467 578 q 565 534 536 546 q 629 522 593 522 q 703 554 675 522 q 757 637 731 587 l 808 616 z "},"":{"ha":928,"x_min":-73,"x_max":841,"o":"m 841 34 l 833 0 l -73 0 l -64 34 l 591 976 l 644 976 l 841 34 m 675 112 l 535 791 l 71 112 l 675 112 z "},"":{"ha":807,"x_min":120,"x_max":762,"o":"m 762 603 l 517 354 l 646 104 l 607 81 l 401 307 q 391 321 397 311 q 384 346 384 331 q 394 379 384 363 q 428 412 404 395 l 734 635 l 762 603 m 498 603 l 253 354 l 382 104 l 343 81 l 138 307 q 127 321 134 311 q 120 346 120 331 q 130 379 120 363 q 164 412 140 395 l 471 635 l 498 603 z "},"":{"ha":807,"x_min":77,"x_max":719,"o":"m 719 370 q 709 337 719 353 q 675 304 699 321 l 368 81 l 341 113 l 586 362 l 456 612 l 496 635 l 701 410 q 712 395 705 405 q 719 370 719 385 m 455 370 q 445 337 455 353 q 411 304 435 321 l 104 81 l 77 113 l 322 362 l 193 612 l 232 635 l 437 410 q 448 395 441 405 q 455 370 455 385 z "},"":{"ha":1121,"x_min":90,"x_max":1015,"o":"m 1015 74 q 989 12 1015 38 q 926 -14 962 -14 q 864 12 890 -14 q 838 74 838 38 q 864 136 838 110 q 926 163 890 163 q 989 136 963 163 q 1015 74 1015 110 m 642 74 q 615 12 642 37 q 553 -14 588 -14 q 490 12 517 -14 q 464 74 464 38 q 490 136 464 110 q 553 163 516 163 q 615 136 589 163 q 642 74 642 110 m 268 74 q 241 12 268 37 q 179 -14 214 -14 q 117 12 143 -14 q 90 74 90 38 q 116 136 90 110 q 179 163 142 163 q 241 136 215 163 q 268 74 268 110 z "},"":{"ha":932,"x_min":-109,"x_max":893,"o":"m 593 391 l 533 766 l 302 391 l 593 391 m 490 0 l 500 45 q 549 51 521 47 q 593 59 577 54 q 624 73 614 66 q 635 96 635 81 q 627 163 635 102 q 604 334 618 224 l 266 334 q 218 253 243 299 q 180 182 193 206 q 156 133 168 160 q 145 98 145 106 q 181 62 145 75 q 271 45 217 48 l 261 0 l -109 0 l -98 45 q -53 53 -81 46 q -5 70 -24 59 q 40 103 18 83 q 87 163 62 123 q 345 577 205 349 q 591 976 485 805 l 646 976 l 774 142 q 787 100 778 117 q 816 68 797 83 q 852 52 829 58 q 893 45 876 45 l 883 0 l 490 0 m 727 1048 l 704 1022 q 568 1092 627 1062 q 479 1137 509 1121 q 438 1165 453 1151 q 423 1205 423 1179 q 441 1249 423 1232 q 488 1267 460 1267 q 525 1254 507 1267 q 562 1221 543 1241 q 627 1154 594 1189 q 727 1048 660 1118 z "},"":{"ha":932,"x_min":-109,"x_max":893,"o":"m 593 391 l 533 766 l 302 391 l 593 391 m 490 0 l 500 45 q 549 51 521 47 q 593 59 577 54 q 624 73 614 66 q 635 96 635 81 q 627 163 635 102 q 604 334 618 224 l 266 334 q 218 253 243 299 q 180 182 193 206 q 156 133 168 160 q 145 98 145 106 q 181 62 145 75 q 271 45 217 48 l 261 0 l -109 0 l -98 45 q -53 53 -81 46 q -5 70 -24 59 q 40 103 18 83 q 87 163 62 123 q 345 577 205 349 q 591 976 485 805 l 646 976 l 774 142 q 787 100 778 117 q 816 68 797 83 q 852 52 829 58 q 893 45 876 45 l 883 0 l 490 0 m 880 1248 q 860 1195 873 1222 q 823 1141 846 1168 q 771 1099 798 1115 q 707 1083 745 1083 q 641 1094 669 1083 q 590 1118 612 1105 q 544 1142 566 1131 q 497 1153 522 1153 q 443 1128 462 1153 q 401 1061 423 1103 l 362 1078 q 385 1130 369 1099 q 420 1183 401 1160 q 470 1225 441 1208 q 531 1242 499 1242 q 595 1231 567 1242 q 647 1207 624 1220 q 691 1183 673 1193 q 734 1173 709 1173 q 801 1195 781 1173 q 839 1263 822 1217 l 880 1248 z "},"":{"ha":1015,"x_min":68,"x_max":1002,"o":"m 1002 592 q 954 350 1002 463 q 830 155 907 236 q 651 25 751 73 q 442 -23 550 -23 q 171 86 274 -23 q 68 366 68 195 q 115 611 68 498 q 239 806 163 724 q 417 937 315 889 q 627 985 519 985 q 897 879 793 985 q 1002 592 1002 772 m 743 230 q 817 420 791 314 q 842 631 842 526 q 785 848 842 767 q 615 928 727 928 q 454 877 528 928 q 323 726 379 825 q 251 533 275 638 q 227 335 227 428 q 286 113 227 193 q 454 34 345 34 q 621 90 547 34 q 743 230 694 145 m 911 1248 q 891 1195 905 1222 q 854 1141 878 1168 q 803 1099 829 1115 q 739 1083 776 1083 q 672 1094 701 1083 q 621 1118 643 1105 q 575 1142 597 1131 q 528 1153 553 1153 q 474 1128 493 1153 q 433 1061 454 1103 l 393 1078 q 416 1130 400 1099 q 452 1183 433 1160 q 501 1225 472 1208 q 562 1242 530 1242 q 627 1231 598 1242 q 678 1207 655 1220 q 723 1183 705 1193 q 765 1173 741 1173 q 832 1195 812 1173 q 870 1263 853 1217 l 911 1248 z "},"":{"ha":1386,"x_min":68,"x_max":1419,"o":"m 1419 962 l 1366 730 l 1315 730 q 1308 784 1314 754 q 1291 840 1302 814 q 1261 884 1279 865 q 1215 907 1242 902 q 1165 911 1194 909 q 1099 912 1136 912 l 951 912 l 863 525 l 964 525 q 1042 535 1015 525 q 1092 568 1070 545 q 1131 624 1112 589 q 1158 684 1150 659 l 1209 684 l 1122 307 l 1072 307 q 1073 325 1072 315 q 1074 348 1074 336 q 1071 396 1074 373 q 1061 430 1067 419 q 1021 465 1047 456 q 951 473 994 473 l 850 473 l 783 179 q 777 145 779 163 q 774 114 774 127 q 802 63 774 73 q 911 52 831 52 q 1066 60 1025 52 q 1126 84 1107 68 q 1217 184 1165 115 q 1286 283 1269 252 l 1335 283 l 1251 0 l 469 0 q 339 17 410 0 q 209 75 268 35 q 104 193 140 122 q 68 359 68 264 q 119 601 68 488 q 269 800 170 714 q 474 920 357 877 q 715 962 591 962 l 1419 962 m 806 906 q 749 908 778 907 q 701 909 720 909 q 521 869 607 909 q 370 755 435 829 q 266 580 304 682 q 227 354 227 477 q 303 135 227 218 q 514 52 380 52 q 557 53 531 52 q 610 56 583 54 l 806 906 z "},"":{"ha":1146,"x_min":45,"x_max":1118,"o":"m 1118 543 q 1073 418 1118 469 q 942 338 1027 368 q 814 300 879 315 q 672 277 750 286 q 712 113 672 170 q 828 56 751 56 q 948 90 896 56 q 1050 191 1000 124 l 1088 163 q 953 31 1034 80 q 784 -19 871 -19 q 652 12 705 -19 q 571 95 600 43 q 448 9 513 39 q 298 -20 382 -20 q 116 52 186 -20 q 45 248 45 124 q 75 416 45 338 q 155 553 105 494 q 281 648 206 612 q 444 684 356 684 q 577 651 522 684 q 663 564 631 617 q 779 650 711 616 q 926 684 847 684 q 1071 645 1024 684 q 1118 543 1118 605 m 994 560 q 986 602 994 587 q 967 625 979 617 q 941 635 955 633 q 913 637 928 637 q 763 547 832 637 q 676 324 694 458 q 783 343 724 331 q 882 376 843 356 q 966 451 939 406 q 994 560 994 497 m 502 162 q 547 293 531 219 q 562 444 562 366 q 556 514 562 478 q 534 578 551 549 q 493 620 519 604 q 429 636 467 636 q 321 600 370 636 q 237 489 272 564 q 197 358 210 430 q 184 224 184 286 q 217 78 184 127 q 319 28 251 28 q 426 66 379 28 q 502 162 473 104 z "},"":{"ha":893,"x_min":71,"x_max":845,"o":"m 845 420 l 825 339 l 71 339 l 90 420 l 845 420 z "},"":{"ha":1190,"x_min":71,"x_max":1142,"o":"m 1142 420 l 1122 339 l 71 339 l 90 420 l 1142 420 z "},"":{"ha":536,"x_min":129,"x_max":625,"o":"m 625 993 q 565 960 593 977 q 518 927 538 943 q 480 885 495 907 q 454 827 465 863 l 484 827 q 545 806 526 827 q 564 760 564 785 q 538 697 564 727 q 470 668 513 668 q 402 694 424 668 q 380 762 380 720 q 404 861 380 817 q 463 941 427 906 q 537 998 498 975 q 604 1036 575 1020 l 625 993 m 374 993 q 314 960 342 977 q 267 927 287 943 q 229 885 244 907 q 203 827 214 863 l 233 827 q 294 806 275 827 q 313 760 313 785 q 288 697 313 727 q 219 668 262 668 q 151 694 173 668 q 129 762 129 720 q 153 861 129 817 q 212 941 176 906 q 286 998 248 975 q 353 1036 324 1020 l 374 993 z "},"":{"ha":536,"x_min":117,"x_max":612,"o":"m 612 943 q 588 841 612 887 q 529 764 564 795 q 453 706 492 729 q 388 669 414 682 l 368 712 q 425 744 398 728 q 474 778 452 759 q 512 820 496 796 q 538 878 528 844 l 509 878 q 447 899 466 878 q 429 945 429 920 q 454 1007 429 978 q 522 1037 479 1037 q 590 1011 568 1037 q 612 943 612 985 m 361 943 q 337 841 361 887 q 278 764 313 795 q 202 706 241 729 q 137 669 163 682 l 117 712 q 174 744 147 728 q 223 778 201 759 q 261 820 245 796 q 287 878 277 844 l 258 878 q 196 899 215 878 q 178 945 178 920 q 203 1007 178 978 q 271 1037 228 1037 q 339 1011 317 1037 q 361 943 361 985 z "},"":{"ha":271,"x_min":122,"x_max":367,"o":"m 367 993 q 308 960 335 977 q 260 927 280 943 q 222 885 237 907 q 197 827 208 863 l 226 827 q 287 806 269 827 q 306 760 306 785 q 281 697 306 727 q 212 668 256 668 q 144 694 166 668 q 122 762 122 720 q 146 861 122 817 q 205 941 170 906 q 279 998 241 975 q 347 1036 317 1020 l 367 993 z "},"":{"ha":271,"x_min":110,"x_max":355,"o":"m 355 943 q 330 841 355 887 q 271 764 306 795 q 196 706 235 729 q 130 669 157 682 l 110 712 q 168 744 140 728 q 216 778 195 759 q 254 820 238 796 q 280 878 271 844 l 251 878 q 190 899 208 878 q 171 945 171 920 q 196 1007 171 978 q 264 1037 221 1037 q 333 1011 311 1037 q 355 943 355 985 z "},"":{"ha":893,"x_min":115,"x_max":812,"o":"m 551 655 q 526 593 551 619 q 464 568 500 568 q 402 593 428 568 q 376 655 376 619 q 402 716 376 691 q 464 741 428 741 q 526 716 500 741 q 551 655 551 691 m 812 337 l 115 337 l 115 422 l 812 422 l 812 337 m 551 104 q 526 43 551 68 q 464 18 500 18 q 402 43 428 18 q 376 104 376 68 q 402 165 376 140 q 464 191 428 191 q 526 165 500 191 q 551 104 551 140 z "},"":{"ha":780,"x_min":61,"x_max":753,"o":"m 753 389 l 407 0 l 61 389 l 407 779 l 753 389 m 646 389 l 407 664 l 168 389 l 407 115 l 646 389 z "},"":{"ha":777,"x_min":12,"x_max":736,"o":"m 486 98 l 482 98 q 363 16 420 46 q 235 -14 307 -14 q 132 24 170 -14 q 94 123 94 62 q 97 161 94 139 q 110 228 100 184 l 163 439 q 174 493 170 470 q 178 536 178 515 q 166 587 178 574 q 115 600 153 600 q 77 594 100 600 q 41 585 54 589 l 51 629 q 144 665 104 652 q 209 677 184 677 q 289 652 263 677 q 315 579 315 628 q 313 546 315 567 q 304 504 310 525 l 243 256 q 231 203 236 228 q 227 165 227 178 q 249 94 227 120 q 313 67 271 67 q 410 92 363 67 q 498 159 457 116 l 611 666 l 728 674 l 736 664 l 620 133 q 554 -66 594 16 q 460 -200 514 -149 q 339 -277 404 -254 q 191 -301 274 -301 q 99 -293 133 -301 q 45 -271 65 -285 q 19 -240 26 -257 q 12 -206 12 -223 q 30 -155 12 -177 q 81 -132 47 -132 q 123 -146 106 -132 q 152 -178 141 -161 q 174 -219 164 -196 q 191 -256 184 -242 l 207 -256 q 289 -237 245 -256 q 368 -178 332 -218 q 437 -66 406 -134 q 486 98 468 3 m 701 925 q 678 866 701 890 q 621 842 654 842 q 565 866 588 842 q 541 925 541 890 q 565 984 541 960 q 621 1008 588 1008 q 678 984 654 1008 q 701 925 701 960 m 410 925 q 386 866 410 890 q 330 842 363 842 q 273 866 296 842 q 250 925 250 890 q 273 984 250 960 q 330 1008 296 1008 q 386 984 363 1008 q 410 925 410 960 z "},"":{"ha":854,"x_min":97,"x_max":1029,"o":"m 1029 962 l 1018 918 q 980 909 1006 917 q 939 892 954 901 q 898 867 909 876 q 850 821 886 858 q 713 662 786 753 q 562 472 641 571 q 512 402 526 429 q 486 325 498 375 l 444 138 q 441 125 442 132 q 441 114 441 119 q 447 85 441 97 q 470 66 453 74 q 520 52 485 59 q 575 45 555 45 l 565 0 l 115 0 l 125 45 q 182 50 144 46 q 238 60 220 53 q 278 88 265 70 q 297 131 292 106 l 346 342 q 350 362 348 352 q 352 374 352 372 q 346 417 352 391 q 331 472 340 443 q 282 640 308 553 q 230 802 256 726 q 204 860 217 840 q 172 895 191 881 q 137 911 158 905 q 97 918 115 916 l 108 962 l 503 962 l 492 918 q 452 916 476 917 q 408 911 427 914 q 373 901 389 909 q 358 881 358 893 q 367 837 358 868 q 395 743 376 805 q 433 621 411 688 q 482 467 455 553 q 659 685 581 587 q 764 821 736 783 q 789 859 785 850 q 793 873 793 867 q 760 906 793 897 q 676 918 726 916 l 687 962 l 1029 962 m 863 1173 q 839 1114 863 1139 q 783 1090 816 1090 q 726 1114 749 1090 q 703 1173 703 1139 q 726 1232 703 1208 q 783 1257 749 1257 q 839 1232 816 1257 q 863 1173 863 1208 m 557 1173 q 534 1114 557 1139 q 477 1090 511 1090 q 421 1114 444 1090 q 397 1173 397 1139 q 421 1232 397 1208 q 477 1257 444 1257 q 534 1232 511 1257 q 557 1173 557 1208 z "},"":{"ha":199,"x_min":-271,"x_max":531,"o":"m 531 962 l -179 0 l -271 0 l 438 962 l 531 962 z "},"":{"ha":892,"x_min":-3,"x_max":968,"o":"m 968 962 l 895 619 l 839 619 l 839 646 q 830 752 839 702 q 796 844 821 803 q 731 906 772 883 q 624 930 690 930 q 474 885 541 930 q 355 767 407 841 q 312 692 332 735 q 277 608 291 649 l 569 608 l 530 543 l 258 543 q 245 482 250 513 q 237 425 239 451 l 458 425 l 418 359 l 235 359 q 303 133 239 215 q 490 52 368 52 q 673 111 589 52 q 810 269 757 170 l 859 243 q 668 37 773 97 q 428 -22 563 -22 q 291 2 358 -22 q 176 79 223 27 q 103 199 132 128 q 75 359 75 271 l -3 359 l 37 425 l 77 425 q 86 482 80 450 q 100 543 92 514 l 17 543 l 56 608 l 124 608 q 176 707 145 657 q 243 799 207 758 q 414 934 316 883 q 624 985 512 985 q 771 965 709 985 q 876 916 834 945 l 913 962 l 968 962 z "},"":{"ha":576,"x_min":123,"x_max":500,"o":"m 500 603 l 256 354 l 385 104 l 346 81 l 140 307 q 130 321 136 311 q 123 346 123 331 q 133 379 123 363 q 167 412 142 395 l 473 635 l 500 603 z "},"":{"ha":576,"x_min":80,"x_max":458,"o":"m 458 370 q 448 337 458 353 q 414 304 438 321 l 107 81 l 80 113 l 325 362 l 195 612 l 235 635 l 440 410 q 451 395 444 405 q 458 370 458 385 z "},"":{"ha":810,"x_min":-245,"x_max":797,"o":"m 336 601 l 216 41 q 81 -203 184 -106 q -129 -301 -22 -301 q -217 -278 -189 -301 q -245 -221 -245 -256 q -228 -170 -245 -192 q -176 -147 -210 -147 q -139 -157 -155 -147 q -111 -180 -123 -166 q -90 -212 -102 -192 q -69 -245 -78 -231 q 20 -175 -17 -241 q 84 15 57 -109 l 209 601 l 77 601 l 91 663 l 222 663 l 227 685 q 282 839 248 777 q 389 962 317 901 q 489 1021 425 992 q 625 1050 554 1050 q 756 1022 715 1050 q 797 947 797 994 q 781 899 797 924 q 733 874 764 874 q 685 885 703 874 q 655 914 667 896 q 637 956 644 932 q 625 998 631 979 l 604 998 q 533 987 564 998 q 465 941 503 977 q 406 857 432 909 q 362 725 380 804 l 349 663 l 570 663 l 741 674 l 748 664 l 644 226 q 633 175 638 201 q 627 132 627 149 q 645 79 627 94 q 701 65 662 65 q 738 68 713 65 q 774 77 762 72 l 764 33 q 665 -2 702 8 q 601 -12 627 -12 q 519 17 547 -12 q 492 86 492 45 q 495 118 492 102 q 504 161 498 134 l 593 539 q 596 555 595 549 q 597 569 597 562 q 594 585 597 578 q 588 601 592 592 l 336 601 z "},"":{"ha":837,"x_min":-245,"x_max":848,"o":"m 336 601 l 216 41 q 82 -205 184 -110 q -129 -301 -20 -301 q -217 -278 -189 -301 q -245 -221 -245 -256 q -227 -170 -245 -192 q -176 -147 -210 -147 q -139 -157 -155 -147 q -111 -180 -123 -166 q -90 -212 -102 -192 q -69 -245 -78 -231 q 20 -175 -17 -241 q 84 15 57 -109 l 209 601 l 77 601 l 91 663 l 221 663 l 225 682 q 280 836 245 772 q 389 962 315 899 q 492 1022 425 993 q 627 1050 559 1050 q 715 1043 675 1050 q 779 1024 755 1036 l 841 1050 l 848 1040 l 659 223 q 647 172 652 197 q 642 130 642 146 q 659 77 642 91 q 715 62 676 62 q 755 66 728 62 q 795 74 782 69 l 785 31 q 691 -4 724 6 q 617 -14 659 -14 q 535 14 563 -14 q 507 83 507 42 q 509 116 507 100 q 518 159 512 132 l 690 905 q 694 923 693 916 q 696 936 696 930 q 672 984 696 966 q 610 1001 648 1001 q 535 988 570 1001 q 465 939 500 975 q 404 850 431 907 q 358 710 376 793 l 348 663 l 519 663 l 505 601 l 336 601 z "},"":{"ha":656,"x_min":79,"x_max":669,"o":"m 596 405 q 582 368 596 380 q 545 357 568 357 q 477 371 526 357 q 353 393 427 385 q 342 270 344 340 q 335 182 340 200 q 318 153 331 163 q 286 142 304 142 q 251 154 264 142 q 237 189 237 166 q 263 262 237 208 q 317 392 290 317 q 195 370 246 382 q 130 357 144 357 q 94 368 108 357 q 79 405 79 379 q 94 440 79 428 q 130 453 108 453 q 200 440 146 453 q 324 420 254 427 q 330 488 330 456 q 336 553 331 519 l 341 575 q 366 643 349 608 q 390 709 382 679 q 273 689 324 702 q 203 676 221 676 q 167 688 181 676 q 153 724 153 701 q 167 761 153 749 q 203 772 181 772 q 261 761 220 772 q 396 736 302 749 q 408 859 404 791 q 415 947 411 927 q 432 975 418 963 q 464 987 445 987 q 499 975 486 987 q 513 940 513 962 q 486 865 513 919 q 432 737 459 812 q 552 759 503 745 q 618 772 602 772 q 655 761 641 772 q 669 724 669 750 q 655 689 669 701 q 618 676 641 676 q 544 690 599 676 q 425 709 489 704 q 419 642 418 672 q 413 575 419 611 l 408 553 q 382 486 396 517 q 358 419 369 454 q 478 440 430 427 q 545 453 526 453 q 582 441 568 453 q 596 405 596 429 z "},"":{"ha":388,"x_min":108,"x_max":294,"o":"m 294 379 q 266 314 294 341 q 201 288 239 288 q 135 314 163 288 q 108 379 108 341 q 135 445 108 417 q 201 472 163 472 q 266 445 239 472 q 294 379 294 417 z "},"":{"ha":271,"x_min":-61,"x_max":184,"o":"m 184 67 q 159 -35 184 11 q 100 -113 135 -81 q 25 -171 64 -147 q -41 -207 -14 -194 l -61 -164 q -3 -133 -31 -148 q 45 -98 24 -117 q 83 -56 67 -80 q 109 1 100 -33 l 80 1 q 19 22 37 1 q 0 69 0 43 q 25 131 0 102 q 94 161 50 161 q 162 135 140 161 q 184 67 184 109 z "},"":{"ha":536,"x_min":-54,"x_max":441,"o":"m 441 67 q 417 -35 441 11 q 358 -113 393 -81 q 282 -171 321 -147 q 217 -207 243 -194 l 197 -164 q 254 -133 227 -148 q 303 -98 281 -117 q 341 -56 325 -80 q 367 1 357 -33 l 338 1 q 276 22 295 1 q 258 69 258 43 q 283 131 258 102 q 351 161 308 161 q 419 135 397 161 q 441 67 441 109 m 191 67 q 166 -35 191 11 q 107 -113 142 -81 q 32 -171 71 -147 q -34 -207 -7 -194 l -54 -164 q 3 -133 -24 -148 q 52 -98 31 -117 q 90 -56 74 -80 q 116 1 106 -33 l 87 1 q 25 22 44 1 q 7 69 7 43 q 32 131 7 102 q 100 161 57 161 q 169 135 146 161 q 191 67 191 109 z "},"":{"ha":1705,"x_min":50,"x_max":1620,"o":"m 600 795 q 519 574 600 665 q 315 484 439 484 q 176 534 226 484 q 126 673 126 585 q 146 789 126 733 q 202 887 167 844 q 292 958 239 931 q 412 985 345 985 q 550 934 501 985 q 600 795 600 882 m 488 812 q 468 903 488 867 q 402 940 447 940 q 285 858 331 940 q 239 655 239 775 q 259 566 239 602 q 326 529 279 529 q 440 612 393 529 q 488 812 488 694 m 1057 290 q 977 70 1057 160 q 773 -21 897 -21 q 634 30 684 -21 q 584 168 584 80 q 604 284 584 229 q 660 382 625 340 q 750 454 696 427 q 869 481 803 481 q 1008 429 959 481 q 1057 290 1057 378 m 946 307 q 925 399 946 362 q 860 435 905 435 q 743 353 789 435 q 696 151 696 271 q 717 61 696 98 q 783 24 737 24 q 898 107 850 24 q 946 307 946 190 m 1137 966 l 148 0 l 50 0 l 1037 966 l 1137 966 m 1620 290 q 1540 70 1620 160 q 1336 -21 1460 -21 q 1197 30 1246 -21 q 1147 168 1147 80 q 1167 284 1147 229 q 1223 382 1187 340 q 1313 454 1259 427 q 1432 481 1366 481 q 1571 429 1522 481 q 1620 290 1620 378 m 1509 307 q 1488 399 1509 362 q 1423 435 1468 435 q 1305 353 1352 435 q 1259 151 1259 271 q 1280 61 1259 98 q 1346 24 1300 24 q 1461 107 1413 24 q 1509 307 1509 190 z "},"":{"ha":932,"x_min":-109,"x_max":893,"o":"m 593 391 l 533 766 l 302 391 l 593 391 m 490 0 l 500 45 q 549 51 521 47 q 593 59 577 54 q 624 73 614 66 q 635 96 635 81 q 627 163 635 102 q 604 334 618 224 l 266 334 q 218 253 243 299 q 180 182 193 206 q 156 133 168 160 q 145 98 145 106 q 181 62 145 75 q 271 45 217 48 l 261 0 l -109 0 l -98 45 q -53 53 -81 46 q -5 70 -24 59 q 40 103 18 83 q 87 163 62 123 q 345 577 205 349 q 591 976 485 805 l 646 976 l 774 142 q 787 100 778 117 q 816 68 797 83 q 852 52 829 58 q 893 45 876 45 l 883 0 l 490 0 m 822 1044 l 789 1022 l 630 1166 l 413 1022 l 381 1044 l 578 1236 q 605 1258 591 1249 q 646 1267 620 1267 q 685 1258 675 1267 q 700 1239 694 1249 l 822 1044 z "},"":{"ha":907,"x_min":-25,"x_max":941,"o":"m 941 962 l 888 730 l 837 730 q 807 851 833 802 q 736 907 781 900 q 687 911 716 909 q 621 912 658 912 l 467 912 l 378 525 l 486 525 q 564 535 536 525 q 614 568 592 545 q 653 624 634 588 q 680 684 672 659 l 731 684 l 644 307 l 594 307 q 595 325 594 315 q 596 348 596 336 q 593 396 596 373 q 583 430 589 419 q 543 465 569 456 q 473 473 516 473 l 365 473 l 298 179 q 291 144 294 163 q 288 114 288 125 q 315 64 288 77 q 433 52 342 52 q 588 60 547 52 q 648 84 629 68 q 739 184 687 115 q 808 283 791 252 l 857 283 l 774 0 l -25 0 l -15 45 q 41 51 6 46 q 87 60 75 55 q 124 86 111 68 q 141 127 136 104 l 302 826 q 305 838 304 831 q 306 851 306 845 q 300 876 306 865 q 279 894 294 886 q 233 909 263 903 q 186 918 203 916 l 197 962 l 941 962 m 820 1044 l 787 1022 l 628 1166 l 411 1022 l 379 1044 l 576 1236 q 603 1258 589 1249 q 644 1267 618 1267 q 683 1258 673 1267 q 698 1239 692 1249 l 820 1044 z "},"":{"ha":932,"x_min":-109,"x_max":893,"o":"m 593 391 l 533 766 l 302 391 l 593 391 m 490 0 l 500 45 q 549 51 521 47 q 593 59 577 54 q 624 73 614 66 q 635 96 635 81 q 627 163 635 102 q 604 334 618 224 l 266 334 q 218 253 243 299 q 180 182 193 206 q 156 133 168 160 q 145 98 145 106 q 181 62 145 75 q 271 45 217 48 l 261 0 l -109 0 l -98 45 q -53 53 -81 46 q -5 70 -24 59 q 40 103 18 83 q 87 163 62 123 q 345 577 205 349 q 591 976 485 805 l 646 976 l 774 142 q 787 100 778 117 q 816 68 797 83 q 852 52 829 58 q 893 45 876 45 l 883 0 l 490 0 m 839 1218 q 820 1169 839 1187 q 770 1135 801 1150 q 673 1091 739 1120 q 525 1022 608 1061 l 507 1048 q 616 1147 576 1110 q 698 1227 655 1184 q 743 1260 724 1253 q 782 1267 763 1267 q 823 1253 806 1267 q 839 1218 839 1239 z "},"":{"ha":907,"x_min":-25,"x_max":941,"o":"m 941 962 l 888 730 l 837 730 q 807 851 833 802 q 736 907 781 900 q 687 911 716 909 q 621 912 658 912 l 467 912 l 378 525 l 486 525 q 564 535 536 525 q 614 568 592 545 q 653 624 634 588 q 680 684 672 659 l 731 684 l 644 307 l 594 307 q 595 325 594 315 q 596 348 596 336 q 593 396 596 373 q 583 430 589 419 q 543 465 569 456 q 473 473 516 473 l 365 473 l 298 179 q 291 144 294 163 q 288 114 288 125 q 315 64 288 77 q 433 52 342 52 q 588 60 547 52 q 648 84 629 68 q 739 184 687 115 q 808 283 791 252 l 857 283 l 774 0 l -25 0 l -15 45 q 41 51 6 46 q 87 60 75 55 q 124 86 111 68 q 141 127 136 104 l 302 826 q 305 838 304 831 q 306 851 306 845 q 300 876 306 865 q 279 894 294 886 q 233 909 263 903 q 186 918 203 916 l 197 962 l 941 962 m 831 1173 q 808 1114 831 1139 q 751 1090 785 1090 q 695 1114 718 1090 q 671 1173 671 1139 q 695 1232 671 1208 q 751 1257 718 1257 q 808 1232 785 1257 q 831 1173 831 1208 m 526 1173 q 503 1114 526 1139 q 446 1090 479 1090 q 390 1114 413 1090 q 366 1173 366 1139 q 390 1232 366 1208 q 446 1257 413 1257 q 503 1232 479 1257 q 526 1173 526 1208 z "},"":{"ha":907,"x_min":-25,"x_max":941,"o":"m 941 962 l 888 730 l 837 730 q 807 851 833 802 q 736 907 781 900 q 687 911 716 909 q 621 912 658 912 l 467 912 l 378 525 l 486 525 q 564 535 536 525 q 614 568 592 545 q 653 624 634 588 q 680 684 672 659 l 731 684 l 644 307 l 594 307 q 595 325 594 315 q 596 348 596 336 q 593 396 596 373 q 583 430 589 419 q 543 465 569 456 q 473 473 516 473 l 365 473 l 298 179 q 291 144 294 163 q 288 114 288 125 q 315 64 288 77 q 433 52 342 52 q 588 60 547 52 q 648 84 629 68 q 739 184 687 115 q 808 283 791 252 l 857 283 l 774 0 l -25 0 l -15 45 q 41 51 6 46 q 87 60 75 55 q 124 86 111 68 q 141 127 136 104 l 302 826 q 305 838 304 831 q 306 851 306 845 q 300 876 306 865 q 279 894 294 886 q 233 909 263 903 q 186 918 203 916 l 197 962 l 941 962 m 700 1048 l 677 1022 q 541 1092 600 1062 q 452 1137 481 1121 q 411 1165 426 1151 q 396 1205 396 1179 q 414 1249 396 1232 q 461 1267 433 1267 q 497 1254 479 1267 q 535 1221 515 1241 q 600 1154 567 1189 q 700 1048 633 1118 z "},"":{"ha":541,"x_min":-30,"x_max":625,"o":"m 625 962 l 615 918 q 560 911 594 917 q 510 901 526 906 q 469 874 481 892 q 452 834 457 856 l 289 131 q 287 120 288 126 q 286 109 286 114 q 293 83 286 94 q 317 64 300 72 q 362 53 328 59 q 414 45 397 46 l 404 0 l -30 0 l -20 45 q 35 49 -1 46 q 85 57 70 52 q 125 83 111 66 q 143 123 138 100 l 305 827 q 307 840 307 833 q 308 852 308 846 q 302 876 308 865 q 278 894 296 886 q 228 909 260 902 q 182 918 197 916 l 192 962 l 625 962 m 622 1218 q 603 1169 622 1187 q 553 1135 584 1150 q 456 1091 522 1120 q 308 1022 391 1061 l 290 1048 q 399 1147 359 1110 q 481 1227 438 1184 q 526 1260 507 1253 q 565 1267 546 1267 q 606 1253 589 1267 q 622 1218 622 1239 z "},"":{"ha":541,"x_min":-30,"x_max":641,"o":"m 625 962 l 615 918 q 560 911 594 917 q 510 901 526 906 q 469 874 481 892 q 452 834 457 856 l 289 131 q 287 120 288 126 q 286 109 286 114 q 293 83 286 94 q 317 64 300 72 q 362 53 328 59 q 414 45 397 46 l 404 0 l -30 0 l -20 45 q 35 49 -1 46 q 85 57 70 52 q 125 83 111 66 q 143 123 138 100 l 305 827 q 307 840 307 833 q 308 852 308 846 q 302 876 308 865 q 278 894 296 886 q 228 909 260 902 q 182 918 197 916 l 192 962 l 625 962 m 641 1044 l 608 1022 l 449 1166 l 232 1022 l 200 1044 l 397 1236 q 424 1258 410 1249 q 465 1267 439 1267 q 504 1258 494 1267 q 519 1239 513 1249 l 641 1044 z "},"":{"ha":541,"x_min":-30,"x_max":663,"o":"m 625 962 l 615 918 q 560 911 594 917 q 510 901 526 906 q 469 874 481 892 q 452 834 457 856 l 289 131 q 287 120 288 126 q 286 109 286 114 q 293 83 286 94 q 317 64 300 72 q 362 53 328 59 q 414 45 397 46 l 404 0 l -30 0 l -20 45 q 35 49 -1 46 q 85 57 70 52 q 125 83 111 66 q 143 123 138 100 l 305 827 q 307 840 307 833 q 308 852 308 846 q 302 876 308 865 q 278 894 296 886 q 228 909 260 902 q 182 918 197 916 l 192 962 l 625 962 m 663 1173 q 640 1114 663 1139 q 583 1090 616 1090 q 527 1114 550 1090 q 503 1173 503 1139 q 527 1232 503 1208 q 583 1257 550 1257 q 640 1232 616 1257 q 663 1173 663 1208 m 372 1173 q 348 1114 372 1139 q 292 1090 325 1090 q 235 1114 258 1090 q 212 1173 212 1139 q 235 1232 212 1208 q 292 1257 258 1257 q 348 1232 325 1257 q 372 1173 372 1208 z "},"":{"ha":541,"x_min":-30,"x_max":625,"o":"m 625 962 l 615 918 q 560 911 594 917 q 510 901 526 906 q 469 874 481 892 q 452 834 457 856 l 289 131 q 287 120 288 126 q 286 109 286 114 q 293 83 286 94 q 317 64 300 72 q 362 53 328 59 q 414 45 397 46 l 404 0 l -30 0 l -20 45 q 35 49 -1 46 q 85 57 70 52 q 125 83 111 66 q 143 123 138 100 l 305 827 q 307 840 307 833 q 308 852 308 846 q 302 876 308 865 q 278 894 296 886 q 228 909 260 902 q 182 918 197 916 l 192 962 l 625 962 m 571 1048 l 548 1022 q 412 1092 471 1062 q 323 1137 353 1121 q 282 1165 297 1151 q 267 1205 267 1179 q 286 1249 267 1232 q 332 1267 304 1267 q 369 1254 351 1267 q 406 1221 387 1241 q 471 1154 438 1189 q 571 1048 504 1118 z "},"":{"ha":1034,"x_min":68,"x_max":1002,"o":"m 1002 592 q 954 350 1002 463 q 830 155 907 236 q 651 25 751 73 q 442 -23 550 -23 q 171 86 274 -23 q 68 366 68 195 q 115 611 68 498 q 239 806 163 724 q 417 937 315 889 q 627 985 519 985 q 897 879 793 985 q 1002 592 1002 772 m 743 230 q 817 420 791 314 q 842 631 842 526 q 785 848 842 767 q 615 928 727 928 q 454 877 528 928 q 323 726 379 825 q 251 533 275 638 q 227 335 227 428 q 286 113 227 193 q 454 34 345 34 q 621 90 547 34 q 743 230 694 145 m 812 1218 q 793 1169 812 1187 q 743 1135 774 1150 q 646 1091 711 1120 q 498 1022 581 1061 l 479 1048 q 589 1147 549 1110 q 671 1227 628 1184 q 716 1260 696 1253 q 755 1267 736 1267 q 795 1253 779 1267 q 812 1218 812 1239 z "},"":{"ha":1015,"x_min":68,"x_max":1002,"o":"m 1002 592 q 954 350 1002 463 q 830 155 907 236 q 651 25 751 73 q 442 -23 550 -23 q 171 86 274 -23 q 68 366 68 195 q 115 611 68 498 q 239 806 163 724 q 417 937 315 889 q 627 985 519 985 q 897 879 793 985 q 1002 592 1002 772 m 743 230 q 817 420 791 314 q 842 631 842 526 q 785 848 842 767 q 615 928 727 928 q 454 877 528 928 q 323 726 379 825 q 251 533 275 638 q 227 335 227 428 q 286 113 227 193 q 454 34 345 34 q 621 90 547 34 q 743 230 694 145 m 847 1044 l 814 1022 l 655 1166 l 438 1022 l 406 1044 l 603 1236 q 630 1258 616 1249 q 671 1267 645 1267 q 710 1258 700 1267 q 725 1239 720 1249 l 847 1044 z "},"":{"ha":1015,"x_min":68,"x_max":1002,"o":"m 1002 592 q 954 350 1002 463 q 830 155 907 236 q 651 25 751 73 q 442 -23 550 -23 q 171 86 274 -23 q 68 366 68 195 q 115 611 68 498 q 239 806 163 724 q 417 937 315 889 q 627 985 519 985 q 897 879 793 985 q 1002 592 1002 772 m 743 230 q 817 420 791 314 q 842 631 842 526 q 785 848 842 767 q 615 928 727 928 q 454 877 528 928 q 323 726 379 825 q 251 533 275 638 q 227 335 227 428 q 286 113 227 193 q 454 34 345 34 q 621 90 547 34 q 743 230 694 145 m 774 1048 l 751 1022 q 615 1092 675 1062 q 527 1137 556 1121 q 486 1165 500 1151 q 471 1205 471 1179 q 489 1249 471 1232 q 536 1267 507 1267 q 572 1254 554 1267 q 610 1221 590 1241 q 674 1154 642 1189 q 774 1048 707 1118 z "},"":{"ha":1050,"x_min":144,"x_max":1178,"o":"m 447 -23 q 224 37 304 -23 q 144 198 144 98 q 145 225 144 212 q 151 254 147 237 l 283 826 q 285 838 284 831 q 286 849 286 844 q 279 874 286 863 q 260 895 273 886 q 220 910 245 905 q 178 918 195 916 l 189 962 l 589 962 l 578 918 q 529 911 559 917 q 484 901 499 906 q 446 873 458 892 q 429 833 435 854 l 306 298 q 299 258 302 280 q 296 216 296 237 q 303 155 296 181 q 336 102 311 129 q 394 65 357 79 q 489 50 432 50 q 621 74 566 50 q 713 134 676 98 q 769 211 747 169 q 800 292 791 253 q 846 482 825 389 q 890 684 867 574 q 906 772 902 739 q 911 828 911 806 q 907 860 911 848 q 892 880 903 871 q 833 906 873 897 q 774 918 794 916 l 785 962 l 1178 962 l 1167 918 q 1109 909 1149 917 q 1046 887 1070 901 q 997 815 1018 871 q 962 700 975 760 q 919 504 941 603 q 868 290 897 406 q 797 135 844 196 q 689 39 749 73 q 570 -9 631 5 q 447 -23 508 -23 m 880 1218 q 861 1169 880 1187 q 810 1135 842 1150 q 714 1091 779 1120 q 566 1022 649 1061 l 547 1048 q 656 1147 617 1110 q 739 1227 696 1184 q 784 1260 764 1253 q 823 1267 804 1267 q 863 1253 847 1267 q 880 1218 880 1239 z "},"":{"ha":1050,"x_min":144,"x_max":1178,"o":"m 447 -23 q 224 37 304 -23 q 144 198 144 98 q 145 225 144 212 q 151 254 147 237 l 283 826 q 285 838 284 831 q 286 849 286 844 q 279 874 286 863 q 260 895 273 886 q 220 910 245 905 q 178 918 195 916 l 189 962 l 589 962 l 578 918 q 529 911 559 917 q 484 901 499 906 q 446 873 458 892 q 429 833 435 854 l 306 298 q 299 258 302 280 q 296 216 296 237 q 303 155 296 181 q 336 102 311 129 q 394 65 357 79 q 489 50 432 50 q 621 74 566 50 q 713 134 676 98 q 769 211 747 169 q 800 292 791 253 q 846 482 825 389 q 890 684 867 574 q 906 772 902 739 q 911 828 911 806 q 907 860 911 848 q 892 880 903 871 q 833 906 873 897 q 774 918 794 916 l 785 962 l 1178 962 l 1167 918 q 1109 909 1149 917 q 1046 887 1070 901 q 997 815 1018 871 q 962 700 975 760 q 919 504 941 603 q 868 290 897 406 q 797 135 844 196 q 689 39 749 73 q 570 -9 631 5 q 447 -23 508 -23 m 907 1044 l 874 1022 l 715 1166 l 498 1022 l 467 1044 l 663 1236 q 691 1258 676 1249 q 732 1267 705 1267 q 770 1258 760 1267 q 785 1239 780 1249 l 907 1044 z "},"":{"ha":1050,"x_min":144,"x_max":1178,"o":"m 447 -23 q 224 37 304 -23 q 144 198 144 98 q 145 225 144 212 q 151 254 147 237 l 283 826 q 285 838 284 831 q 286 849 286 844 q 279 874 286 863 q 260 895 273 886 q 220 910 245 905 q 178 918 195 916 l 189 962 l 589 962 l 578 918 q 529 911 559 917 q 484 901 499 906 q 446 873 458 892 q 429 833 435 854 l 306 298 q 299 258 302 280 q 296 216 296 237 q 303 155 296 181 q 336 102 311 129 q 394 65 357 79 q 489 50 432 50 q 621 74 566 50 q 713 134 676 98 q 769 211 747 169 q 800 292 791 253 q 846 482 825 389 q 890 684 867 574 q 906 772 902 739 q 911 828 911 806 q 907 860 911 848 q 892 880 903 871 q 833 906 873 897 q 774 918 794 916 l 785 962 l 1178 962 l 1167 918 q 1109 909 1149 917 q 1046 887 1070 901 q 997 815 1018 871 q 962 700 975 760 q 919 504 941 603 q 868 290 897 406 q 797 135 844 196 q 689 39 749 73 q 570 -9 631 5 q 447 -23 508 -23 m 801 1048 l 778 1022 q 642 1092 701 1062 q 553 1137 583 1121 q 512 1165 527 1151 q 497 1205 497 1179 q 515 1249 497 1232 q 562 1267 534 1267 q 598 1254 581 1267 q 636 1221 616 1241 q 701 1154 668 1189 q 801 1048 734 1118 z "},"":{"ha":413,"x_min":50,"x_max":374,"o":"m 374 74 l 363 31 q 264 -4 301 5 q 200 -14 227 -14 q 119 14 146 -14 q 92 83 92 42 q 94 116 92 99 q 103 159 97 133 l 175 447 q 185 498 180 471 q 191 544 191 525 q 178 594 191 582 q 127 607 165 607 q 87 602 112 607 q 50 594 62 597 l 60 637 q 155 673 113 661 q 221 684 197 684 q 302 658 277 684 q 327 587 327 631 q 324 553 327 574 q 316 511 321 532 l 243 223 q 232 171 237 197 q 227 130 227 146 q 244 77 227 91 q 300 62 261 62 q 337 66 313 62 q 374 74 361 69 z "},"":{"ha":694,"x_min":243,"x_max":684,"o":"m 684 780 l 651 758 l 499 943 l 275 758 l 243 780 l 449 1015 q 475 1038 462 1031 q 515 1046 488 1046 q 551 1039 541 1046 q 568 1018 561 1031 l 684 780 z "},"":{"ha":694,"x_min":225,"x_max":743,"o":"m 743 998 q 723 945 736 972 q 686 892 709 918 q 634 849 661 865 q 570 833 608 833 q 504 845 532 833 q 453 868 475 856 q 407 892 429 882 q 360 903 385 903 q 306 879 325 903 q 264 811 286 854 l 225 828 q 248 880 232 850 q 283 934 264 911 q 333 976 304 958 q 394 993 362 993 q 458 982 430 993 q 510 958 487 970 q 554 933 536 943 q 597 923 572 923 q 664 945 644 923 q 702 1014 685 967 l 743 998 z "},"":{"ha":694,"x_min":241,"x_max":725,"o":"m 725 962 l 706 879 l 241 879 l 260 962 l 725 962 z "},"":{"ha":694,"x_min":271,"x_max":696,"o":"m 696 1014 q 594 827 656 890 q 440 764 532 764 q 313 823 354 764 q 271 992 271 881 q 272 1003 271 997 q 272 1014 272 1008 l 307 1022 q 319 960 312 987 q 343 911 326 934 q 385 878 359 890 q 455 866 410 866 q 574 904 528 866 q 657 1022 621 943 l 696 1014 z "},"":{"ha":694,"x_min":396,"x_max":570,"o":"m 570 941 q 544 874 570 902 q 481 846 519 846 q 421 872 447 846 q 396 935 396 899 q 421 999 396 972 q 481 1026 447 1026 q 545 1001 520 1026 q 570 941 570 975 z "},"":{"ha":795,"x_min":305,"x_max":659,"o":"m 659 931 q 603 807 659 858 q 457 755 547 755 q 346 789 387 755 q 305 879 305 823 q 363 1005 305 953 q 509 1057 422 1057 q 618 1022 576 1057 q 659 931 659 987 m 574 931 q 556 992 574 966 q 501 1017 538 1017 q 421 976 452 1017 q 391 881 391 935 q 409 820 391 844 q 465 795 427 795 q 544 836 515 795 q 574 931 574 876 z "},"":{"ha":694,"x_min":158,"x_max":454,"o":"m 454 -153 q 428 -228 454 -197 q 362 -273 403 -258 q 273 -295 324 -288 q 158 -301 222 -301 l 168 -252 q 232 -251 197 -252 q 291 -244 267 -250 q 335 -225 319 -237 q 351 -186 351 -212 q 328 -152 351 -164 q 247 -140 304 -140 l 278 12 l 331 12 l 314 -67 q 418 -91 383 -67 q 454 -153 454 -115 z "},"":{"ha":694,"x_min":234,"x_max":751,"o":"m 751 994 q 738 951 751 969 q 701 913 725 932 q 614 844 667 886 q 498 753 561 802 l 475 772 q 559 891 526 843 q 618 981 592 940 q 657 1029 640 1016 q 699 1043 675 1043 q 736 1028 722 1043 q 751 994 751 1013 m 498 995 q 487 951 498 968 q 452 913 476 935 q 379 853 425 892 q 258 753 333 814 l 234 772 q 315 894 283 843 q 368 981 347 945 q 406 1029 388 1016 q 448 1043 423 1043 q 484 1028 469 1043 q 498 995 498 1013 z "},"":{"ha":694,"x_min":203,"x_max":450,"o":"m 450 -252 l 441 -301 l 363 -301 q 244 -273 285 -301 q 203 -194 203 -244 q 253 -82 203 -138 q 400 26 302 -25 l 441 26 q 374 -32 398 -3 q 335 -86 349 -60 q 317 -137 321 -112 q 313 -174 313 -161 q 341 -232 313 -212 q 450 -252 370 -252 z "},"":{"ha":694,"x_min":262,"x_max":703,"o":"m 703 1024 l 498 789 q 473 764 481 770 q 432 758 465 758 q 396 765 406 758 q 379 786 387 772 l 262 1024 l 296 1046 l 448 861 l 671 1046 l 703 1024 z "},"":{"ha":838,"x_min":-17,"x_max":821,"o":"m 821 286 l 735 0 l -17 0 l -7 45 q 41 50 10 46 q 87 58 73 53 q 124 86 111 68 q 141 127 136 104 l 210 425 l 94 375 l 83 436 l 226 495 l 302 823 q 304 836 303 829 q 305 848 305 842 q 299 873 305 862 q 279 892 294 884 q 239 908 265 901 q 195 918 213 916 l 205 962 l 611 962 l 601 918 q 556 912 585 917 q 504 900 526 907 q 465 871 477 891 q 448 830 453 852 l 384 555 l 577 637 l 588 576 l 368 486 l 297 177 q 289 135 292 153 q 286 106 286 117 q 316 59 286 68 q 426 50 346 50 q 528 57 471 50 q 608 85 585 65 q 695 180 642 116 q 773 286 747 244 l 821 286 z "},"":{"ha":396,"x_min":37,"x_max":407,"o":"m 275 470 l 218 223 q 206 172 212 197 q 201 130 201 147 q 218 77 201 91 q 274 62 235 62 q 314 66 288 62 q 355 74 341 69 l 345 31 q 251 -4 283 6 q 176 -14 218 -14 q 94 14 122 -14 q 66 83 66 42 q 69 116 66 99 q 77 159 72 133 l 137 416 l 47 378 l 37 434 l 152 482 l 242 873 q 249 902 247 894 q 250 922 250 910 q 242 960 250 947 q 219 980 234 973 q 183 988 205 986 q 139 993 161 990 l 149 1034 l 400 1050 l 407 1040 l 290 536 l 395 581 l 405 524 l 275 470 z "},"":{"ha":779,"x_min":-6,"x_max":813,"o":"m 334 -20 q 188 1 251 -20 q 87 49 125 22 l 48 -1 l -6 -1 l 60 329 l 115 329 q 131 218 119 270 q 172 125 144 167 q 246 59 201 83 q 359 36 292 36 q 521 92 460 36 q 582 245 582 148 q 556 338 582 297 q 479 401 530 378 q 382 438 430 422 q 288 477 334 455 q 190 561 227 507 q 153 684 153 616 q 181 804 153 749 q 258 899 210 859 q 369 961 304 938 q 499 984 435 984 q 613 970 559 984 q 722 916 667 956 l 759 962 l 813 962 l 745 643 l 690 643 q 679 751 688 695 q 650 843 671 806 q 588 906 628 883 q 481 928 548 928 q 347 873 401 928 q 293 742 293 818 q 313 657 293 692 q 375 600 333 622 q 469 561 420 577 q 557 526 518 544 q 679 437 635 489 q 722 311 722 386 q 691 177 722 239 q 608 73 660 115 q 485 4 553 28 q 334 -20 416 -20 m 772 1246 l 576 1053 q 550 1030 559 1038 q 507 1023 541 1023 q 470 1031 479 1023 q 454 1050 460 1040 l 332 1246 l 365 1267 l 524 1124 l 741 1267 l 772 1246 z "},"":{"ha":599,"x_min":12,"x_max":639,"o":"m 245 -20 q 78 16 145 -20 q 12 109 12 52 q 31 160 12 136 q 79 184 51 184 q 123 171 106 184 q 149 142 140 159 q 167 100 159 124 q 180 60 175 75 q 209 38 191 48 q 260 28 227 28 q 371 65 334 28 q 409 164 409 102 q 374 238 409 210 q 269 288 338 265 q 210 313 243 296 q 155 349 176 330 q 116 400 131 370 q 101 471 101 430 q 179 621 101 557 q 370 684 256 684 q 427 682 396 684 q 494 667 457 679 q 548 634 526 656 q 570 579 570 613 q 552 529 570 551 q 503 506 533 506 q 461 517 477 506 q 434 546 445 528 q 416 585 423 564 q 401 627 410 606 q 378 634 389 632 q 351 636 368 636 q 251 601 285 636 q 216 516 216 565 q 247 445 216 469 q 349 395 278 420 q 483 319 441 361 q 525 213 525 276 q 446 45 525 110 q 245 -20 366 -20 m 639 1024 l 433 789 q 409 764 417 770 q 368 758 401 758 q 332 765 342 758 q 315 786 322 772 l 198 1024 l 231 1046 l 383 861 l 607 1046 l 639 1024 z "},"":{"ha":836,"x_min":-61,"x_max":941,"o":"m 941 962 l 935 939 l 140 51 l 359 51 q 483 60 416 51 q 574 90 550 70 q 681 192 628 132 q 765 300 734 252 l 812 300 l 711 0 l -61 0 l -55 24 l 741 911 l 528 911 q 464 909 488 911 q 414 902 439 906 q 294 826 366 893 q 176 690 222 760 l 129 690 l 221 962 l 941 962 m 807 1246 l 610 1053 q 585 1030 594 1038 q 542 1023 575 1023 q 505 1031 514 1023 q 488 1050 495 1040 l 366 1246 l 399 1267 l 558 1124 l 775 1267 l 807 1246 z "},"":{"ha":616,"x_min":-18,"x_max":633,"o":"m 633 664 l 625 624 l 140 54 q 193 53 165 53 q 256 52 222 52 q 311 53 282 52 q 385 56 340 54 q 430 75 412 58 q 458 115 447 93 q 488 170 469 132 q 519 236 507 208 l 559 236 l 513 0 l -18 0 l -7 47 l 469 610 l 380 610 q 288 608 321 610 q 224 595 254 606 q 178 548 201 587 q 133 458 154 509 l 92 458 l 132 664 l 633 664 m 626 1024 l 420 789 q 396 764 404 770 q 355 758 388 758 q 319 765 329 758 q 302 786 309 772 l 185 1024 l 218 1046 l 370 861 l 594 1046 l 626 1024 z "},"":{"ha":521,"x_min":236,"x_max":322,"o":"m 322 490 l 236 490 l 236 1033 l 322 1033 l 322 490 m 322 -288 l 236 -288 l 236 262 l 322 262 l 322 -288 z "},"":{"ha":1040,"x_min":-20,"x_max":1027,"o":"m 1027 591 q 974 341 1027 454 q 833 155 920 229 q 632 39 743 79 q 400 0 522 0 l -20 0 l -9 45 q 40 48 8 45 q 86 57 73 52 q 123 84 111 66 q 140 125 135 101 l 222 477 l 96 477 l 111 541 l 237 541 l 300 817 q 304 835 302 825 q 306 851 306 845 q 301 877 306 866 q 280 896 296 888 q 237 910 262 904 q 197 918 211 916 l 208 962 l 615 962 q 748 945 676 962 q 882 886 820 928 q 988 768 948 842 q 1027 591 1027 694 m 868 591 q 787 827 868 743 q 570 911 705 911 q 513 910 543 911 q 466 908 483 909 l 381 541 l 587 541 l 572 477 l 366 477 l 294 161 q 290 143 292 152 q 289 126 289 134 q 323 69 289 85 q 434 52 357 52 q 618 98 535 52 q 756 221 701 144 q 840 394 812 300 q 868 591 868 488 z "},"":{"ha":759,"x_min":46,"x_max":760,"o":"m 760 985 l 613 911 q 695 757 663 842 q 728 564 728 671 q 702 351 728 456 q 622 163 675 245 q 482 26 562 72 q 307 -20 403 -20 q 120 54 194 -20 q 46 251 46 128 q 76 414 46 339 q 157 547 105 490 q 279 635 210 604 q 425 666 349 666 q 533 635 487 666 q 594 572 580 605 l 600 573 q 601 592 601 581 q 601 610 601 602 q 579 751 601 682 q 533 870 557 821 l 356 774 l 328 825 l 506 918 q 464 974 487 949 q 415 1017 440 998 l 455 1055 q 523 1007 486 1038 q 578 955 561 975 l 730 1036 l 760 985 m 505 168 q 554 301 537 229 q 570 439 570 374 q 534 566 570 516 q 429 616 497 616 q 319 580 369 616 q 235 469 269 545 q 196 334 206 405 q 185 215 185 262 q 219 77 185 126 q 323 28 252 28 q 429 68 382 28 q 505 168 475 109 z "},"":{"ha":854,"x_min":97,"x_max":1029,"o":"m 1029 962 l 1018 918 q 980 909 1006 917 q 939 892 954 901 q 898 867 909 876 q 850 821 886 858 q 713 662 786 753 q 562 472 641 571 q 512 402 526 429 q 486 325 498 375 l 444 138 q 441 125 442 132 q 441 114 441 119 q 447 85 441 97 q 470 66 453 74 q 520 52 485 59 q 575 45 555 45 l 565 0 l 115 0 l 125 45 q 182 50 144 46 q 238 60 220 53 q 278 88 265 70 q 297 131 292 106 l 346 342 q 350 362 348 352 q 352 374 352 372 q 346 417 352 391 q 331 472 340 443 q 282 640 308 553 q 230 802 256 726 q 204 860 217 840 q 172 895 191 881 q 137 911 158 905 q 97 918 115 916 l 108 962 l 503 962 l 492 918 q 452 916 476 917 q 408 911 427 914 q 373 901 389 909 q 358 881 358 893 q 367 837 358 868 q 395 743 376 805 q 433 621 411 688 q 482 467 455 553 q 659 685 581 587 q 764 821 736 783 q 789 859 785 850 q 793 873 793 867 q 760 906 793 897 q 676 918 726 916 l 687 962 l 1029 962 m 809 1218 q 790 1169 809 1187 q 740 1135 771 1150 q 644 1091 709 1120 q 495 1022 578 1061 l 477 1048 q 586 1147 547 1110 q 668 1227 625 1184 q 713 1260 694 1253 q 752 1267 733 1267 q 793 1253 777 1267 q 809 1218 809 1239 z "},"":{"ha":777,"x_min":12,"x_max":736,"o":"m 486 98 l 482 98 q 363 16 420 46 q 235 -14 307 -14 q 132 24 170 -14 q 94 123 94 62 q 97 161 94 139 q 110 228 100 184 l 163 439 q 174 493 170 470 q 178 536 178 515 q 166 587 178 574 q 115 600 153 600 q 77 594 100 600 q 41 585 54 589 l 51 629 q 144 665 104 652 q 209 677 184 677 q 289 652 263 677 q 315 579 315 628 q 313 546 315 567 q 304 504 310 525 l 243 256 q 231 203 236 228 q 227 165 227 178 q 249 94 227 120 q 313 67 271 67 q 410 92 363 67 q 498 159 457 116 l 611 666 l 728 674 l 736 664 l 620 133 q 554 -66 594 16 q 460 -200 514 -149 q 339 -277 404 -254 q 191 -301 274 -301 q 99 -293 133 -301 q 45 -271 65 -285 q 19 -240 26 -257 q 12 -206 12 -223 q 30 -155 12 -177 q 81 -132 47 -132 q 123 -146 106 -132 q 152 -178 141 -161 q 174 -219 164 -196 q 191 -256 184 -242 l 207 -256 q 289 -237 245 -256 q 368 -178 332 -218 q 437 -66 406 -134 q 486 98 468 3 m 643 994 q 630 950 643 967 q 591 913 617 934 q 508 853 559 889 q 372 753 458 817 l 347 774 q 440 901 414 864 q 496 983 467 939 q 542 1031 520 1020 q 590 1043 564 1043 q 628 1028 612 1043 q 643 994 643 1013 z "},"":{"ha":853,"x_min":-18,"x_max":847,"o":"m 847 564 q 810 414 847 479 q 714 307 773 349 q 581 241 652 262 q 432 219 509 219 l 306 219 l 285 127 q 283 114 283 121 q 282 102 282 107 q 287 76 282 87 q 309 58 292 65 q 348 50 319 54 q 404 45 376 45 l 393 0 l -18 0 l -7 45 q 41 50 9 46 q 86 58 72 53 q 123 85 111 68 q 140 127 135 102 l 302 827 q 304 840 303 833 q 305 852 305 846 q 300 876 305 867 q 279 894 295 886 q 238 908 262 902 q 193 918 213 915 l 203 962 l 608 962 l 597 918 q 553 912 581 917 q 503 901 525 908 q 465 876 476 892 q 448 834 454 859 l 433 768 l 596 768 q 779 712 711 768 q 847 564 847 656 m 615 364 q 665 454 648 404 q 681 558 681 503 q 672 618 681 590 q 643 668 664 646 q 590 702 623 690 q 511 715 557 715 l 420 715 l 319 275 l 403 275 q 529 300 475 275 q 615 364 583 325 z "},"":{"ha":768,"x_min":-140,"x_max":720,"o":"m 720 425 q 688 253 720 334 q 604 112 656 172 q 476 14 545 46 q 334 -18 407 -18 q 239 -3 276 -18 q 172 32 201 11 l 133 -146 q 126 -178 129 -163 q 124 -201 124 -193 q 137 -231 124 -220 q 168 -246 151 -241 q 205 -254 184 -252 q 243 -258 227 -257 l 234 -301 l -140 -301 l -130 -258 q -90 -255 -109 -257 q -54 -248 -71 -253 q -20 -225 -33 -242 q -2 -184 -7 -209 l 238 873 q 244 902 242 892 q 246 922 246 911 q 238 960 246 947 q 215 980 230 973 q 179 988 201 986 q 135 993 157 990 l 144 1034 l 396 1050 l 403 1040 l 299 589 l 302 589 q 398 657 345 630 q 503 684 450 684 q 663 614 606 684 q 720 425 720 544 m 581 422 q 574 494 581 458 q 553 554 568 530 q 513 595 538 581 q 445 610 487 610 q 376 591 414 610 q 284 519 338 572 l 197 135 q 239 63 202 96 q 328 29 276 29 q 429 60 382 29 q 509 145 475 92 q 562 272 543 201 q 581 422 581 342 z "},"":{"ha":893,"x_min":118,"x_max":809,"o":"m 809 337 l 118 337 l 118 422 l 809 422 l 809 337 z "},"":{"ha":893,"x_min":158,"x_max":768,"o":"m 768 135 l 708 75 l 463 321 l 218 74 l 158 134 l 405 380 l 158 625 l 218 684 l 463 439 l 709 685 l 768 625 l 522 380 l 768 135 z "},"":{"ha":694,"x_min":158,"x_max":558,"o":"m 558 980 q 535 896 547 941 q 516 819 524 851 l 428 437 q 427 431 427 434 q 427 425 427 427 q 431 405 427 412 q 446 391 435 397 q 488 381 458 385 q 538 377 517 377 l 528 332 l 158 332 l 169 377 q 223 380 189 378 q 271 387 257 382 q 297 402 287 393 q 312 431 308 412 l 412 863 l 278 863 l 290 912 l 325 912 q 426 931 379 912 q 509 980 473 949 l 558 980 z "},"":{"ha":694,"x_min":94,"x_max":669,"o":"m 669 831 q 649 733 669 777 q 597 659 629 689 q 525 604 564 627 q 438 559 486 580 q 321 501 390 538 q 203 427 252 464 l 627 427 l 605 332 l 94 332 l 112 408 q 226 505 156 462 q 358 585 296 548 q 426 632 387 603 q 486 687 465 661 q 528 753 513 719 q 543 838 543 788 q 515 911 543 885 q 441 938 487 938 q 376 925 406 938 q 330 893 346 913 q 331 876 330 887 q 332 850 332 865 q 311 781 332 804 q 243 758 291 758 q 205 773 217 758 q 194 809 194 789 q 214 868 194 838 q 270 925 234 898 q 354 968 304 951 q 463 985 404 985 q 612 944 554 985 q 669 831 669 903 z "},"":{"ha":694,"x_min":102,"x_max":658,"o":"m 658 850 q 649 803 658 829 q 621 754 640 776 q 568 709 599 730 q 483 675 537 689 l 481 669 q 534 657 507 667 q 582 634 562 648 q 616 596 603 619 q 629 541 629 572 q 536 374 629 440 q 303 309 443 309 q 156 345 210 309 q 102 429 102 382 q 122 483 102 454 q 175 512 141 512 q 224 499 208 512 q 240 465 240 486 q 230 427 240 448 q 212 394 220 407 q 251 367 225 378 q 315 355 277 355 q 447 409 393 355 q 500 547 500 463 q 472 611 500 588 q 380 634 444 634 l 305 634 l 321 695 l 372 695 q 490 741 450 695 q 530 857 530 787 q 508 915 530 890 q 438 939 487 939 q 377 926 405 939 q 332 897 349 913 q 333 883 332 891 q 334 865 334 876 q 317 799 334 823 q 249 776 300 776 q 212 789 223 776 q 200 823 200 803 q 218 877 200 850 q 272 930 235 903 q 356 969 306 954 q 468 985 406 985 q 563 972 525 985 q 622 937 601 958 q 650 894 642 917 q 658 850 658 871 z "},"":{"ha":1458,"x_min":98,"x_max":1384,"o":"m 498 980 q 475 896 487 941 q 456 819 463 851 l 368 437 q 367 431 367 434 q 366 425 366 427 q 370 405 366 412 q 386 391 374 397 q 427 381 397 385 q 478 377 457 377 l 467 332 l 98 332 l 109 377 q 163 380 129 378 q 211 387 197 382 q 237 402 227 393 q 252 431 248 412 l 351 863 l 218 863 l 229 912 l 264 912 q 366 931 319 912 q 448 980 413 949 l 498 980 m 1384 498 q 1364 400 1384 444 q 1312 326 1343 357 q 1240 271 1279 295 q 1153 227 1200 248 q 1036 169 1105 205 q 918 94 966 132 l 1341 94 l 1320 0 l 809 0 l 827 75 q 941 173 871 130 q 1073 253 1010 216 q 1141 300 1102 271 q 1201 355 1180 329 q 1242 421 1227 387 q 1257 505 1257 456 q 1230 579 1257 553 q 1156 606 1202 606 q 1091 593 1121 606 q 1044 561 1061 581 q 1045 544 1044 555 q 1046 517 1046 532 q 1026 449 1046 472 q 958 426 1006 426 q 920 441 932 426 q 909 477 909 456 q 929 535 909 505 q 985 593 949 566 q 1069 636 1019 619 q 1177 653 1119 653 q 1326 612 1269 653 q 1384 498 1384 571 m 1113 962 l 403 0 l 311 0 l 1020 962 l 1113 962 z "},"":{"ha":1458,"x_min":98,"x_max":1321,"o":"m 498 980 q 475 896 487 941 q 456 819 463 851 l 368 437 q 367 431 367 434 q 366 425 366 427 q 370 405 366 412 q 386 391 374 397 q 427 381 397 385 q 478 377 457 377 l 467 332 l 98 332 l 109 377 q 163 380 129 378 q 211 387 197 382 q 237 402 227 393 q 252 431 248 412 l 351 863 l 218 863 l 229 912 l 264 912 q 366 931 319 912 q 448 980 413 949 l 498 980 m 1321 216 l 1304 146 l 1196 146 l 1160 -14 l 1048 -14 l 1084 146 l 748 146 l 768 229 l 1234 652 l 1314 652 l 1213 216 l 1321 216 m 1171 520 l 836 216 l 1101 216 l 1171 520 m 1120 962 l 410 0 l 318 0 l 1027 962 l 1120 962 z "},"":{"ha":1458,"x_min":102,"x_max":1382,"o":"m 658 850 q 649 803 658 829 q 621 754 640 776 q 568 709 599 730 q 483 675 537 689 l 481 669 q 534 657 507 667 q 582 634 562 648 q 616 596 603 619 q 629 541 629 572 q 536 374 629 440 q 303 309 443 309 q 156 345 210 309 q 102 429 102 382 q 122 483 102 454 q 175 512 141 512 q 224 499 208 512 q 240 465 240 486 q 230 427 240 448 q 212 394 220 407 q 251 367 225 378 q 315 355 277 355 q 447 409 393 355 q 500 547 500 463 q 472 611 500 588 q 380 634 444 634 l 305 634 l 321 695 l 372 695 q 490 741 450 695 q 530 857 530 787 q 508 915 530 890 q 438 939 487 939 q 377 926 405 939 q 332 897 349 913 q 333 883 332 891 q 334 865 334 876 q 317 799 334 823 q 249 776 300 776 q 212 789 223 776 q 200 823 200 803 q 218 877 200 850 q 272 930 235 903 q 356 969 306 954 q 468 985 406 985 q 563 972 525 985 q 622 937 601 958 q 650 894 642 917 q 658 850 658 871 m 1382 216 l 1365 146 l 1257 146 l 1221 -14 l 1109 -14 l 1145 146 l 809 146 l 829 229 l 1295 652 l 1375 652 l 1274 216 l 1382 216 m 1232 520 l 897 216 l 1162 216 l 1232 520 m 1222 962 l 512 0 l 420 0 l 1129 962 l 1222 962 z "},"":{"ha":832,"x_min":-31,"x_max":932,"o":"m 932 962 l 875 722 l 824 722 q 794 846 822 791 q 724 907 767 900 q 675 911 703 909 q 610 912 647 912 l 456 912 l 370 541 l 471 541 q 553 552 524 541 q 608 585 583 562 q 639 623 625 600 q 667 680 653 646 l 718 680 l 641 349 l 590 349 l 590 364 q 587 407 590 382 q 577 444 585 432 q 531 480 559 471 q 458 490 502 490 l 358 490 l 317 311 l 496 311 l 481 249 l 303 249 l 276 132 q 274 121 275 127 q 273 110 273 115 q 279 84 273 95 q 300 64 286 73 q 346 52 311 58 q 399 45 380 46 l 389 0 l -31 0 l -20 45 q 35 49 1 46 q 80 57 68 52 q 116 84 104 66 q 134 125 128 101 l 162 249 l 31 249 l 46 311 l 176 311 l 296 826 q 298 839 297 833 q 299 852 299 846 q 294 876 299 866 q 273 894 289 886 q 229 909 258 902 q 180 918 199 916 l 191 962 l 932 962 z "},"":{"ha":1007,"x_min":68,"x_max":1015,"o":"m 452 -22 q 301 3 371 -22 q 179 79 231 29 q 97 201 127 130 q 68 366 68 273 q 114 609 68 497 q 239 806 159 722 q 423 937 317 889 q 648 985 530 985 q 808 963 741 985 q 913 916 875 942 l 951 962 l 1005 962 l 934 626 l 878 626 q 869 736 877 682 q 835 834 861 791 q 762 904 808 878 q 633 930 716 930 q 476 887 550 930 q 345 766 401 844 q 259 585 290 690 q 227 358 227 479 q 298 121 227 208 q 495 34 370 34 q 599 52 555 34 q 669 91 643 69 q 687 150 678 119 q 705 225 695 180 l 718 283 q 721 301 720 291 q 723 320 723 311 q 719 348 723 337 q 697 366 714 359 q 640 381 677 376 q 582 388 602 387 l 592 434 l 1015 434 l 1004 388 q 959 381 987 386 q 911 369 930 377 q 875 340 887 358 q 857 296 863 321 l 840 218 q 818 122 824 154 q 807 62 812 90 q 727 30 762 43 q 640 3 692 16 q 549 -16 593 -9 q 452 -22 505 -22 m 900 1255 q 798 1092 861 1146 q 644 1038 735 1038 q 513 1088 557 1038 q 469 1238 469 1139 q 469 1247 469 1242 q 469 1255 469 1252 l 507 1266 q 552 1167 517 1198 q 662 1137 587 1137 q 788 1172 744 1137 q 863 1266 831 1207 l 900 1255 z "},"":{"ha":795,"x_min":7,"x_max":731,"o":"m 481 92 l 476 93 q 438 62 463 82 q 386 28 413 43 q 323 -2 355 9 q 252 -14 291 -14 q 101 56 154 -14 q 47 248 47 125 q 78 411 47 332 q 163 552 109 490 q 286 648 214 612 q 437 684 358 684 q 529 672 486 684 q 599 642 572 659 l 723 674 l 731 664 l 617 130 q 551 -76 591 8 q 458 -208 511 -159 q 338 -280 404 -258 q 190 -301 273 -301 q 98 -292 134 -301 q 42 -269 62 -283 q 15 -237 22 -255 q 7 -203 7 -219 q 26 -152 7 -172 q 76 -131 44 -131 q 119 -145 101 -131 q 147 -177 136 -160 q 170 -219 159 -195 q 186 -256 180 -243 l 206 -256 q 286 -239 243 -256 q 364 -184 329 -222 q 431 -78 400 -144 q 481 92 463 -12 m 572 525 q 566 564 572 544 q 545 601 560 584 q 507 627 530 617 q 448 636 484 636 q 349 605 395 636 q 265 518 302 573 q 209 393 231 467 q 187 246 187 320 q 193 173 187 206 q 213 114 199 139 q 251 75 227 89 q 311 61 274 61 q 406 89 359 61 q 494 159 452 116 l 572 525 m 698 1014 q 595 827 657 890 q 441 764 533 764 q 314 823 355 764 q 273 992 273 881 q 273 1003 273 997 q 273 1014 273 1008 l 309 1022 q 320 960 313 987 q 345 911 328 934 q 386 878 361 890 q 456 866 411 866 q 576 904 530 866 q 659 1022 622 943 l 698 1014 z "},"":{"ha":541,"x_min":-30,"x_max":625,"o":"m 625 962 l 615 918 q 560 911 594 917 q 510 901 526 906 q 469 874 481 892 q 452 834 457 856 l 289 131 q 287 120 288 126 q 286 109 286 114 q 293 83 286 94 q 317 64 300 72 q 362 53 328 59 q 414 45 397 46 l 404 0 l -30 0 l -20 45 q 35 49 -1 46 q 85 57 70 52 q 125 83 111 66 q 143 123 138 100 l 305 827 q 307 840 307 833 q 308 852 308 846 q 302 876 308 865 q 278 894 296 886 q 228 909 260 902 q 182 918 197 916 l 192 962 l 625 962 m 519 1179 q 494 1112 519 1140 q 431 1084 469 1084 q 371 1110 397 1084 q 346 1173 346 1137 q 371 1237 346 1210 q 431 1264 397 1264 q 495 1239 470 1264 q 519 1179 519 1213 z "},"":{"ha":779,"x_min":-6,"x_max":813,"o":"m 315 -20 q 179 4 235 -16 q 87 49 123 24 l 48 -1 l -6 -1 l 60 329 l 115 329 q 131 218 119 270 q 172 125 144 167 q 246 59 201 83 q 359 36 292 36 q 521 92 460 36 q 582 245 582 148 q 556 338 582 297 q 479 401 530 378 q 382 438 430 422 q 288 477 334 455 q 190 561 227 507 q 153 684 153 616 q 181 804 153 749 q 258 899 210 859 q 369 961 304 938 q 499 984 435 984 q 613 970 559 984 q 722 916 667 956 l 759 962 l 813 962 l 745 643 l 690 643 q 679 751 688 695 q 650 843 671 806 q 588 906 628 883 q 481 928 548 928 q 347 873 401 928 q 293 742 293 818 q 313 657 293 692 q 375 600 333 622 q 469 561 420 577 q 557 526 518 544 q 679 437 635 489 q 722 311 722 386 q 691 177 722 239 q 608 73 660 115 q 498 9 559 33 q 367 -18 437 -14 l 357 -67 q 461 -91 426 -67 q 496 -153 496 -115 q 471 -228 496 -197 q 405 -273 446 -258 q 316 -295 367 -288 q 201 -301 264 -301 l 211 -252 q 275 -251 239 -252 q 334 -244 310 -250 q 378 -225 361 -237 q 394 -186 394 -212 q 371 -152 394 -164 q 290 -140 347 -140 l 315 -20 z "},"":{"ha":599,"x_min":12,"x_max":570,"o":"m 230 -20 q 73 19 134 -16 q 12 109 12 54 q 31 160 12 136 q 79 184 51 184 q 123 171 106 184 q 149 142 140 159 q 167 100 159 124 q 180 60 175 75 q 209 38 191 48 q 260 28 227 28 q 371 65 334 28 q 409 164 409 102 q 374 238 409 210 q 269 288 338 265 q 210 313 243 296 q 155 349 176 330 q 116 400 131 370 q 101 471 101 430 q 179 621 101 557 q 370 684 256 684 q 427 682 396 684 q 494 667 457 679 q 548 634 526 656 q 570 579 570 613 q 552 529 570 551 q 503 506 533 506 q 461 517 477 506 q 434 546 445 528 q 416 585 423 564 q 401 627 410 606 q 378 634 389 632 q 351 636 368 636 q 251 601 285 636 q 216 516 216 565 q 247 445 216 469 q 349 395 278 420 q 483 319 441 361 q 525 213 525 276 q 457 56 525 119 q 283 -18 389 -7 l 272 -67 q 376 -91 341 -67 q 412 -153 412 -115 q 386 -228 412 -197 q 320 -273 361 -258 q 231 -295 282 -288 q 116 -301 180 -301 l 126 -252 q 190 -251 155 -252 q 249 -244 225 -250 q 293 -225 277 -237 q 309 -186 309 -212 q 286 -152 309 -164 q 205 -140 262 -140 l 230 -20 z "},"":{"ha":892,"x_min":68,"x_max":968,"o":"m 428 -22 q 288 3 354 -22 q 174 79 222 29 q 96 200 124 129 q 68 361 68 271 q 111 600 68 489 q 231 799 155 711 q 407 934 304 883 q 621 985 509 985 q 770 965 706 985 q 876 916 834 945 l 913 962 l 968 962 l 895 619 l 839 619 l 839 646 q 830 752 839 702 q 796 844 821 803 q 729 906 772 883 q 621 930 687 930 q 466 885 538 930 q 342 767 395 841 q 260 590 291 695 q 229 376 229 485 q 299 141 229 231 q 490 52 370 52 q 673 111 589 52 q 810 269 757 170 l 859 243 q 668 37 773 97 q 428 -22 563 -22 m 816 1218 q 797 1169 816 1187 q 747 1135 778 1150 q 650 1091 715 1120 q 502 1022 585 1061 l 484 1048 q 593 1147 553 1110 q 675 1227 632 1184 q 720 1260 701 1253 q 759 1267 740 1267 q 800 1253 783 1267 q 816 1218 816 1239 z "},"":{"ha":630,"x_min":45,"x_max":620,"o":"m 302 -19 q 114 50 183 -19 q 45 247 45 119 q 72 409 45 332 q 144 547 98 487 q 263 646 191 608 q 422 684 334 684 q 569 643 519 684 q 620 540 620 602 q 598 458 620 493 q 532 422 576 422 q 477 441 495 422 q 458 481 458 459 q 473 541 458 503 q 497 602 488 578 q 464 628 490 620 q 410 637 438 637 q 251 529 318 637 q 184 266 184 422 q 228 113 184 170 q 344 56 271 56 q 461 92 410 56 q 559 191 512 127 l 597 163 q 470 35 551 89 q 302 -19 390 -19 m 595 994 q 583 950 595 967 q 543 913 570 934 q 461 853 511 889 q 324 753 410 817 l 300 774 q 393 901 367 864 q 449 983 419 939 q 495 1031 473 1020 q 543 1043 517 1043 q 580 1028 565 1043 q 595 994 595 1013 z "},"":{"ha":892,"x_min":68,"x_max":968,"o":"m 428 -22 q 288 3 354 -22 q 174 79 222 29 q 96 200 124 129 q 68 361 68 271 q 111 600 68 489 q 231 799 155 711 q 407 934 304 883 q 621 985 509 985 q 770 965 706 985 q 876 916 834 945 l 913 962 l 968 962 l 895 619 l 839 619 l 839 646 q 830 752 839 702 q 796 844 821 803 q 729 906 772 883 q 621 930 687 930 q 466 885 538 930 q 342 767 395 841 q 260 590 291 695 q 229 376 229 485 q 299 141 229 231 q 490 52 370 52 q 673 111 589 52 q 810 269 757 170 l 859 243 q 668 37 773 97 q 428 -22 563 -22 m 887 1246 l 690 1053 q 665 1030 674 1038 q 622 1023 655 1023 q 585 1031 594 1023 q 568 1050 575 1040 l 446 1246 l 479 1267 l 638 1124 l 855 1267 l 887 1246 z "},"":{"ha":630,"x_min":45,"x_max":687,"o":"m 302 -19 q 114 50 183 -19 q 45 247 45 119 q 72 409 45 332 q 144 547 98 487 q 263 646 191 608 q 422 684 334 684 q 569 643 519 684 q 620 540 620 602 q 598 458 620 493 q 532 422 576 422 q 477 441 495 422 q 458 481 458 459 q 473 541 458 503 q 497 602 488 578 q 464 628 490 620 q 410 637 438 637 q 251 529 318 637 q 184 266 184 422 q 228 113 184 170 q 344 56 271 56 q 461 92 410 56 q 559 191 512 127 l 597 163 q 470 35 551 89 q 302 -19 390 -19 m 687 1024 l 481 789 q 457 764 465 770 q 416 758 449 758 q 380 765 390 758 q 363 786 370 772 l 246 1024 l 279 1046 l 431 861 l 655 1046 l 687 1024 z "},"":{"ha":799,"x_min":47,"x_max":926,"o":"m 478 93 l 473 93 q 435 59 458 80 q 385 23 411 39 q 325 -8 353 3 q 258 -19 298 -19 q 103 52 159 -19 q 47 245 47 123 q 78 410 47 330 q 160 551 108 489 q 282 647 211 610 q 432 684 354 684 q 525 672 479 684 q 601 642 571 660 l 636 795 l 394 795 l 408 850 l 648 850 l 654 873 q 660 901 658 891 q 661 924 661 911 q 651 961 661 948 q 624 980 642 974 q 579 988 608 986 q 528 993 551 990 l 537 1034 l 812 1050 l 819 1040 l 774 850 l 926 850 l 913 795 l 762 795 l 631 227 q 620 175 625 204 q 614 132 614 146 q 630 79 614 93 q 685 65 646 65 q 722 69 698 65 q 758 78 745 73 l 748 35 q 654 -1 691 9 q 585 -12 616 -12 q 507 14 536 -12 q 478 93 478 39 m 574 525 q 564 563 572 545 q 541 597 555 582 q 501 625 526 614 q 442 636 476 636 q 343 604 390 636 q 262 517 297 571 q 208 391 228 465 q 187 243 187 317 q 192 170 187 202 q 210 111 197 138 q 247 72 223 86 q 310 57 271 57 q 391 79 347 57 q 488 157 435 102 l 574 525 z "},"":{"ha":828,"x_min":144,"x_max":1059,"o":"m 1059 1154 l 1044 1088 l 144 1088 l 159 1154 l 1059 1154 z "},"":{"ha":388,"x_min":108,"x_max":294,"o":"m 294 379 q 266 314 294 341 q 201 288 239 288 q 135 314 163 288 q 108 379 108 341 q 135 445 108 417 q 201 472 163 472 q 266 445 239 472 q 294 379 294 417 z "},"":{"ha":932,"x_min":-109,"x_max":893,"o":"m 593 391 l 533 766 l 302 391 l 593 391 m 490 0 l 500 45 q 549 51 521 47 q 593 59 577 54 q 624 73 614 66 q 635 96 635 81 q 627 163 635 102 q 604 334 618 224 l 266 334 q 218 253 243 299 q 180 182 193 206 q 156 133 168 160 q 145 98 145 106 q 181 62 145 75 q 271 45 217 48 l 261 0 l -109 0 l -98 45 q -53 53 -81 46 q -5 70 -24 59 q 40 103 18 83 q 87 163 62 123 q 345 577 205 349 q 591 976 485 805 l 646 976 l 774 142 q 787 100 778 117 q 816 68 797 83 q 852 52 829 58 q 893 45 876 45 l 883 0 l 490 0 m 874 1255 q 772 1092 835 1146 q 618 1038 709 1038 q 487 1088 531 1038 q 443 1238 443 1139 q 443 1247 443 1242 q 443 1255 443 1252 l 481 1266 q 526 1167 491 1198 q 636 1137 562 1137 q 762 1172 718 1137 q 838 1266 806 1207 l 874 1255 z "},"":{"ha":795,"x_min":47,"x_max":754,"o":"m 472 90 l 467 90 q 432 59 452 77 q 383 23 411 40 q 326 -6 357 6 q 258 -19 294 -19 q 103 52 159 -19 q 47 244 47 122 q 79 408 47 328 q 165 550 110 487 q 289 647 217 610 q 437 684 361 684 q 529 671 485 684 q 597 642 572 659 l 722 674 l 730 664 l 627 227 q 615 175 621 205 q 610 131 610 145 q 626 79 610 92 q 681 65 642 65 q 718 69 694 65 q 754 78 741 73 l 744 35 q 653 -1 683 10 q 581 -12 623 -12 q 503 17 532 -12 q 472 90 475 45 m 569 518 q 564 561 569 541 q 545 599 559 581 q 507 626 531 616 q 448 636 484 636 q 351 604 398 636 q 267 516 304 571 q 210 391 232 465 q 187 243 187 318 q 192 170 187 201 q 210 111 197 138 q 248 71 223 85 q 309 57 272 57 q 389 78 347 57 q 483 153 431 100 l 569 518 m 696 1014 q 594 827 656 890 q 440 764 532 764 q 313 823 354 764 q 271 992 271 881 q 272 1003 271 997 q 272 1014 272 1008 l 307 1022 q 319 960 312 987 q 343 911 326 934 q 385 878 359 890 q 455 866 410 866 q 574 904 528 866 q 657 1022 621 943 l 696 1014 z "},"":{"ha":932,"x_min":-109,"x_max":893,"o":"m 593 391 l 533 766 l 302 391 l 593 391 m 490 0 l 500 45 q 549 51 521 47 q 593 59 577 54 q 624 73 614 66 q 635 96 635 81 q 627 163 635 102 q 604 334 618 224 l 266 334 q 218 253 243 299 q 180 182 193 206 q 156 133 168 160 q 145 98 145 106 q 181 62 145 75 q 271 45 217 48 l 261 0 l -109 0 l -98 45 q -53 53 -81 46 q -5 70 -24 59 q 40 103 18 83 q 87 163 62 123 q 345 577 205 349 q 591 976 485 805 l 646 976 l 774 142 q 787 100 778 117 q 816 68 797 83 q 852 52 829 58 q 893 45 876 45 l 883 0 l 772 0 q 706 -76 735 -30 q 677 -174 677 -123 q 706 -232 677 -212 q 815 -252 734 -252 l 806 -301 l 728 -301 q 609 -273 650 -301 q 568 -194 568 -244 q 605 -97 568 -145 q 718 0 641 -48 l 490 0 z "},"":{"ha":795,"x_min":47,"x_max":754,"o":"m 472 90 l 467 90 q 432 59 452 77 q 383 23 411 40 q 326 -6 357 6 q 258 -19 294 -19 q 103 52 159 -19 q 47 244 47 122 q 79 408 47 328 q 165 550 110 487 q 289 647 217 610 q 437 684 361 684 q 529 671 485 684 q 597 642 572 659 l 722 674 l 730 664 l 627 227 q 615 175 621 205 q 610 131 610 145 q 626 79 610 92 q 681 65 642 65 q 718 69 694 65 q 754 78 741 73 l 744 35 q 653 -1 683 10 q 581 -12 623 -12 q 577 -12 578 -12 q 573 -12 575 -12 q 518 -79 545 -35 q 492 -174 492 -123 q 520 -232 492 -212 q 629 -252 549 -252 l 621 -301 l 543 -301 q 423 -273 464 -301 q 382 -194 382 -244 q 418 -98 382 -145 q 530 -1 453 -50 q 487 36 500 13 q 472 90 474 59 m 569 518 q 564 561 569 541 q 545 599 559 581 q 507 626 531 616 q 448 636 484 636 q 351 604 398 636 q 267 516 304 571 q 210 391 232 465 q 187 243 187 318 q 192 170 187 201 q 210 111 197 138 q 248 71 223 85 q 309 57 272 57 q 389 78 347 57 q 483 153 431 100 l 569 518 z "},"":{"ha":1040,"x_min":-20,"x_max":1027,"o":"m 1027 591 q 974 341 1027 454 q 833 155 920 229 q 632 39 743 79 q 400 0 522 0 l -20 0 l -9 45 q 40 48 8 45 q 86 57 73 52 q 123 84 111 66 q 140 125 136 101 l 300 817 q 304 835 302 825 q 306 851 306 845 q 301 877 306 866 q 280 896 296 888 q 237 910 262 904 q 197 918 211 916 l 208 962 l 615 962 q 748 945 676 962 q 882 886 820 928 q 988 768 948 842 q 1027 591 1027 694 m 868 591 q 787 827 868 743 q 570 911 705 911 q 513 910 543 911 q 466 908 483 909 l 294 161 q 290 143 292 152 q 289 126 289 134 q 323 69 289 85 q 434 52 357 52 q 618 98 535 52 q 756 221 701 144 q 840 394 812 300 q 868 591 868 488 m 853 1246 l 656 1053 q 631 1030 640 1038 q 588 1023 621 1023 q 551 1031 560 1023 q 534 1050 541 1040 l 412 1246 l 446 1267 l 604 1124 l 821 1267 l 853 1246 z "},"":{"ha":954,"x_min":47,"x_max":1074,"o":"m 478 93 l 473 93 q 435 59 458 80 q 385 23 411 39 q 325 -8 353 3 q 258 -19 298 -19 q 103 52 159 -19 q 47 245 47 123 q 78 410 47 330 q 160 551 108 489 q 282 647 211 610 q 432 684 354 684 q 525 672 479 684 q 601 642 571 660 l 654 873 q 660 901 658 891 q 661 924 661 911 q 651 961 661 948 q 624 980 642 974 q 579 988 608 986 q 528 993 551 990 l 537 1034 l 812 1050 l 819 1040 l 631 227 q 620 175 625 204 q 614 132 614 146 q 630 79 614 93 q 685 65 646 65 q 722 69 698 65 q 758 78 745 73 l 748 35 q 654 -1 691 9 q 585 -12 616 -12 q 507 14 536 -12 q 478 93 478 39 m 574 525 q 564 563 572 545 q 541 597 555 582 q 501 625 526 614 q 442 636 476 636 q 343 604 390 636 q 262 517 297 571 q 208 391 228 465 q 187 243 187 317 q 192 170 187 202 q 210 111 197 138 q 247 72 223 86 q 310 57 271 57 q 391 79 347 57 q 488 157 435 102 l 574 525 m 1074 952 q 1049 850 1074 896 q 990 772 1025 804 q 915 714 954 738 q 849 678 876 691 l 829 721 q 886 752 859 737 q 935 787 913 768 q 973 829 957 805 q 999 886 989 852 l 970 886 q 908 907 927 886 q 890 954 890 928 q 915 1016 890 987 q 983 1046 940 1046 q 1052 1020 1029 1046 q 1074 952 1074 994 z "},"":{"ha":1040,"x_min":-20,"x_max":1027,"o":"m 1027 591 q 974 341 1027 454 q 833 155 920 229 q 632 39 743 79 q 400 0 522 0 l -20 0 l -9 45 q 40 48 8 45 q 86 57 73 52 q 123 84 111 66 q 140 125 135 101 l 222 477 l 96 477 l 111 541 l 237 541 l 300 817 q 304 835 302 825 q 306 851 306 845 q 301 877 306 866 q 280 896 296 888 q 237 910 262 904 q 197 918 211 916 l 208 962 l 615 962 q 748 945 676 962 q 882 886 820 928 q 988 768 948 842 q 1027 591 1027 694 m 868 591 q 787 827 868 743 q 570 911 705 911 q 513 910 543 911 q 466 908 483 909 l 381 541 l 587 541 l 572 477 l 366 477 l 294 161 q 290 143 292 152 q 289 126 289 134 q 323 69 289 85 q 434 52 357 52 q 618 98 535 52 q 756 221 701 144 q 840 394 812 300 q 868 591 868 488 z "},"":{"ha":907,"x_min":-25,"x_max":941,"o":"m 941 962 l 888 730 l 837 730 q 807 851 833 802 q 736 907 781 900 q 687 911 716 909 q 621 912 658 912 l 467 912 l 378 525 l 486 525 q 564 535 536 525 q 614 568 592 545 q 653 624 634 588 q 680 684 672 659 l 731 684 l 644 307 l 594 307 q 595 325 594 315 q 596 348 596 336 q 593 396 596 373 q 583 430 589 419 q 543 465 569 456 q 473 473 516 473 l 365 473 l 298 179 q 291 144 294 163 q 288 114 288 125 q 315 64 288 77 q 433 52 342 52 q 588 60 547 52 q 648 84 629 68 q 739 184 687 115 q 808 283 791 252 l 857 283 l 774 0 l 653 0 q 588 -76 616 -30 q 559 -174 559 -123 q 587 -232 559 -212 q 696 -252 616 -252 l 688 -301 l 610 -301 q 490 -273 531 -301 q 450 -194 450 -244 q 486 -97 450 -145 q 600 0 522 -48 l -25 0 l -15 45 q 41 51 6 46 q 87 60 75 55 q 124 86 111 68 q 141 127 136 104 l 302 826 q 305 838 304 831 q 306 851 306 845 q 300 876 306 865 q 279 894 294 886 q 233 909 263 903 q 186 918 203 916 l 197 962 l 941 962 z "},"":{"ha":655,"x_min":47,"x_max":628,"o":"m 628 543 q 583 420 628 471 q 452 338 538 368 q 324 300 389 315 q 182 277 260 286 q 221 113 182 170 q 338 56 261 56 q 457 90 406 56 q 559 191 509 124 l 598 163 q 525 77 566 115 q 440 18 484 40 q 356 -70 388 -22 q 323 -174 323 -118 q 352 -232 323 -212 q 461 -252 380 -252 l 452 -301 l 374 -301 q 255 -273 296 -301 q 214 -194 214 -244 q 250 -98 214 -145 q 340 -16 286 -51 q 317 -18 329 -17 q 294 -19 305 -19 q 110 48 174 -19 q 47 239 47 115 q 74 402 47 324 q 152 544 100 479 q 275 646 202 607 q 436 684 348 684 q 581 645 534 684 q 628 543 628 605 m 503 560 q 496 602 503 587 q 477 625 488 617 q 451 635 465 633 q 423 637 437 637 q 273 547 342 637 q 186 324 204 458 q 293 343 233 331 q 392 376 353 356 q 476 451 448 406 q 503 560 503 497 z "},"":{"ha":907,"x_min":-25,"x_max":941,"o":"m 941 962 l 888 730 l 837 730 q 807 851 833 802 q 736 907 781 900 q 687 911 716 909 q 621 912 658 912 l 467 912 l 378 525 l 486 525 q 564 535 536 525 q 614 568 592 545 q 653 624 634 588 q 680 684 672 659 l 731 684 l 644 307 l 594 307 q 595 325 594 315 q 596 348 596 336 q 593 396 596 373 q 583 430 589 419 q 543 465 569 456 q 473 473 516 473 l 365 473 l 298 179 q 291 144 294 163 q 288 114 288 125 q 315 64 288 77 q 433 52 342 52 q 588 60 547 52 q 648 84 629 68 q 739 184 687 115 q 808 283 791 252 l 857 283 l 774 0 l -25 0 l -15 45 q 41 51 6 46 q 87 60 75 55 q 124 86 111 68 q 141 127 136 104 l 302 826 q 305 838 304 831 q 306 851 306 845 q 300 876 306 865 q 279 894 294 886 q 233 909 263 903 q 186 918 203 916 l 197 962 l 941 962 m 841 1246 l 644 1053 q 618 1030 628 1038 q 576 1023 609 1023 q 538 1031 548 1023 q 522 1050 529 1040 l 400 1246 l 433 1267 l 592 1124 l 809 1267 l 841 1246 z "},"":{"ha":655,"x_min":47,"x_max":692,"o":"m 628 543 q 583 420 628 471 q 452 338 538 368 q 324 300 389 315 q 182 277 260 286 q 221 113 182 170 q 338 56 261 56 q 457 90 406 56 q 559 191 509 124 l 598 163 q 463 31 544 80 q 294 -19 381 -19 q 110 48 174 -19 q 47 239 47 115 q 74 402 47 324 q 152 544 100 479 q 275 646 202 607 q 436 684 348 684 q 581 645 534 684 q 628 543 628 605 m 503 560 q 496 602 503 587 q 477 625 488 617 q 451 635 465 633 q 423 637 437 637 q 273 547 342 637 q 186 324 204 458 q 293 343 233 331 q 392 376 353 356 q 476 451 448 406 q 503 560 503 497 m 692 1024 l 486 789 q 462 764 470 770 q 420 758 454 758 q 385 765 395 758 q 368 786 375 772 l 251 1024 l 284 1046 l 436 861 l 660 1046 l 692 1024 z "},"":{"ha":838,"x_min":-17,"x_max":821,"o":"m 821 286 l 735 0 l -17 0 l -7 45 q 41 50 10 46 q 87 58 73 53 q 124 86 111 68 q 141 127 136 104 l 302 823 q 304 836 303 829 q 305 848 305 842 q 299 873 305 862 q 279 892 294 884 q 239 908 265 901 q 195 918 213 916 l 205 962 l 611 962 l 601 918 q 556 912 585 917 q 504 900 526 907 q 465 871 477 891 q 448 830 453 852 l 297 177 q 289 135 292 153 q 286 106 286 117 q 316 59 286 68 q 426 50 346 50 q 528 57 471 50 q 608 85 585 65 q 695 180 642 116 q 773 286 747 244 l 821 286 m 721 1218 q 702 1169 721 1187 q 652 1135 683 1150 q 555 1091 621 1120 q 407 1022 490 1061 l 389 1048 q 498 1147 458 1110 q 580 1227 537 1184 q 625 1260 606 1253 q 664 1267 645 1267 q 705 1253 688 1267 q 721 1218 721 1239 z "},"":{"ha":396,"x_min":66,"x_max":532,"o":"m 387 952 l 218 223 q 206 172 212 197 q 201 130 201 146 q 218 77 201 91 q 274 62 235 62 q 314 66 288 62 q 355 74 341 69 l 345 31 q 251 -4 283 6 q 176 -14 218 -14 q 94 14 122 -14 q 66 83 66 42 q 69 116 66 99 q 77 159 72 133 l 222 785 q 227 810 224 798 q 230 835 230 823 q 222 872 230 859 q 199 892 214 886 q 163 901 186 899 q 119 905 141 903 l 128 947 l 380 962 l 387 952 m 532 1218 q 513 1169 532 1187 q 463 1135 494 1150 q 367 1091 432 1120 q 218 1022 302 1061 l 200 1048 q 309 1147 270 1110 q 391 1227 349 1184 q 437 1260 417 1253 q 475 1267 456 1267 q 516 1253 500 1267 q 532 1218 532 1239 z "},"":{"ha":838,"x_min":-17,"x_max":890,"o":"m 821 286 l 735 0 l -17 0 l -7 45 q 41 50 10 46 q 87 58 73 53 q 124 86 111 68 q 141 127 136 104 l 302 823 q 304 836 303 829 q 305 848 305 842 q 299 873 305 862 q 279 892 294 884 q 239 908 265 901 q 195 918 213 916 l 205 962 l 611 962 l 601 918 q 556 912 585 917 q 504 900 526 907 q 465 871 477 891 q 448 830 453 852 l 297 177 q 289 135 292 153 q 286 106 286 117 q 316 59 286 68 q 426 50 346 50 q 528 57 471 50 q 608 85 585 65 q 695 180 642 116 q 773 286 747 244 l 821 286 m 890 878 q 865 776 890 822 q 806 699 841 730 q 731 641 770 664 q 665 604 692 617 l 645 647 q 703 679 675 663 q 751 713 730 694 q 789 755 773 731 q 815 812 806 779 l 786 812 q 725 833 743 812 q 706 880 706 854 q 731 942 706 913 q 800 972 756 972 q 868 946 846 972 q 890 878 890 920 z "},"":{"ha":541,"x_min":66,"x_max":661,"o":"m 407 1040 l 218 223 q 206 172 212 197 q 201 130 201 146 q 218 77 201 91 q 274 62 235 62 q 314 66 288 62 q 355 74 341 69 l 345 31 q 251 -4 283 6 q 176 -14 218 -14 q 94 14 122 -14 q 66 83 66 42 q 69 116 66 99 q 77 159 72 133 l 242 873 q 249 902 247 894 q 250 922 250 910 q 242 960 250 947 q 219 980 234 973 q 183 988 205 986 q 139 993 161 990 l 149 1034 l 400 1050 l 407 1040 m 661 952 q 637 850 661 896 q 578 772 612 804 q 502 714 541 738 q 437 678 463 691 l 416 721 q 474 752 447 737 q 523 787 501 768 q 561 829 545 805 q 587 886 577 852 l 557 886 q 496 907 515 886 q 477 954 477 928 q 503 1016 477 987 q 571 1046 528 1046 q 639 1020 617 1046 q 661 952 661 994 z "},"":{"ha":838,"x_min":-17,"x_max":821,"o":"m 821 286 l 735 0 l -17 0 l -7 45 q 41 50 10 46 q 87 58 73 53 q 124 86 111 68 q 141 127 136 104 l 302 823 q 304 836 303 829 q 305 848 305 842 q 299 873 305 862 q 279 892 294 884 q 239 908 265 901 q 195 918 213 916 l 205 962 l 611 962 l 601 918 q 556 912 585 917 q 504 900 526 907 q 465 871 477 891 q 448 830 453 852 l 297 177 q 289 135 292 153 q 286 106 286 117 q 316 59 286 68 q 426 50 346 50 q 528 57 471 50 q 608 85 585 65 q 695 180 642 116 q 773 286 747 244 l 821 286 m 812 491 q 785 426 812 453 q 720 399 758 399 q 654 426 682 399 q 627 491 627 453 q 654 556 627 529 q 720 584 682 584 q 785 556 758 584 q 812 491 812 529 z "},"":{"ha":585,"x_min":66,"x_max":593,"o":"m 407 1040 l 218 223 q 206 172 212 197 q 201 130 201 146 q 218 77 201 91 q 274 62 235 62 q 314 66 288 62 q 355 74 341 69 l 345 31 q 251 -4 283 6 q 176 -14 218 -14 q 94 14 122 -14 q 66 83 66 42 q 69 116 66 99 q 77 159 72 133 l 242 873 q 249 902 247 894 q 250 922 250 910 q 242 960 250 947 q 219 980 234 973 q 183 988 205 986 q 139 993 161 990 l 149 1034 l 400 1050 l 407 1040 m 593 456 q 566 392 593 418 q 502 366 539 366 q 437 392 465 366 q 410 456 410 418 q 437 520 410 493 q 502 547 465 547 q 566 520 539 547 q 593 456 593 493 z "},"":{"ha":1065,"x_min":-51,"x_max":1193,"o":"m 1193 962 l 1182 918 q 1122 907 1164 917 q 1061 886 1080 897 q 1013 821 1031 869 q 977 699 994 773 l 813 -9 l 752 -9 l 357 803 l 237 278 q 223 207 229 243 q 218 149 218 171 q 222 110 218 125 q 235 86 227 96 q 293 59 247 72 q 354 45 339 46 l 344 0 l -51 0 l -41 45 q 25 58 -18 47 q 83 79 68 69 q 129 139 110 98 q 168 271 148 180 l 276 737 q 283 775 281 760 q 285 805 285 791 q 281 836 285 821 q 264 867 277 850 q 206 904 240 894 q 144 918 172 915 l 155 962 l 431 962 l 798 210 l 908 690 q 922 760 916 726 q 927 819 927 794 q 923 856 927 841 q 909 879 918 871 q 854 904 893 893 q 791 918 816 914 l 802 962 l 1193 962 m 902 1218 q 883 1169 902 1187 q 833 1135 864 1150 q 736 1091 802 1120 q 588 1022 671 1061 l 570 1048 q 679 1147 640 1110 q 761 1227 718 1184 q 806 1260 787 1253 q 845 1267 826 1267 q 886 1253 869 1267 q 902 1218 902 1239 z "},"":{"ha":819,"x_min":54,"x_max":779,"o":"m 779 79 l 769 35 q 674 0 708 11 q 606 -12 640 -12 q 524 17 551 -12 q 497 86 497 45 q 500 119 497 101 q 509 161 503 137 l 575 414 q 587 467 583 444 q 591 505 591 491 q 570 577 591 551 q 505 604 548 604 q 412 576 464 604 q 315 498 361 549 l 201 0 l 75 0 l 176 439 q 185 487 179 456 q 192 536 192 517 q 179 587 192 574 q 127 600 166 600 q 90 595 113 600 q 54 587 66 590 l 64 630 q 157 665 117 654 q 227 677 198 677 q 304 648 281 677 q 328 567 327 618 l 332 567 q 461 655 407 627 q 585 684 515 684 q 686 647 650 684 q 723 548 723 609 q 719 505 723 536 q 707 443 715 473 l 650 225 q 638 175 644 203 q 633 132 633 147 q 650 79 633 93 q 705 65 667 65 q 742 70 718 65 q 779 79 766 74 m 670 994 q 657 950 670 967 q 618 913 644 934 q 535 853 586 889 q 399 753 485 817 l 374 774 q 468 901 441 864 q 524 983 494 939 q 569 1031 547 1020 q 617 1043 591 1043 q 655 1028 640 1043 q 670 994 670 1013 z "},"":{"ha":1065,"x_min":-51,"x_max":1193,"o":"m 1193 962 l 1182 918 q 1122 907 1164 917 q 1061 886 1080 897 q 1013 821 1031 869 q 977 699 994 773 l 813 -9 l 752 -9 l 357 803 l 237 278 q 223 207 229 243 q 218 149 218 171 q 222 110 218 125 q 235 86 227 96 q 293 59 247 72 q 354 45 339 46 l 344 0 l -51 0 l -41 45 q 25 58 -18 47 q 83 79 68 69 q 129 139 110 98 q 168 271 148 180 l 276 737 q 283 775 281 760 q 285 805 285 791 q 281 836 285 821 q 264 867 277 850 q 206 904 240 894 q 144 918 172 915 l 155 962 l 431 962 l 798 210 l 908 690 q 922 760 916 726 q 927 819 927 794 q 923 856 927 841 q 909 879 918 871 q 854 904 893 893 q 791 918 816 914 l 802 962 l 1193 962 m 910 1246 l 713 1053 q 688 1030 697 1038 q 645 1023 678 1023 q 608 1031 617 1023 q 591 1050 598 1040 l 469 1246 l 503 1267 l 661 1124 l 878 1267 l 910 1246 z "},"":{"ha":819,"x_min":54,"x_max":779,"o":"m 779 79 l 769 35 q 674 0 708 11 q 606 -12 640 -12 q 524 17 551 -12 q 497 86 497 45 q 500 119 497 101 q 509 161 503 137 l 575 414 q 587 467 583 444 q 591 505 591 491 q 570 577 591 551 q 505 604 548 604 q 412 576 464 604 q 315 498 361 549 l 201 0 l 75 0 l 176 439 q 185 487 179 456 q 192 536 192 517 q 179 587 192 574 q 127 600 166 600 q 90 595 113 600 q 54 587 66 590 l 64 630 q 157 665 117 654 q 227 677 198 677 q 304 648 281 677 q 328 567 327 618 l 332 567 q 461 655 407 627 q 585 684 515 684 q 686 647 650 684 q 723 548 723 609 q 719 505 723 536 q 707 443 715 473 l 650 225 q 638 175 644 203 q 633 132 633 147 q 650 79 633 93 q 705 65 667 65 q 742 70 718 65 q 779 79 766 74 m 718 1024 l 512 789 q 488 764 496 770 q 446 758 479 758 q 411 765 420 758 q 393 786 401 772 l 277 1024 l 310 1046 l 462 861 l 686 1046 l 718 1024 z "},"":{"ha":1015,"x_min":68,"x_max":1002,"o":"m 1002 592 q 954 350 1002 463 q 830 155 907 236 q 651 25 751 73 q 442 -23 550 -23 q 171 86 274 -23 q 68 366 68 195 q 115 611 68 498 q 239 806 163 724 q 417 937 315 889 q 627 985 519 985 q 897 879 793 985 q 1002 592 1002 772 m 743 230 q 817 420 791 314 q 842 631 842 526 q 785 848 842 767 q 615 928 727 928 q 454 877 528 928 q 323 726 379 825 q 251 533 275 638 q 227 335 227 428 q 286 113 227 193 q 454 34 345 34 q 621 90 547 34 q 743 230 694 145 m 669 1138 q 590 1100 621 1115 q 450 1022 559 1084 l 433 1046 q 533 1146 506 1118 q 600 1215 560 1174 q 643 1253 623 1240 q 680 1266 663 1266 q 719 1251 706 1266 q 732 1215 732 1236 q 715 1170 732 1187 q 669 1138 697 1152 m 932 1138 q 852 1100 885 1115 q 711 1022 819 1084 l 694 1046 q 795 1146 766 1118 q 863 1215 824 1174 q 907 1253 887 1240 q 944 1266 926 1266 q 983 1251 970 1266 q 996 1215 996 1236 q 979 1170 996 1187 q 932 1138 961 1152 z "},"":{"ha":746,"x_min":45,"x_max":764,"o":"m 701 418 q 673 258 701 338 q 595 117 646 178 q 469 17 543 55 q 298 -20 395 -20 q 116 52 186 -20 q 45 248 45 125 q 75 416 45 338 q 155 553 105 494 q 281 648 206 612 q 444 684 356 684 q 632 611 564 684 q 701 418 701 537 m 562 444 q 528 588 562 540 q 429 636 494 636 q 323 602 373 636 q 237 489 273 567 q 197 358 210 430 q 184 224 184 286 q 217 78 184 127 q 319 28 251 28 q 426 66 379 28 q 502 162 473 104 q 547 293 531 219 q 562 444 562 366 m 764 994 q 751 951 764 969 q 715 913 739 932 q 628 844 681 886 q 511 753 574 802 l 489 772 q 573 891 540 843 q 631 981 606 940 q 671 1029 654 1016 q 713 1043 688 1043 q 750 1028 735 1043 q 764 994 764 1013 m 511 995 q 500 951 511 968 q 465 913 490 935 q 393 853 439 892 q 271 753 347 814 l 248 772 q 329 894 296 843 q 381 981 361 945 q 419 1029 401 1016 q 461 1043 437 1043 q 497 1028 483 1043 q 511 995 511 1013 z "},"":{"ha":975,"x_min":-18,"x_max":929,"o":"m 929 45 l 918 0 l 675 0 q 566 234 617 137 q 458 438 515 332 l 357 438 l 286 127 q 283 115 284 122 q 282 104 282 107 q 288 77 282 88 q 309 58 294 65 q 349 50 318 54 q 400 45 380 45 l 389 0 l -18 0 l -7 45 q 41 50 10 46 q 86 58 73 53 q 123 86 111 68 q 141 127 136 104 l 303 830 q 306 844 304 837 q 307 858 307 851 q 301 883 307 872 q 281 900 296 894 q 239 911 267 905 q 195 918 212 916 l 205 962 l 637 962 q 744 951 696 962 q 825 919 792 939 q 881 862 861 897 q 902 779 902 827 q 878 662 902 715 q 814 572 854 610 q 717 508 771 534 q 597 468 663 483 q 684 306 650 366 q 762 159 717 246 q 803 95 785 115 q 842 64 821 76 q 886 50 859 55 q 929 45 913 45 m 735 764 q 693 872 735 833 q 574 911 650 911 l 466 911 l 370 493 l 467 493 q 656 571 578 493 q 735 764 735 648 m 802 1218 q 783 1169 802 1187 q 733 1135 764 1150 q 637 1091 702 1120 q 488 1022 572 1061 l 470 1048 q 579 1147 540 1110 q 661 1227 618 1184 q 707 1260 687 1253 q 745 1267 726 1267 q 786 1253 770 1267 q 802 1218 802 1239 z "},"":{"ha":641,"x_min":54,"x_max":647,"o":"m 647 574 q 642 532 647 555 q 626 494 636 509 q 599 466 614 476 q 557 456 585 456 q 503 475 521 456 q 484 515 484 493 q 494 563 484 536 q 515 614 505 589 q 489 610 507 614 q 444 593 470 606 q 384 554 417 580 q 312 486 350 528 l 203 0 l 77 0 l 176 439 q 185 488 179 456 q 192 536 192 521 q 179 587 192 574 q 127 600 166 600 q 90 595 113 600 q 54 587 66 590 l 64 630 q 157 665 117 654 q 227 677 198 677 q 304 647 281 677 q 328 559 328 618 l 332 559 q 454 656 412 629 q 541 684 496 684 q 583 679 563 684 q 618 661 604 673 q 640 628 633 646 q 647 574 647 609 m 589 994 q 576 950 589 967 q 536 913 563 934 q 454 853 505 889 q 317 753 404 817 l 293 774 q 386 901 360 864 q 442 983 412 939 q 488 1031 466 1020 q 536 1043 510 1043 q 573 1028 558 1043 q 589 994 589 1013 z "},"":{"ha":975,"x_min":-18,"x_max":929,"o":"m 929 45 l 918 0 l 675 0 q 566 234 617 137 q 458 438 515 332 l 357 438 l 286 127 q 283 115 284 122 q 282 104 282 107 q 288 77 282 88 q 309 58 294 65 q 349 50 318 54 q 400 45 380 45 l 389 0 l -18 0 l -7 45 q 41 50 10 46 q 86 58 73 53 q 123 86 111 68 q 141 127 136 104 l 303 830 q 306 844 304 837 q 307 858 307 851 q 301 883 307 872 q 281 900 296 894 q 239 911 267 905 q 195 918 212 916 l 205 962 l 637 962 q 744 951 696 962 q 825 919 792 939 q 881 862 861 897 q 902 779 902 827 q 878 662 902 715 q 814 572 854 610 q 717 508 771 534 q 597 468 663 483 q 684 306 650 366 q 762 159 717 246 q 803 95 785 115 q 842 64 821 76 q 886 50 859 55 q 929 45 913 45 m 735 764 q 693 872 735 833 q 574 911 650 911 l 466 911 l 370 493 l 467 493 q 656 571 578 493 q 735 764 735 648 m 817 1246 l 620 1053 q 594 1030 604 1038 q 551 1023 585 1023 q 514 1031 524 1023 q 498 1050 505 1040 l 376 1246 l 409 1267 l 568 1124 l 785 1267 l 817 1246 z "},"":{"ha":641,"x_min":54,"x_max":647,"o":"m 647 574 q 642 532 647 555 q 626 494 636 509 q 599 466 614 476 q 557 456 585 456 q 503 475 521 456 q 484 515 484 493 q 494 563 484 536 q 515 614 505 589 q 489 610 507 614 q 444 593 470 606 q 384 554 417 580 q 312 486 350 528 l 203 0 l 77 0 l 176 439 q 185 488 179 456 q 192 536 192 521 q 179 587 192 574 q 127 600 166 600 q 90 595 113 600 q 54 587 66 590 l 64 630 q 157 665 117 654 q 227 677 198 677 q 304 647 281 677 q 328 559 328 618 l 332 559 q 454 656 412 629 q 541 684 496 684 q 583 679 563 684 q 618 661 604 673 q 640 628 633 646 q 647 574 647 609 m 623 1024 l 418 789 q 393 764 401 770 q 352 758 385 758 q 316 765 326 758 q 299 786 307 772 l 182 1024 l 216 1046 l 368 861 l 591 1046 l 623 1024 z "},"":{"ha":779,"x_min":-6,"x_max":813,"o":"m 334 -20 q 188 1 251 -20 q 87 49 125 22 l 48 -1 l -6 -1 l 60 329 l 115 329 q 131 218 119 270 q 172 125 144 167 q 246 59 201 83 q 359 36 292 36 q 521 92 460 36 q 582 245 582 148 q 556 338 582 297 q 479 401 530 378 q 382 438 430 422 q 288 477 334 455 q 190 561 227 507 q 153 684 153 616 q 181 804 153 749 q 258 899 210 859 q 369 961 304 938 q 499 984 435 984 q 613 970 559 984 q 722 916 667 956 l 759 962 l 813 962 l 745 643 l 690 643 q 679 751 688 695 q 650 843 671 806 q 588 906 628 883 q 481 928 548 928 q 347 873 401 928 q 293 742 293 818 q 313 657 293 692 q 375 600 333 622 q 469 561 420 577 q 557 526 518 544 q 679 437 635 489 q 722 311 722 386 q 691 177 722 239 q 608 73 660 115 q 485 4 553 28 q 334 -20 416 -20 m 728 1218 q 709 1169 728 1187 q 659 1135 690 1150 q 562 1091 627 1120 q 414 1022 497 1061 l 395 1048 q 505 1147 465 1110 q 587 1227 544 1184 q 632 1260 612 1253 q 671 1267 652 1267 q 711 1253 695 1267 q 728 1218 728 1239 z "},"":{"ha":599,"x_min":12,"x_max":570,"o":"m 245 -20 q 78 16 145 -20 q 12 109 12 52 q 31 160 12 136 q 79 184 51 184 q 123 171 106 184 q 149 142 140 159 q 167 100 159 124 q 180 60 175 75 q 209 38 191 48 q 260 28 227 28 q 371 65 334 28 q 409 164 409 102 q 374 238 409 210 q 269 288 338 265 q 210 313 243 296 q 155 349 176 330 q 116 400 131 370 q 101 471 101 430 q 179 621 101 557 q 370 684 256 684 q 427 682 396 684 q 494 667 457 679 q 548 634 526 656 q 570 579 570 613 q 552 529 570 551 q 503 506 533 506 q 461 517 477 506 q 434 546 445 528 q 416 585 423 564 q 401 627 410 606 q 378 634 389 632 q 351 636 368 636 q 251 601 285 636 q 216 516 216 565 q 247 445 216 469 q 349 395 278 420 q 483 319 441 361 q 525 213 525 276 q 446 45 525 110 q 245 -20 366 -20 m 562 994 q 549 950 562 967 q 509 913 536 934 q 427 853 477 889 q 290 753 376 817 l 266 774 q 359 901 333 864 q 415 983 385 939 q 461 1031 439 1020 q 509 1043 483 1043 q 546 1028 531 1043 q 562 994 562 1013 z "},"":{"ha":859,"x_min":88,"x_max":987,"o":"m 987 962 l 926 701 l 880 701 q 873 762 879 725 q 857 827 867 798 q 826 881 845 859 q 782 907 808 903 q 730 911 762 910 q 671 913 699 913 l 629 913 l 450 136 q 448 124 448 131 q 447 112 447 118 q 453 85 447 96 q 476 66 459 75 q 525 53 490 61 q 583 45 561 45 l 572 0 l 118 0 l 129 45 q 188 50 149 46 q 244 60 227 54 q 285 88 271 71 q 304 130 298 106 l 484 913 l 448 913 q 397 912 428 913 q 335 907 367 911 q 283 881 313 905 q 223 824 253 857 q 172 759 195 792 q 136 701 149 726 l 88 701 l 149 962 l 987 962 m 230 -301 l 236 -262 q 332 -235 302 -258 q 370 -176 361 -212 l 333 -176 q 276 -161 293 -176 q 258 -123 258 -146 q 282 -70 258 -95 q 347 -45 307 -45 q 410 -69 387 -45 q 434 -133 434 -93 q 377 -258 434 -214 q 230 -301 319 -301 z "},"":{"ha":482,"x_min":73,"x_max":524,"o":"m 205 -14 q 111 12 141 -14 q 81 87 81 38 q 83 116 81 102 q 89 148 85 130 l 194 601 l 73 601 l 87 663 l 211 663 l 258 861 l 380 861 l 334 663 l 524 663 l 509 601 l 321 601 l 235 227 q 224 177 229 201 q 220 136 220 153 q 239 82 220 99 q 307 64 258 64 q 356 69 324 64 q 406 80 388 73 l 394 31 q 304 -1 347 12 q 205 -14 262 -14 m 103 -301 l 109 -262 q 205 -235 176 -258 q 243 -176 235 -212 l 206 -176 q 149 -161 166 -176 q 132 -123 132 -146 q 156 -70 132 -95 q 220 -45 180 -45 q 283 -69 260 -45 q 307 -133 307 -93 q 250 -258 307 -214 q 103 -301 193 -301 z "},"":{"ha":859,"x_min":88,"x_max":987,"o":"m 987 962 l 926 701 l 880 701 q 873 762 879 725 q 857 827 867 798 q 826 881 845 859 q 782 907 808 903 q 730 911 762 910 q 671 913 699 913 l 629 913 l 450 136 q 448 124 448 131 q 447 112 447 118 q 453 85 447 96 q 476 66 459 75 q 525 53 490 61 q 583 45 561 45 l 572 0 l 118 0 l 129 45 q 188 50 149 46 q 244 60 227 54 q 285 88 271 71 q 304 130 298 106 l 484 913 l 448 913 q 397 912 428 913 q 335 907 367 911 q 283 881 313 905 q 223 824 253 857 q 172 759 195 792 q 136 701 149 726 l 88 701 l 149 962 l 987 962 m 835 1246 l 638 1053 q 612 1030 622 1038 q 570 1023 603 1023 q 532 1031 542 1023 q 516 1050 523 1040 l 394 1246 l 427 1267 l 586 1124 l 803 1267 l 835 1246 z "},"":{"ha":482,"x_min":73,"x_max":679,"o":"m 205 -14 q 111 12 141 -14 q 81 87 81 38 q 83 116 81 102 q 89 148 85 130 l 194 601 l 73 601 l 87 663 l 211 663 l 258 861 l 380 861 l 334 663 l 524 663 l 509 601 l 321 601 l 235 227 q 224 177 229 201 q 220 136 220 153 q 239 82 220 99 q 307 64 258 64 q 356 69 324 64 q 406 80 388 73 l 394 31 q 304 -1 347 12 q 205 -14 262 -14 m 602 810 q 534 764 572 785 q 462 728 496 743 l 446 768 q 499 795 471 781 q 543 823 527 809 q 578 860 564 840 q 600 907 591 880 l 574 907 q 514 925 534 907 q 495 968 495 943 q 501 999 495 985 q 520 1027 507 1013 q 550 1048 532 1040 q 589 1057 568 1057 q 656 1033 634 1057 q 679 970 679 1008 q 657 880 679 920 q 602 810 636 840 z "},"":{"ha":1050,"x_min":144,"x_max":1178,"o":"m 447 -23 q 224 37 304 -23 q 144 198 144 98 q 145 225 144 212 q 151 254 147 237 l 283 826 q 285 838 284 831 q 286 849 286 844 q 279 874 286 863 q 260 895 273 886 q 220 910 245 905 q 178 918 195 916 l 189 962 l 589 962 l 578 918 q 529 911 559 917 q 484 901 499 906 q 446 873 458 892 q 429 833 435 854 l 306 298 q 299 258 302 280 q 296 216 296 237 q 303 155 296 181 q 336 102 311 129 q 394 65 357 79 q 489 50 432 50 q 621 74 566 50 q 713 134 676 98 q 769 211 747 169 q 800 292 791 253 q 846 482 825 389 q 890 684 867 574 q 906 772 902 739 q 911 828 911 806 q 907 860 911 848 q 892 880 903 871 q 833 906 873 897 q 774 918 794 916 l 785 962 l 1178 962 l 1167 918 q 1109 909 1149 917 q 1046 887 1070 901 q 997 815 1018 871 q 962 700 975 760 q 919 504 941 603 q 868 290 897 406 q 797 135 844 196 q 689 39 749 73 q 570 -9 631 5 q 447 -23 508 -23 m 887 1138 q 831 1014 887 1065 q 685 962 774 962 q 574 996 614 962 q 533 1086 533 1030 q 591 1212 533 1160 q 736 1264 650 1264 q 846 1229 804 1264 q 887 1138 887 1194 m 802 1138 q 784 1199 802 1173 q 729 1224 766 1224 q 649 1183 680 1224 q 618 1088 618 1141 q 637 1026 618 1050 q 692 1002 655 1002 q 772 1042 743 1002 q 802 1138 802 1082 z "},"":{"ha":799,"x_min":41,"x_max":762,"o":"m 479 95 l 475 95 q 416 49 444 70 q 359 14 387 28 q 300 -10 327 -3 q 231 -17 274 -17 q 130 21 166 -17 q 94 119 94 58 q 97 158 94 136 q 110 224 100 180 l 163 439 q 174 492 170 469 q 178 536 178 515 q 166 587 178 574 q 115 600 153 600 q 77 594 100 600 q 41 585 54 589 l 51 629 q 144 665 104 652 q 209 677 184 677 q 289 651 263 677 q 314 579 314 626 q 311 546 314 567 q 303 504 309 525 l 243 253 q 232 200 236 224 q 227 162 227 175 q 247 90 227 117 q 309 64 267 64 q 398 86 353 64 q 490 155 444 109 l 609 666 l 727 674 l 735 664 l 634 227 q 622 171 627 199 q 616 132 616 143 q 633 79 616 93 q 688 65 650 65 q 725 69 701 65 q 762 78 749 73 l 751 35 q 657 0 695 12 q 588 -12 620 -12 q 506 20 533 -12 q 479 95 479 52 m 654 931 q 597 807 654 858 q 452 755 541 755 q 340 789 381 755 q 300 879 300 823 q 358 1005 300 953 q 503 1057 416 1057 q 612 1022 571 1057 q 654 931 654 987 m 568 931 q 550 992 568 966 q 496 1017 532 1017 q 416 976 446 1017 q 385 881 385 935 q 404 820 385 844 q 459 795 422 795 q 539 836 509 795 q 568 931 568 876 z "},"":{"ha":1050,"x_min":144,"x_max":1178,"o":"m 447 -23 q 224 37 304 -23 q 144 198 144 98 q 145 225 144 212 q 151 254 147 237 l 283 826 q 285 838 284 831 q 286 849 286 844 q 279 874 286 863 q 260 895 273 886 q 220 910 245 905 q 178 918 195 916 l 189 962 l 589 962 l 578 918 q 529 911 559 917 q 484 901 499 906 q 446 873 458 892 q 429 833 435 854 l 306 298 q 299 258 302 280 q 296 216 296 237 q 303 155 296 181 q 336 102 311 129 q 394 65 357 79 q 489 50 432 50 q 621 74 566 50 q 713 134 676 98 q 769 211 747 169 q 800 292 791 253 q 846 482 825 389 q 890 684 867 574 q 906 772 902 739 q 911 828 911 806 q 907 860 911 848 q 892 880 903 871 q 833 906 873 897 q 774 918 794 916 l 785 962 l 1178 962 l 1167 918 q 1109 909 1149 917 q 1046 887 1070 901 q 997 815 1018 871 q 962 700 975 760 q 919 504 941 603 q 868 290 897 406 q 797 135 844 196 q 689 39 749 73 q 570 -9 631 5 q 447 -23 508 -23 m 696 1138 q 617 1100 648 1115 q 477 1022 586 1084 l 460 1046 q 560 1146 533 1118 q 627 1215 587 1174 q 670 1253 650 1240 q 707 1266 690 1266 q 746 1251 733 1266 q 760 1215 760 1236 q 742 1170 760 1187 q 696 1138 724 1152 m 960 1138 q 879 1100 912 1115 q 738 1022 846 1084 l 721 1046 q 822 1146 793 1118 q 890 1215 851 1174 q 934 1253 914 1240 q 971 1266 954 1266 q 1010 1251 997 1266 q 1023 1215 1023 1236 q 1006 1170 1023 1187 q 960 1138 988 1152 z "},"":{"ha":799,"x_min":41,"x_max":781,"o":"m 479 95 l 475 95 q 416 49 444 70 q 359 14 387 28 q 300 -10 327 -3 q 231 -17 274 -17 q 130 21 166 -17 q 94 119 94 58 q 97 158 94 136 q 110 224 100 180 l 163 439 q 174 492 170 469 q 178 536 178 515 q 166 587 178 574 q 115 600 153 600 q 77 594 100 600 q 41 585 54 589 l 51 629 q 144 665 104 652 q 209 677 184 677 q 289 651 263 677 q 314 579 314 626 q 311 546 314 567 q 303 504 309 525 l 243 253 q 232 200 236 224 q 227 162 227 175 q 247 90 227 117 q 309 64 267 64 q 398 86 353 64 q 490 155 444 109 l 609 666 l 727 674 l 735 664 l 634 227 q 622 171 627 199 q 616 132 616 143 q 633 79 616 93 q 688 65 650 65 q 725 69 701 65 q 762 78 749 73 l 751 35 q 657 0 695 12 q 588 -12 620 -12 q 506 20 533 -12 q 479 95 479 52 m 781 994 q 768 951 781 969 q 732 913 755 932 q 645 844 698 886 q 528 753 591 802 l 506 772 q 590 891 557 843 q 648 981 623 940 q 688 1029 671 1016 q 730 1043 705 1043 q 767 1028 752 1043 q 781 994 781 1013 m 528 995 q 517 951 528 968 q 482 913 507 935 q 410 853 456 892 q 288 753 363 814 l 264 772 q 346 894 313 843 q 398 981 378 945 q 436 1029 418 1016 q 478 1043 454 1043 q 514 1028 500 1043 q 528 995 528 1013 z "},"":{"ha":836,"x_min":-61,"x_max":941,"o":"m 941 962 l 935 939 l 140 51 l 359 51 q 483 60 416 51 q 574 90 550 70 q 681 192 628 132 q 765 300 734 252 l 812 300 l 711 0 l -61 0 l -55 24 l 741 911 l 528 911 q 464 909 488 911 q 414 902 439 906 q 294 826 366 893 q 176 690 222 760 l 129 690 l 221 962 l 941 962 m 787 1218 q 768 1169 787 1187 q 718 1135 749 1150 q 622 1091 687 1120 q 473 1022 557 1061 l 455 1048 q 564 1147 525 1110 q 646 1227 604 1184 q 692 1260 672 1253 q 730 1267 711 1267 q 771 1253 755 1267 q 787 1218 787 1239 z "},"":{"ha":616,"x_min":-18,"x_max":633,"o":"m 633 664 l 625 624 l 140 54 q 193 53 165 53 q 256 52 222 52 q 311 53 282 52 q 385 56 340 54 q 430 75 412 58 q 458 115 447 93 q 488 170 469 132 q 519 236 507 208 l 559 236 l 513 0 l -18 0 l -7 47 l 469 610 l 380 610 q 288 608 321 610 q 224 595 254 606 q 178 548 201 587 q 133 458 154 509 l 92 458 l 132 664 l 633 664 m 589 994 q 576 950 589 967 q 536 913 563 934 q 454 853 505 889 q 317 753 404 817 l 293 774 q 386 901 360 864 q 442 983 412 939 q 488 1031 466 1020 q 536 1043 510 1043 q 573 1028 558 1043 q 589 994 589 1013 z "},"":{"ha":836,"x_min":-61,"x_max":941,"o":"m 941 962 l 935 939 l 140 51 l 359 51 q 483 60 416 51 q 574 90 550 70 q 681 192 628 132 q 765 300 734 252 l 812 300 l 711 0 l -61 0 l -55 24 l 741 911 l 528 911 q 464 909 488 911 q 414 902 439 906 q 294 826 366 893 q 176 690 222 760 l 129 690 l 221 962 l 941 962 m 661 1179 q 635 1112 661 1140 q 572 1084 610 1084 q 512 1110 538 1084 q 487 1173 487 1137 q 512 1237 487 1210 q 572 1264 538 1264 q 636 1239 611 1264 q 661 1179 661 1213 z "},"":{"ha":616,"x_min":-18,"x_max":633,"o":"m 633 664 l 625 624 l 140 54 q 193 53 165 53 q 256 52 222 52 q 311 53 282 52 q 385 56 340 54 q 430 75 412 58 q 458 115 447 93 q 488 170 469 132 q 519 236 507 208 l 559 236 l 513 0 l -18 0 l -7 47 l 469 610 l 380 610 q 288 608 321 610 q 224 595 254 606 q 178 548 201 587 q 133 458 154 509 l 92 458 l 132 664 l 633 664 m 477 941 q 452 874 477 902 q 389 846 427 846 q 329 872 355 846 q 304 935 304 899 q 329 999 304 972 q 389 1026 355 1026 q 453 1001 428 1026 q 477 941 477 975 z "},"":{"ha":810,"x_min":-26,"x_max":938,"o":"m 938 962 l 876 696 l 825 696 q 793 843 820 786 q 724 906 767 900 q 669 911 701 909 q 604 912 636 912 l 466 912 l 287 133 q 285 122 286 127 q 284 111 284 116 q 291 85 284 96 q 314 65 298 74 q 365 52 326 59 q 416 45 405 45 l 406 0 l -26 0 l -16 45 q 36 50 2 46 q 85 58 71 53 q 123 85 110 67 q 141 127 136 102 l 302 826 q 304 838 303 831 q 305 850 305 844 q 299 876 305 866 q 277 895 294 886 q 231 909 261 903 q 186 918 201 916 l 197 962 l 938 962 z "},"":{"ha":1015,"x_min":68,"x_max":1002,"o":"m 1002 592 q 954 350 1002 463 q 830 155 907 236 q 651 25 751 73 q 442 -23 550 -23 q 171 86 274 -23 q 68 366 68 195 q 115 611 68 498 q 239 806 163 724 q 417 937 315 889 q 627 985 519 985 q 897 879 793 985 q 1002 592 1002 772 m 743 230 q 818 420 791 314 q 844 631 844 526 q 785 848 844 767 q 615 928 727 928 q 453 877 528 928 q 323 726 378 825 q 250 533 274 638 q 226 335 226 428 q 285 113 226 193 q 454 34 345 34 q 621 90 547 34 q 743 230 695 145 m 688 328 l 645 328 q 644 373 645 351 q 636 410 642 396 q 607 426 631 422 q 523 431 584 431 q 435 426 459 431 q 400 410 411 422 q 375 374 385 393 q 353 328 366 356 l 310 328 l 381 633 l 425 633 q 426 586 425 602 q 433 553 427 569 q 459 536 438 541 q 547 532 481 532 q 633 536 607 532 q 669 553 660 541 q 694 587 684 570 q 716 633 704 604 l 760 633 l 688 328 z "}}}
